M48
;DRILL file {Pcbnew (2013-07-07 BZR 4022)-stable} date 9/2/2014 11:24:24 PM
;FORMAT={-:-/ absolute / inch / decimal}
FMAT,2
INCH,TZ
T1C0.031
T2C0.039
T3C0.059
%
G90
G05
M72
T1
X1.9736Y-1.4331
X1.9736Y-1.5331
X1.9736Y-1.6331
X1.9736Y-1.7331
X1.9736Y-1.8331
X1.9736Y-1.9331
X2.2836Y-1.4331
X2.2836Y-1.5331
X2.2836Y-1.6331
X2.2836Y-1.7331
X2.2836Y-1.8331
X2.2836Y-1.9331
X2.3836Y-1.3831
X2.4836Y-1.3831
X2.5836Y-2.1781
X2.6836Y-1.3831
X2.7336Y-1.4831
X2.7836Y-1.3831
X2.8336Y-1.4831
X2.8836Y-1.3831
X2.9836Y-1.3831
X3.0836Y-1.3831
X3.1836Y-1.3831
X3.1836Y-1.9831
X3.2836Y-1.3831
X3.3836Y-1.3831
X3.4836Y-1.3831
X3.4836Y-1.9831
X3.6236Y-1.5931
X3.6236Y-1.6931
X3.6236Y-1.7931
X3.6236Y-1.8931
X3.7236Y-1.5931
X3.7236Y-1.6931
X3.7236Y-1.7931
X3.7236Y-1.8931
X4.1736Y-1.4131
X4.1736Y-1.5131
X4.1736Y-1.6131
X4.2736Y-1.4131
X4.2736Y-1.5131
X4.2736Y-1.6131
X4.8736Y-1.6631
T2
X1.9736Y-2.1131
X1.9736Y-2.2131
X4.8186Y-1.8631
X4.8236Y-1.7631
T3
X4.8736Y-2.0381
X4.8736Y-2.2131
T0
M30
