G04 (created by PCBNEW (2013-07-07 BZR 4022)-stable) date 9/2/2014 5:43:59 PM*
%MOIN*%
G04 Gerber Fmt 3.4, Leading zero omitted, Abs format*
%FSLAX34Y34*%
G01*
G70*
G90*
G04 APERTURE LIST*
%ADD10C,0.00590551*%
%ADD11C,0.00984252*%
%ADD12R,0.144X0.08*%
%ADD13R,0.04X0.08*%
%ADD14R,0.025X0.045*%
%ADD15C,0.0590551*%
%ADD16R,0.055X0.055*%
%ADD17R,0.19685X0.0787402*%
%ADD18R,0.05X0.05*%
%ADD19R,0.0708661X0.165354*%
%ADD20R,0.161417X0.0708661*%
%ADD21R,0.11811X0.0787402*%
%ADD22R,0.15748X0.11811*%
%ADD23R,0.07X0.2*%
%ADD24C,0.0787402*%
%ADD25C,0.019685*%
%ADD26C,0.0393701*%
%ADD27C,0.0590551*%
%ADD28C,0.01*%
G04 APERTURE END LIST*
G54D10*
G54D11*
X28096Y-11347D02*
X28359Y-11347D01*
X28134Y-11347D02*
X28115Y-11365D01*
X28096Y-11403D01*
X28096Y-11459D01*
X28115Y-11497D01*
X28153Y-11515D01*
X28359Y-11515D01*
X28359Y-11928D02*
X28171Y-11797D01*
X28359Y-11703D02*
X27965Y-11703D01*
X27965Y-11853D01*
X27984Y-11890D01*
X28003Y-11909D01*
X28040Y-11928D01*
X28096Y-11928D01*
X28134Y-11909D01*
X28153Y-11890D01*
X28171Y-11853D01*
X28171Y-11703D01*
X28153Y-12228D02*
X28153Y-12096D01*
X28359Y-12096D02*
X27965Y-12096D01*
X27965Y-12284D01*
X28003Y-12415D02*
X27984Y-12434D01*
X27965Y-12471D01*
X27965Y-12565D01*
X27984Y-12603D01*
X28003Y-12621D01*
X28040Y-12640D01*
X28078Y-12640D01*
X28134Y-12621D01*
X28359Y-12396D01*
X28359Y-12640D01*
X28096Y-12978D02*
X28359Y-12978D01*
X27946Y-12884D02*
X28228Y-12790D01*
X28228Y-13034D01*
X28359Y-13371D02*
X28359Y-13184D01*
X27965Y-13184D01*
X27965Y-13578D02*
X27965Y-13615D01*
X27984Y-13653D01*
X28003Y-13671D01*
X28040Y-13690D01*
X28115Y-13709D01*
X28209Y-13709D01*
X28284Y-13690D01*
X28321Y-13671D01*
X28340Y-13653D01*
X28359Y-13615D01*
X28359Y-13578D01*
X28340Y-13540D01*
X28321Y-13521D01*
X28284Y-13503D01*
X28209Y-13484D01*
X28115Y-13484D01*
X28040Y-13503D01*
X28003Y-13521D01*
X27984Y-13540D01*
X27965Y-13578D01*
X28359Y-14084D02*
X28359Y-13859D01*
X28359Y-13971D02*
X27965Y-13971D01*
X28021Y-13934D01*
X28059Y-13896D01*
X28078Y-13859D01*
X28209Y-14252D02*
X28209Y-14552D01*
X28359Y-14402D02*
X28059Y-14402D01*
G54D12*
X23600Y-11300D03*
G54D13*
X23600Y-13900D03*
X22700Y-13900D03*
X24500Y-13900D03*
G54D14*
X21500Y-16400D03*
X22100Y-16400D03*
G54D15*
X9500Y-12000D03*
X9500Y-11000D03*
X9500Y-10000D03*
X9500Y-15000D03*
X9500Y-14000D03*
X9500Y-13000D03*
G54D16*
X38500Y-12300D03*
G54D17*
X38000Y-13300D03*
X37950Y-14300D03*
G54D15*
X17600Y-9500D03*
X18600Y-9500D03*
X20600Y-9500D03*
X19600Y-9500D03*
G54D16*
X31500Y-9800D03*
G54D15*
X32500Y-9800D03*
X31500Y-10800D03*
X32500Y-10800D03*
X31500Y-11800D03*
X32500Y-11800D03*
G54D18*
X17900Y-12400D03*
G54D19*
X16100Y-12849D03*
X16100Y-14648D03*
G54D20*
X16549Y-15999D03*
G54D18*
X17900Y-15999D03*
X19699Y-15999D03*
X19699Y-14200D03*
X19699Y-13298D03*
X19699Y-12400D03*
X18801Y-12400D03*
X18801Y-15999D03*
X19699Y-15101D03*
G54D15*
X26000Y-14600D03*
X27000Y-14600D03*
X26000Y-13600D03*
X27000Y-13600D03*
X26000Y-12600D03*
X27000Y-12600D03*
X26000Y-11600D03*
X27000Y-11600D03*
G54D21*
X9500Y-17800D03*
X9500Y-16800D03*
G54D15*
X21600Y-15500D03*
X24600Y-15500D03*
X24600Y-9500D03*
X23600Y-9500D03*
X22600Y-9500D03*
X21600Y-9500D03*
X18100Y-10500D03*
X17100Y-10500D03*
X16600Y-9500D03*
X14600Y-9500D03*
X13600Y-9500D03*
X12600Y-10000D03*
X12600Y-11000D03*
X12600Y-12000D03*
X12600Y-13000D03*
X12600Y-14000D03*
X12600Y-15000D03*
G54D22*
X38500Y-16050D03*
X38500Y-17800D03*
G54D23*
X10900Y-16800D03*
X13500Y-16800D03*
G54D15*
X15600Y-17450D03*
G54D24*
X16549Y-15999D02*
X16549Y-16900D01*
X16549Y-16900D02*
X17549Y-17900D01*
X17549Y-17900D02*
X29800Y-17900D01*
X29800Y-17900D02*
X34400Y-13300D01*
X34400Y-13300D02*
X38000Y-13300D01*
G54D25*
X32500Y-10800D02*
X33150Y-10800D01*
X33200Y-10800D02*
X35700Y-13300D01*
X33150Y-10800D02*
X33200Y-10800D01*
X38000Y-13300D02*
X35700Y-13300D01*
X35700Y-13300D02*
X34400Y-13300D01*
X28750Y-17900D02*
X23100Y-17900D01*
X29800Y-17900D02*
X34400Y-13300D01*
X29600Y-17900D02*
X29800Y-17900D01*
X28750Y-17900D02*
X29600Y-17900D01*
X22700Y-13900D02*
X22700Y-14650D01*
X23300Y-17700D02*
X23100Y-17900D01*
X23300Y-15250D02*
X23300Y-17700D01*
X22700Y-14650D02*
X23300Y-15250D01*
X15675Y-17375D02*
X17025Y-17375D01*
X15600Y-17450D02*
X15675Y-17375D01*
X16549Y-16900D02*
X16550Y-16900D01*
X16550Y-16900D02*
X17025Y-17375D01*
X16850Y-17200D02*
X17550Y-17900D01*
X17025Y-17375D02*
X16850Y-17200D01*
X17550Y-17900D02*
X23100Y-17900D01*
X17900Y-15999D02*
X17900Y-18000D01*
X31500Y-10800D02*
X32500Y-10800D01*
G54D24*
X37950Y-14300D02*
X36300Y-14300D01*
X38500Y-16050D02*
X36800Y-16050D01*
G54D25*
X24500Y-13900D02*
X24500Y-14650D01*
G54D24*
X16100Y-14648D02*
X15001Y-14648D01*
G54D26*
X15001Y-14648D02*
X15000Y-14650D01*
X19699Y-14200D02*
X20700Y-14200D01*
G54D25*
X19699Y-15999D02*
X19699Y-16999D01*
X21200Y-16400D02*
X21500Y-16400D01*
X20400Y-17200D02*
X21200Y-16400D01*
X19900Y-17200D02*
X20400Y-17200D01*
X19699Y-16999D02*
X19900Y-17200D01*
X18600Y-9500D02*
X18600Y-9800D01*
X17900Y-11500D02*
X17900Y-12400D01*
X18000Y-11400D02*
X17900Y-11500D01*
X18800Y-10600D02*
X18000Y-11400D01*
X18800Y-10000D02*
X18800Y-10600D01*
X18600Y-9800D02*
X18800Y-10000D01*
G54D24*
X13500Y-16800D02*
X13500Y-13750D01*
X14400Y-12849D02*
X16100Y-12849D01*
X13500Y-13750D02*
X14400Y-12849D01*
G54D25*
X23600Y-14400D02*
X23600Y-13900D01*
X23800Y-14600D02*
X23600Y-14400D01*
X23800Y-15600D02*
X23800Y-14600D01*
X24400Y-16200D02*
X23800Y-15600D01*
X26000Y-16200D02*
X24400Y-16200D01*
X26000Y-16200D02*
X27000Y-15200D01*
X27000Y-14600D02*
X27000Y-15200D01*
X19600Y-9500D02*
X19600Y-10600D01*
G54D26*
X18801Y-11401D02*
X18801Y-12400D01*
X18801Y-11401D02*
X18800Y-11400D01*
G54D25*
X19600Y-10600D02*
X18800Y-11400D01*
X20600Y-9500D02*
X20600Y-10500D01*
X20600Y-10500D02*
X19699Y-11400D01*
G54D26*
X19699Y-12400D02*
X19699Y-11400D01*
X19699Y-11400D02*
X19700Y-11400D01*
G54D27*
X10900Y-16800D02*
X9500Y-16800D01*
G54D10*
G36*
X39690Y-19350D02*
X39537Y-19350D01*
X39537Y-18341D01*
X39537Y-17159D01*
X39537Y-16690D01*
X39537Y-15409D01*
X39499Y-15318D01*
X39429Y-15247D01*
X39337Y-15209D01*
X39237Y-15209D01*
X39234Y-15209D01*
X39234Y-13644D01*
X39234Y-12856D01*
X39196Y-12764D01*
X39126Y-12694D01*
X39034Y-12656D01*
X39011Y-12656D01*
X39024Y-12624D01*
X39025Y-12525D01*
X39025Y-11975D01*
X38987Y-11883D01*
X38916Y-11813D01*
X38824Y-11775D01*
X38725Y-11774D01*
X38175Y-11774D01*
X38083Y-11812D01*
X38013Y-11883D01*
X37975Y-11975D01*
X37974Y-12074D01*
X37974Y-12624D01*
X37988Y-12656D01*
X36966Y-12656D01*
X36966Y-12656D01*
X35700Y-12656D01*
X35549Y-12656D01*
X33446Y-10553D01*
X33333Y-10478D01*
X33311Y-10473D01*
X33200Y-10451D01*
X33199Y-10451D01*
X33150Y-10451D01*
X33054Y-10451D01*
X33054Y-9832D01*
X33025Y-9617D01*
X33000Y-9557D01*
X32911Y-9527D01*
X32772Y-9665D01*
X32772Y-9388D01*
X32742Y-9299D01*
X32532Y-9245D01*
X32317Y-9274D01*
X32257Y-9299D01*
X32227Y-9388D01*
X32500Y-9661D01*
X32772Y-9388D01*
X32772Y-9665D01*
X32638Y-9800D01*
X32911Y-10072D01*
X33000Y-10042D01*
X33054Y-9832D01*
X33054Y-10451D01*
X32922Y-10451D01*
X32809Y-10338D01*
X32730Y-10305D01*
X32742Y-10300D01*
X32772Y-10211D01*
X32500Y-9938D01*
X32361Y-10076D01*
X32361Y-9800D01*
X32088Y-9527D01*
X32000Y-9557D01*
X31911Y-9527D01*
X31772Y-9665D01*
X31772Y-9388D01*
X31742Y-9299D01*
X31532Y-9245D01*
X31317Y-9274D01*
X31257Y-9299D01*
X31227Y-9388D01*
X31500Y-9661D01*
X31772Y-9388D01*
X31772Y-9665D01*
X31638Y-9800D01*
X31911Y-10072D01*
X32000Y-10042D01*
X32088Y-10072D01*
X32361Y-9800D01*
X32361Y-10076D01*
X32227Y-10211D01*
X32257Y-10300D01*
X32272Y-10304D01*
X32191Y-10337D01*
X32077Y-10451D01*
X31922Y-10451D01*
X31809Y-10338D01*
X31730Y-10305D01*
X31742Y-10300D01*
X31772Y-10211D01*
X31500Y-9938D01*
X31361Y-10076D01*
X31361Y-9800D01*
X31088Y-9527D01*
X30999Y-9557D01*
X30945Y-9767D01*
X30974Y-9982D01*
X30999Y-10042D01*
X31088Y-10072D01*
X31361Y-9800D01*
X31361Y-10076D01*
X31227Y-10211D01*
X31257Y-10300D01*
X31272Y-10304D01*
X31191Y-10337D01*
X31038Y-10490D01*
X30954Y-10691D01*
X30954Y-10907D01*
X31037Y-11108D01*
X31190Y-11261D01*
X31282Y-11299D01*
X31191Y-11337D01*
X31038Y-11490D01*
X30954Y-11691D01*
X30954Y-11907D01*
X31037Y-12108D01*
X31190Y-12261D01*
X31391Y-12345D01*
X31607Y-12345D01*
X31808Y-12262D01*
X31961Y-12109D01*
X31999Y-12017D01*
X32037Y-12108D01*
X32190Y-12261D01*
X32391Y-12345D01*
X32607Y-12345D01*
X32808Y-12262D01*
X32961Y-12109D01*
X33045Y-11908D01*
X33045Y-11692D01*
X32962Y-11491D01*
X32809Y-11338D01*
X32717Y-11300D01*
X32808Y-11262D01*
X32922Y-11148D01*
X33055Y-11148D01*
X34563Y-12656D01*
X34400Y-12656D01*
X34153Y-12705D01*
X34070Y-12761D01*
X33944Y-12844D01*
X33944Y-12844D01*
X29533Y-17256D01*
X28750Y-17256D01*
X25050Y-17256D01*
X23648Y-17256D01*
X23648Y-15941D01*
X24153Y-16446D01*
X24153Y-16446D01*
X24266Y-16521D01*
X24400Y-16548D01*
X25050Y-16548D01*
X25999Y-16548D01*
X26000Y-16548D01*
X26000Y-16548D01*
X26111Y-16526D01*
X26133Y-16521D01*
X26133Y-16521D01*
X26246Y-16446D01*
X27246Y-15446D01*
X27246Y-15446D01*
X27246Y-15446D01*
X27321Y-15333D01*
X27348Y-15200D01*
X27348Y-15022D01*
X27461Y-14909D01*
X27526Y-14753D01*
X27526Y-14945D01*
X28774Y-14945D01*
X28774Y-10954D01*
X27526Y-10954D01*
X27526Y-11447D01*
X27462Y-11291D01*
X27309Y-11138D01*
X27108Y-11054D01*
X26892Y-11054D01*
X26691Y-11137D01*
X26538Y-11290D01*
X26500Y-11382D01*
X26462Y-11291D01*
X26309Y-11138D01*
X26108Y-11054D01*
X25892Y-11054D01*
X25691Y-11137D01*
X25538Y-11290D01*
X25454Y-11491D01*
X25454Y-11707D01*
X25537Y-11908D01*
X25690Y-12061D01*
X25782Y-12099D01*
X25691Y-12137D01*
X25538Y-12290D01*
X25454Y-12491D01*
X25454Y-12707D01*
X25537Y-12908D01*
X25690Y-13061D01*
X25782Y-13099D01*
X25691Y-13137D01*
X25538Y-13290D01*
X25454Y-13491D01*
X25454Y-13707D01*
X25537Y-13908D01*
X25690Y-14061D01*
X25769Y-14094D01*
X25757Y-14099D01*
X25727Y-14188D01*
X26000Y-14461D01*
X26272Y-14188D01*
X26242Y-14099D01*
X26227Y-14095D01*
X26308Y-14062D01*
X26461Y-13909D01*
X26499Y-13817D01*
X26537Y-13908D01*
X26690Y-14061D01*
X26782Y-14099D01*
X26691Y-14137D01*
X26538Y-14290D01*
X26505Y-14369D01*
X26500Y-14357D01*
X26411Y-14327D01*
X26138Y-14600D01*
X26411Y-14872D01*
X26500Y-14842D01*
X26504Y-14827D01*
X26537Y-14908D01*
X26651Y-15022D01*
X26651Y-15055D01*
X26272Y-15434D01*
X26272Y-15011D01*
X26000Y-14738D01*
X25861Y-14876D01*
X25861Y-14600D01*
X25588Y-14327D01*
X25499Y-14357D01*
X25445Y-14567D01*
X25474Y-14782D01*
X25499Y-14842D01*
X25588Y-14872D01*
X25861Y-14600D01*
X25861Y-14876D01*
X25727Y-15011D01*
X25757Y-15100D01*
X25967Y-15154D01*
X26182Y-15125D01*
X26242Y-15100D01*
X26272Y-15011D01*
X26272Y-15434D01*
X25855Y-15851D01*
X25050Y-15851D01*
X25019Y-15851D01*
X25050Y-15821D01*
X25061Y-15809D01*
X25145Y-15608D01*
X25145Y-15392D01*
X25062Y-15191D01*
X25050Y-15178D01*
X24909Y-15038D01*
X24708Y-14954D01*
X24492Y-14954D01*
X24291Y-15037D01*
X24148Y-15180D01*
X24148Y-14600D01*
X24124Y-14477D01*
X24158Y-14512D01*
X24250Y-14550D01*
X24339Y-14550D01*
X24402Y-14487D01*
X24402Y-14450D01*
X24597Y-14450D01*
X24597Y-14487D01*
X24660Y-14550D01*
X24749Y-14550D01*
X24841Y-14512D01*
X24903Y-14450D01*
X25050Y-14450D01*
X25050Y-10750D01*
X24523Y-10750D01*
X24461Y-10688D01*
X24369Y-10650D01*
X24270Y-10649D01*
X22830Y-10649D01*
X22738Y-10687D01*
X22676Y-10750D01*
X22150Y-10750D01*
X22150Y-14450D01*
X22296Y-14450D01*
X22351Y-14505D01*
X22351Y-14649D01*
X22351Y-14650D01*
X22373Y-14761D01*
X22378Y-14783D01*
X22453Y-14896D01*
X22951Y-15394D01*
X22951Y-17256D01*
X22475Y-17256D01*
X22475Y-16575D01*
X22475Y-16224D01*
X22474Y-16125D01*
X22436Y-16033D01*
X22366Y-15962D01*
X22274Y-15924D01*
X22225Y-15925D01*
X22162Y-15987D01*
X22162Y-16302D01*
X22412Y-16302D01*
X22475Y-16239D01*
X22475Y-16224D01*
X22475Y-16575D01*
X22475Y-16560D01*
X22412Y-16497D01*
X22162Y-16497D01*
X22162Y-16812D01*
X22225Y-16875D01*
X22274Y-16875D01*
X22366Y-16837D01*
X22436Y-16766D01*
X22474Y-16674D01*
X22475Y-16575D01*
X22475Y-17256D01*
X20836Y-17256D01*
X21249Y-16843D01*
X21325Y-16874D01*
X21424Y-16875D01*
X21674Y-16875D01*
X21766Y-16837D01*
X21800Y-16803D01*
X21833Y-16837D01*
X21925Y-16875D01*
X21975Y-16875D01*
X22037Y-16812D01*
X22037Y-16497D01*
X21994Y-16497D01*
X21994Y-16302D01*
X22037Y-16302D01*
X22037Y-15987D01*
X21975Y-15925D01*
X21946Y-15924D01*
X22061Y-15809D01*
X22145Y-15608D01*
X22145Y-15392D01*
X22062Y-15191D01*
X21909Y-15038D01*
X21708Y-14954D01*
X21492Y-14954D01*
X21291Y-15037D01*
X21138Y-15190D01*
X21054Y-15391D01*
X21054Y-15607D01*
X21137Y-15808D01*
X21274Y-15945D01*
X21233Y-15962D01*
X21163Y-16033D01*
X21151Y-16061D01*
X21151Y-16061D01*
X21066Y-16078D01*
X20953Y-16153D01*
X20953Y-16153D01*
X20450Y-16657D01*
X20450Y-11550D01*
X20146Y-11550D01*
X20146Y-11446D01*
X20846Y-10746D01*
X20846Y-10746D01*
X20846Y-10746D01*
X20921Y-10633D01*
X20948Y-10500D01*
X20948Y-10015D01*
X21016Y-9987D01*
X21086Y-9916D01*
X21124Y-9824D01*
X21124Y-9778D01*
X21137Y-9808D01*
X21290Y-9961D01*
X21491Y-10045D01*
X21707Y-10045D01*
X21908Y-9962D01*
X22061Y-9809D01*
X22099Y-9717D01*
X22137Y-9808D01*
X22290Y-9961D01*
X22491Y-10045D01*
X22707Y-10045D01*
X22908Y-9962D01*
X23061Y-9809D01*
X23099Y-9717D01*
X23137Y-9808D01*
X23290Y-9961D01*
X23491Y-10045D01*
X23707Y-10045D01*
X23908Y-9962D01*
X24061Y-9809D01*
X24099Y-9717D01*
X24137Y-9808D01*
X24290Y-9961D01*
X24491Y-10045D01*
X24707Y-10045D01*
X24908Y-9962D01*
X25061Y-9809D01*
X25145Y-9608D01*
X25145Y-9392D01*
X25062Y-9191D01*
X24909Y-9038D01*
X24708Y-8954D01*
X24492Y-8954D01*
X24291Y-9037D01*
X24138Y-9190D01*
X24100Y-9282D01*
X24062Y-9191D01*
X23909Y-9038D01*
X23708Y-8954D01*
X23492Y-8954D01*
X23291Y-9037D01*
X23138Y-9190D01*
X23100Y-9282D01*
X23062Y-9191D01*
X22909Y-9038D01*
X22708Y-8954D01*
X22492Y-8954D01*
X22291Y-9037D01*
X22138Y-9190D01*
X22100Y-9282D01*
X22062Y-9191D01*
X21909Y-9038D01*
X21708Y-8954D01*
X21492Y-8954D01*
X21291Y-9037D01*
X21138Y-9190D01*
X21125Y-9221D01*
X21125Y-9175D01*
X21087Y-9083D01*
X21016Y-9013D01*
X20924Y-8975D01*
X20825Y-8974D01*
X20275Y-8974D01*
X20183Y-9012D01*
X20113Y-9083D01*
X20075Y-9175D01*
X20074Y-9274D01*
X20074Y-9274D01*
X20045Y-9203D01*
X19897Y-9055D01*
X19704Y-8975D01*
X19496Y-8974D01*
X19303Y-9054D01*
X19155Y-9202D01*
X19099Y-9335D01*
X19045Y-9203D01*
X18897Y-9055D01*
X18704Y-8975D01*
X18496Y-8974D01*
X18303Y-9054D01*
X18155Y-9202D01*
X18125Y-9274D01*
X18125Y-9274D01*
X18124Y-9175D01*
X18086Y-9083D01*
X18016Y-9012D01*
X17924Y-8974D01*
X17760Y-8975D01*
X17697Y-9037D01*
X17697Y-9402D01*
X17705Y-9402D01*
X17705Y-9597D01*
X17697Y-9597D01*
X17697Y-9962D01*
X17760Y-10025D01*
X17821Y-10025D01*
X17791Y-10037D01*
X17638Y-10190D01*
X17600Y-10282D01*
X17562Y-10191D01*
X17409Y-10038D01*
X17377Y-10025D01*
X17439Y-10025D01*
X17502Y-9962D01*
X17502Y-9597D01*
X17494Y-9597D01*
X17494Y-9402D01*
X17502Y-9402D01*
X17502Y-9037D01*
X17439Y-8975D01*
X17275Y-8974D01*
X17183Y-9012D01*
X17113Y-9083D01*
X17075Y-9175D01*
X17075Y-9221D01*
X17062Y-9191D01*
X16909Y-9038D01*
X16708Y-8954D01*
X16492Y-8954D01*
X16291Y-9037D01*
X16138Y-9190D01*
X16054Y-9391D01*
X16054Y-9607D01*
X16137Y-9808D01*
X16290Y-9961D01*
X16491Y-10045D01*
X16707Y-10045D01*
X16908Y-9962D01*
X17061Y-9809D01*
X17075Y-9777D01*
X17075Y-9824D01*
X17113Y-9916D01*
X17151Y-9954D01*
X16992Y-9954D01*
X16791Y-10037D01*
X16638Y-10190D01*
X16554Y-10391D01*
X16554Y-10607D01*
X16637Y-10808D01*
X16790Y-10961D01*
X16991Y-11045D01*
X17207Y-11045D01*
X17408Y-10962D01*
X17561Y-10809D01*
X17599Y-10717D01*
X17637Y-10808D01*
X17790Y-10961D01*
X17899Y-11007D01*
X17753Y-11153D01*
X17753Y-11153D01*
X17653Y-11253D01*
X17578Y-11366D01*
X17573Y-11388D01*
X17551Y-11500D01*
X17551Y-11500D01*
X17551Y-11550D01*
X15350Y-11550D01*
X15350Y-12205D01*
X15154Y-12205D01*
X15154Y-9532D01*
X15125Y-9317D01*
X15100Y-9257D01*
X15011Y-9227D01*
X14872Y-9365D01*
X14872Y-9088D01*
X14842Y-8999D01*
X14632Y-8945D01*
X14417Y-8974D01*
X14357Y-8999D01*
X14327Y-9088D01*
X14600Y-9361D01*
X14872Y-9088D01*
X14872Y-9365D01*
X14738Y-9500D01*
X15011Y-9772D01*
X15100Y-9742D01*
X15154Y-9532D01*
X15154Y-12205D01*
X14872Y-12205D01*
X14872Y-9911D01*
X14600Y-9638D01*
X14461Y-9776D01*
X14461Y-9500D01*
X14188Y-9227D01*
X14099Y-9257D01*
X14095Y-9272D01*
X14062Y-9191D01*
X13909Y-9038D01*
X13708Y-8954D01*
X13492Y-8954D01*
X13291Y-9037D01*
X13138Y-9190D01*
X13054Y-9391D01*
X13054Y-9607D01*
X13137Y-9808D01*
X13290Y-9961D01*
X13491Y-10045D01*
X13707Y-10045D01*
X13908Y-9962D01*
X14061Y-9809D01*
X14094Y-9730D01*
X14099Y-9742D01*
X14188Y-9772D01*
X14461Y-9500D01*
X14461Y-9776D01*
X14327Y-9911D01*
X14357Y-10000D01*
X14567Y-10054D01*
X14782Y-10025D01*
X14842Y-10000D01*
X14872Y-9911D01*
X14872Y-12205D01*
X14400Y-12205D01*
X14154Y-12254D01*
X13945Y-12394D01*
X13945Y-12394D01*
X13084Y-13255D01*
X13145Y-13108D01*
X13145Y-12892D01*
X13062Y-12691D01*
X12909Y-12538D01*
X12817Y-12500D01*
X12908Y-12462D01*
X13061Y-12309D01*
X13145Y-12108D01*
X13145Y-11892D01*
X13062Y-11691D01*
X12909Y-11538D01*
X12817Y-11500D01*
X12908Y-11462D01*
X13061Y-11309D01*
X13145Y-11108D01*
X13145Y-10892D01*
X13062Y-10691D01*
X12909Y-10538D01*
X12817Y-10500D01*
X12908Y-10462D01*
X13061Y-10309D01*
X13145Y-10108D01*
X13145Y-9892D01*
X13062Y-9691D01*
X12909Y-9538D01*
X12708Y-9454D01*
X12492Y-9454D01*
X12291Y-9537D01*
X12138Y-9690D01*
X12054Y-9891D01*
X12054Y-10107D01*
X12137Y-10308D01*
X12290Y-10461D01*
X12382Y-10499D01*
X12291Y-10537D01*
X12138Y-10690D01*
X12054Y-10891D01*
X12054Y-11107D01*
X12137Y-11308D01*
X12290Y-11461D01*
X12382Y-11499D01*
X12291Y-11537D01*
X12138Y-11690D01*
X12054Y-11891D01*
X12054Y-12107D01*
X12137Y-12308D01*
X12290Y-12461D01*
X12382Y-12499D01*
X12291Y-12537D01*
X12138Y-12690D01*
X12054Y-12891D01*
X12054Y-13107D01*
X12137Y-13308D01*
X12290Y-13461D01*
X12382Y-13499D01*
X12291Y-13537D01*
X12138Y-13690D01*
X12054Y-13891D01*
X12054Y-14107D01*
X12137Y-14308D01*
X12290Y-14461D01*
X12382Y-14499D01*
X12291Y-14537D01*
X12138Y-14690D01*
X12054Y-14891D01*
X12054Y-15107D01*
X12137Y-15308D01*
X12290Y-15461D01*
X12491Y-15545D01*
X12707Y-15545D01*
X12856Y-15484D01*
X12856Y-16800D01*
X12899Y-17019D01*
X12899Y-17849D01*
X12937Y-17941D01*
X13008Y-18011D01*
X13100Y-18049D01*
X13199Y-18050D01*
X13899Y-18050D01*
X13991Y-18012D01*
X14061Y-17941D01*
X14099Y-17849D01*
X14100Y-17750D01*
X14100Y-17019D01*
X14143Y-16800D01*
X14143Y-14016D01*
X14667Y-13493D01*
X15350Y-13493D01*
X15350Y-16850D01*
X15905Y-16850D01*
X15905Y-16900D01*
X15926Y-17005D01*
X15909Y-16988D01*
X15708Y-16904D01*
X15492Y-16904D01*
X15291Y-16987D01*
X15138Y-17140D01*
X15054Y-17341D01*
X15054Y-17557D01*
X15137Y-17758D01*
X15290Y-17911D01*
X15491Y-17995D01*
X15707Y-17995D01*
X15908Y-17912D01*
X16061Y-17759D01*
X16076Y-17723D01*
X16463Y-17723D01*
X16569Y-17830D01*
X17094Y-18355D01*
X17094Y-18355D01*
X17303Y-18494D01*
X17303Y-18494D01*
X17501Y-18533D01*
X17549Y-18543D01*
X17549Y-18543D01*
X17550Y-18543D01*
X20450Y-18543D01*
X23100Y-18543D01*
X25050Y-18543D01*
X28750Y-18543D01*
X29600Y-18543D01*
X29799Y-18543D01*
X29800Y-18543D01*
X29800Y-18543D01*
X30046Y-18494D01*
X30046Y-18494D01*
X30255Y-18355D01*
X34666Y-13943D01*
X35700Y-13943D01*
X36715Y-13943D01*
X36715Y-14139D01*
X36778Y-14202D01*
X37852Y-14202D01*
X37852Y-14194D01*
X38047Y-14194D01*
X38047Y-14202D01*
X39121Y-14202D01*
X39184Y-14139D01*
X39184Y-13856D01*
X39181Y-13850D01*
X39196Y-13835D01*
X39234Y-13743D01*
X39234Y-13644D01*
X39234Y-15209D01*
X39184Y-15209D01*
X39184Y-14743D01*
X39184Y-14460D01*
X39121Y-14397D01*
X38047Y-14397D01*
X38047Y-14881D01*
X38110Y-14943D01*
X38884Y-14943D01*
X38984Y-14943D01*
X39076Y-14905D01*
X39146Y-14835D01*
X39184Y-14743D01*
X39184Y-15209D01*
X38660Y-15209D01*
X38597Y-15271D01*
X38597Y-15952D01*
X39474Y-15952D01*
X39537Y-15889D01*
X39537Y-15409D01*
X39537Y-16690D01*
X39537Y-16210D01*
X39474Y-16147D01*
X38597Y-16147D01*
X38597Y-16828D01*
X38660Y-16890D01*
X39237Y-16890D01*
X39337Y-16890D01*
X39429Y-16852D01*
X39499Y-16781D01*
X39537Y-16690D01*
X39537Y-17159D01*
X39499Y-17068D01*
X39429Y-16997D01*
X39337Y-16959D01*
X39237Y-16959D01*
X38402Y-16959D01*
X38402Y-16828D01*
X38402Y-16147D01*
X38402Y-15952D01*
X38402Y-15271D01*
X38339Y-15209D01*
X37852Y-15209D01*
X37852Y-14881D01*
X37852Y-14397D01*
X36778Y-14397D01*
X36715Y-14460D01*
X36715Y-14743D01*
X36753Y-14835D01*
X36823Y-14905D01*
X36915Y-14943D01*
X37015Y-14943D01*
X37789Y-14943D01*
X37852Y-14881D01*
X37852Y-15209D01*
X37762Y-15209D01*
X37662Y-15209D01*
X37570Y-15247D01*
X37500Y-15318D01*
X37462Y-15409D01*
X37462Y-15889D01*
X37525Y-15952D01*
X38402Y-15952D01*
X38402Y-16147D01*
X37525Y-16147D01*
X37462Y-16210D01*
X37462Y-16690D01*
X37500Y-16781D01*
X37570Y-16852D01*
X37662Y-16890D01*
X37762Y-16890D01*
X38339Y-16890D01*
X38402Y-16828D01*
X38402Y-16959D01*
X37663Y-16959D01*
X37571Y-16997D01*
X37500Y-17067D01*
X37462Y-17159D01*
X37462Y-17258D01*
X37462Y-18440D01*
X37500Y-18531D01*
X37570Y-18602D01*
X37662Y-18640D01*
X37762Y-18640D01*
X39336Y-18640D01*
X39428Y-18602D01*
X39499Y-18532D01*
X39537Y-18440D01*
X39537Y-18341D01*
X39537Y-19350D01*
X25050Y-19350D01*
X25000Y-19350D01*
X20450Y-19350D01*
X20400Y-19350D01*
X11500Y-19350D01*
X11500Y-17750D01*
X11500Y-15750D01*
X11462Y-15658D01*
X11391Y-15588D01*
X11299Y-15550D01*
X11200Y-15549D01*
X10500Y-15549D01*
X10408Y-15587D01*
X10338Y-15658D01*
X10300Y-15750D01*
X10299Y-15849D01*
X10299Y-16254D01*
X10292Y-16254D01*
X10232Y-16194D01*
X10140Y-16156D01*
X10041Y-16156D01*
X10025Y-16156D01*
X10025Y-13896D01*
X9945Y-13703D01*
X9797Y-13555D01*
X9664Y-13499D01*
X9797Y-13445D01*
X9944Y-13297D01*
X10024Y-13104D01*
X10025Y-12896D01*
X9945Y-12703D01*
X9797Y-12555D01*
X9725Y-12525D01*
X9824Y-12525D01*
X9916Y-12487D01*
X9986Y-12416D01*
X10024Y-12324D01*
X10025Y-12225D01*
X10025Y-11675D01*
X9987Y-11583D01*
X9916Y-11513D01*
X9824Y-11475D01*
X9725Y-11474D01*
X9725Y-11474D01*
X9797Y-11445D01*
X9944Y-11297D01*
X10024Y-11104D01*
X10025Y-10896D01*
X9945Y-10703D01*
X9797Y-10555D01*
X9664Y-10499D01*
X9797Y-10445D01*
X9944Y-10297D01*
X10024Y-10104D01*
X10025Y-9896D01*
X9945Y-9703D01*
X9797Y-9555D01*
X9604Y-9475D01*
X9396Y-9474D01*
X9203Y-9554D01*
X9055Y-9702D01*
X8975Y-9895D01*
X8974Y-10103D01*
X9054Y-10297D01*
X9202Y-10444D01*
X9335Y-10500D01*
X9203Y-10554D01*
X9055Y-10702D01*
X8975Y-10895D01*
X8974Y-11103D01*
X9054Y-11297D01*
X9202Y-11444D01*
X9274Y-11474D01*
X9175Y-11474D01*
X9083Y-11512D01*
X9013Y-11583D01*
X8975Y-11675D01*
X8974Y-11774D01*
X8974Y-12324D01*
X9012Y-12416D01*
X9083Y-12486D01*
X9175Y-12524D01*
X9274Y-12525D01*
X9274Y-12525D01*
X9203Y-12554D01*
X9055Y-12702D01*
X8975Y-12895D01*
X8974Y-13103D01*
X9054Y-13297D01*
X9202Y-13444D01*
X9335Y-13500D01*
X9203Y-13554D01*
X9055Y-13702D01*
X8975Y-13895D01*
X8974Y-14103D01*
X9054Y-14297D01*
X9202Y-14444D01*
X9274Y-14474D01*
X9175Y-14474D01*
X9083Y-14512D01*
X9013Y-14583D01*
X8975Y-14675D01*
X8974Y-14774D01*
X8974Y-15324D01*
X9012Y-15416D01*
X9083Y-15486D01*
X9175Y-15524D01*
X9274Y-15525D01*
X9824Y-15525D01*
X9916Y-15487D01*
X9986Y-15416D01*
X10024Y-15324D01*
X10025Y-15225D01*
X10025Y-14675D01*
X9987Y-14583D01*
X9916Y-14513D01*
X9824Y-14475D01*
X9725Y-14474D01*
X9725Y-14474D01*
X9797Y-14445D01*
X9944Y-14297D01*
X10024Y-14104D01*
X10025Y-13896D01*
X10025Y-16156D01*
X8859Y-16156D01*
X8768Y-16194D01*
X8697Y-16264D01*
X8659Y-16356D01*
X8659Y-16455D01*
X8659Y-17243D01*
X8682Y-17300D01*
X8659Y-17356D01*
X8659Y-17455D01*
X8659Y-18243D01*
X8697Y-18335D01*
X8767Y-18405D01*
X8859Y-18443D01*
X8958Y-18443D01*
X10140Y-18443D01*
X10231Y-18405D01*
X10302Y-18335D01*
X10340Y-18243D01*
X10340Y-18144D01*
X10340Y-17944D01*
X10408Y-18011D01*
X10500Y-18049D01*
X10599Y-18050D01*
X11299Y-18050D01*
X11391Y-18012D01*
X11461Y-17941D01*
X11499Y-17849D01*
X11500Y-17750D01*
X11500Y-19350D01*
X8650Y-19350D01*
X8650Y-8750D01*
X39690Y-8750D01*
X39690Y-19350D01*
X39690Y-19350D01*
G37*
G54D28*
X39690Y-19350D02*
X39537Y-19350D01*
X39537Y-18341D01*
X39537Y-17159D01*
X39537Y-16690D01*
X39537Y-15409D01*
X39499Y-15318D01*
X39429Y-15247D01*
X39337Y-15209D01*
X39237Y-15209D01*
X39234Y-15209D01*
X39234Y-13644D01*
X39234Y-12856D01*
X39196Y-12764D01*
X39126Y-12694D01*
X39034Y-12656D01*
X39011Y-12656D01*
X39024Y-12624D01*
X39025Y-12525D01*
X39025Y-11975D01*
X38987Y-11883D01*
X38916Y-11813D01*
X38824Y-11775D01*
X38725Y-11774D01*
X38175Y-11774D01*
X38083Y-11812D01*
X38013Y-11883D01*
X37975Y-11975D01*
X37974Y-12074D01*
X37974Y-12624D01*
X37988Y-12656D01*
X36966Y-12656D01*
X36966Y-12656D01*
X35700Y-12656D01*
X35549Y-12656D01*
X33446Y-10553D01*
X33333Y-10478D01*
X33311Y-10473D01*
X33200Y-10451D01*
X33199Y-10451D01*
X33150Y-10451D01*
X33054Y-10451D01*
X33054Y-9832D01*
X33025Y-9617D01*
X33000Y-9557D01*
X32911Y-9527D01*
X32772Y-9665D01*
X32772Y-9388D01*
X32742Y-9299D01*
X32532Y-9245D01*
X32317Y-9274D01*
X32257Y-9299D01*
X32227Y-9388D01*
X32500Y-9661D01*
X32772Y-9388D01*
X32772Y-9665D01*
X32638Y-9800D01*
X32911Y-10072D01*
X33000Y-10042D01*
X33054Y-9832D01*
X33054Y-10451D01*
X32922Y-10451D01*
X32809Y-10338D01*
X32730Y-10305D01*
X32742Y-10300D01*
X32772Y-10211D01*
X32500Y-9938D01*
X32361Y-10076D01*
X32361Y-9800D01*
X32088Y-9527D01*
X32000Y-9557D01*
X31911Y-9527D01*
X31772Y-9665D01*
X31772Y-9388D01*
X31742Y-9299D01*
X31532Y-9245D01*
X31317Y-9274D01*
X31257Y-9299D01*
X31227Y-9388D01*
X31500Y-9661D01*
X31772Y-9388D01*
X31772Y-9665D01*
X31638Y-9800D01*
X31911Y-10072D01*
X32000Y-10042D01*
X32088Y-10072D01*
X32361Y-9800D01*
X32361Y-10076D01*
X32227Y-10211D01*
X32257Y-10300D01*
X32272Y-10304D01*
X32191Y-10337D01*
X32077Y-10451D01*
X31922Y-10451D01*
X31809Y-10338D01*
X31730Y-10305D01*
X31742Y-10300D01*
X31772Y-10211D01*
X31500Y-9938D01*
X31361Y-10076D01*
X31361Y-9800D01*
X31088Y-9527D01*
X30999Y-9557D01*
X30945Y-9767D01*
X30974Y-9982D01*
X30999Y-10042D01*
X31088Y-10072D01*
X31361Y-9800D01*
X31361Y-10076D01*
X31227Y-10211D01*
X31257Y-10300D01*
X31272Y-10304D01*
X31191Y-10337D01*
X31038Y-10490D01*
X30954Y-10691D01*
X30954Y-10907D01*
X31037Y-11108D01*
X31190Y-11261D01*
X31282Y-11299D01*
X31191Y-11337D01*
X31038Y-11490D01*
X30954Y-11691D01*
X30954Y-11907D01*
X31037Y-12108D01*
X31190Y-12261D01*
X31391Y-12345D01*
X31607Y-12345D01*
X31808Y-12262D01*
X31961Y-12109D01*
X31999Y-12017D01*
X32037Y-12108D01*
X32190Y-12261D01*
X32391Y-12345D01*
X32607Y-12345D01*
X32808Y-12262D01*
X32961Y-12109D01*
X33045Y-11908D01*
X33045Y-11692D01*
X32962Y-11491D01*
X32809Y-11338D01*
X32717Y-11300D01*
X32808Y-11262D01*
X32922Y-11148D01*
X33055Y-11148D01*
X34563Y-12656D01*
X34400Y-12656D01*
X34153Y-12705D01*
X34070Y-12761D01*
X33944Y-12844D01*
X33944Y-12844D01*
X29533Y-17256D01*
X28750Y-17256D01*
X25050Y-17256D01*
X23648Y-17256D01*
X23648Y-15941D01*
X24153Y-16446D01*
X24153Y-16446D01*
X24266Y-16521D01*
X24400Y-16548D01*
X25050Y-16548D01*
X25999Y-16548D01*
X26000Y-16548D01*
X26000Y-16548D01*
X26111Y-16526D01*
X26133Y-16521D01*
X26133Y-16521D01*
X26246Y-16446D01*
X27246Y-15446D01*
X27246Y-15446D01*
X27246Y-15446D01*
X27321Y-15333D01*
X27348Y-15200D01*
X27348Y-15022D01*
X27461Y-14909D01*
X27526Y-14753D01*
X27526Y-14945D01*
X28774Y-14945D01*
X28774Y-10954D01*
X27526Y-10954D01*
X27526Y-11447D01*
X27462Y-11291D01*
X27309Y-11138D01*
X27108Y-11054D01*
X26892Y-11054D01*
X26691Y-11137D01*
X26538Y-11290D01*
X26500Y-11382D01*
X26462Y-11291D01*
X26309Y-11138D01*
X26108Y-11054D01*
X25892Y-11054D01*
X25691Y-11137D01*
X25538Y-11290D01*
X25454Y-11491D01*
X25454Y-11707D01*
X25537Y-11908D01*
X25690Y-12061D01*
X25782Y-12099D01*
X25691Y-12137D01*
X25538Y-12290D01*
X25454Y-12491D01*
X25454Y-12707D01*
X25537Y-12908D01*
X25690Y-13061D01*
X25782Y-13099D01*
X25691Y-13137D01*
X25538Y-13290D01*
X25454Y-13491D01*
X25454Y-13707D01*
X25537Y-13908D01*
X25690Y-14061D01*
X25769Y-14094D01*
X25757Y-14099D01*
X25727Y-14188D01*
X26000Y-14461D01*
X26272Y-14188D01*
X26242Y-14099D01*
X26227Y-14095D01*
X26308Y-14062D01*
X26461Y-13909D01*
X26499Y-13817D01*
X26537Y-13908D01*
X26690Y-14061D01*
X26782Y-14099D01*
X26691Y-14137D01*
X26538Y-14290D01*
X26505Y-14369D01*
X26500Y-14357D01*
X26411Y-14327D01*
X26138Y-14600D01*
X26411Y-14872D01*
X26500Y-14842D01*
X26504Y-14827D01*
X26537Y-14908D01*
X26651Y-15022D01*
X26651Y-15055D01*
X26272Y-15434D01*
X26272Y-15011D01*
X26000Y-14738D01*
X25861Y-14876D01*
X25861Y-14600D01*
X25588Y-14327D01*
X25499Y-14357D01*
X25445Y-14567D01*
X25474Y-14782D01*
X25499Y-14842D01*
X25588Y-14872D01*
X25861Y-14600D01*
X25861Y-14876D01*
X25727Y-15011D01*
X25757Y-15100D01*
X25967Y-15154D01*
X26182Y-15125D01*
X26242Y-15100D01*
X26272Y-15011D01*
X26272Y-15434D01*
X25855Y-15851D01*
X25050Y-15851D01*
X25019Y-15851D01*
X25050Y-15821D01*
X25061Y-15809D01*
X25145Y-15608D01*
X25145Y-15392D01*
X25062Y-15191D01*
X25050Y-15178D01*
X24909Y-15038D01*
X24708Y-14954D01*
X24492Y-14954D01*
X24291Y-15037D01*
X24148Y-15180D01*
X24148Y-14600D01*
X24124Y-14477D01*
X24158Y-14512D01*
X24250Y-14550D01*
X24339Y-14550D01*
X24402Y-14487D01*
X24402Y-14450D01*
X24597Y-14450D01*
X24597Y-14487D01*
X24660Y-14550D01*
X24749Y-14550D01*
X24841Y-14512D01*
X24903Y-14450D01*
X25050Y-14450D01*
X25050Y-10750D01*
X24523Y-10750D01*
X24461Y-10688D01*
X24369Y-10650D01*
X24270Y-10649D01*
X22830Y-10649D01*
X22738Y-10687D01*
X22676Y-10750D01*
X22150Y-10750D01*
X22150Y-14450D01*
X22296Y-14450D01*
X22351Y-14505D01*
X22351Y-14649D01*
X22351Y-14650D01*
X22373Y-14761D01*
X22378Y-14783D01*
X22453Y-14896D01*
X22951Y-15394D01*
X22951Y-17256D01*
X22475Y-17256D01*
X22475Y-16575D01*
X22475Y-16224D01*
X22474Y-16125D01*
X22436Y-16033D01*
X22366Y-15962D01*
X22274Y-15924D01*
X22225Y-15925D01*
X22162Y-15987D01*
X22162Y-16302D01*
X22412Y-16302D01*
X22475Y-16239D01*
X22475Y-16224D01*
X22475Y-16575D01*
X22475Y-16560D01*
X22412Y-16497D01*
X22162Y-16497D01*
X22162Y-16812D01*
X22225Y-16875D01*
X22274Y-16875D01*
X22366Y-16837D01*
X22436Y-16766D01*
X22474Y-16674D01*
X22475Y-16575D01*
X22475Y-17256D01*
X20836Y-17256D01*
X21249Y-16843D01*
X21325Y-16874D01*
X21424Y-16875D01*
X21674Y-16875D01*
X21766Y-16837D01*
X21800Y-16803D01*
X21833Y-16837D01*
X21925Y-16875D01*
X21975Y-16875D01*
X22037Y-16812D01*
X22037Y-16497D01*
X21994Y-16497D01*
X21994Y-16302D01*
X22037Y-16302D01*
X22037Y-15987D01*
X21975Y-15925D01*
X21946Y-15924D01*
X22061Y-15809D01*
X22145Y-15608D01*
X22145Y-15392D01*
X22062Y-15191D01*
X21909Y-15038D01*
X21708Y-14954D01*
X21492Y-14954D01*
X21291Y-15037D01*
X21138Y-15190D01*
X21054Y-15391D01*
X21054Y-15607D01*
X21137Y-15808D01*
X21274Y-15945D01*
X21233Y-15962D01*
X21163Y-16033D01*
X21151Y-16061D01*
X21151Y-16061D01*
X21066Y-16078D01*
X20953Y-16153D01*
X20953Y-16153D01*
X20450Y-16657D01*
X20450Y-11550D01*
X20146Y-11550D01*
X20146Y-11446D01*
X20846Y-10746D01*
X20846Y-10746D01*
X20846Y-10746D01*
X20921Y-10633D01*
X20948Y-10500D01*
X20948Y-10015D01*
X21016Y-9987D01*
X21086Y-9916D01*
X21124Y-9824D01*
X21124Y-9778D01*
X21137Y-9808D01*
X21290Y-9961D01*
X21491Y-10045D01*
X21707Y-10045D01*
X21908Y-9962D01*
X22061Y-9809D01*
X22099Y-9717D01*
X22137Y-9808D01*
X22290Y-9961D01*
X22491Y-10045D01*
X22707Y-10045D01*
X22908Y-9962D01*
X23061Y-9809D01*
X23099Y-9717D01*
X23137Y-9808D01*
X23290Y-9961D01*
X23491Y-10045D01*
X23707Y-10045D01*
X23908Y-9962D01*
X24061Y-9809D01*
X24099Y-9717D01*
X24137Y-9808D01*
X24290Y-9961D01*
X24491Y-10045D01*
X24707Y-10045D01*
X24908Y-9962D01*
X25061Y-9809D01*
X25145Y-9608D01*
X25145Y-9392D01*
X25062Y-9191D01*
X24909Y-9038D01*
X24708Y-8954D01*
X24492Y-8954D01*
X24291Y-9037D01*
X24138Y-9190D01*
X24100Y-9282D01*
X24062Y-9191D01*
X23909Y-9038D01*
X23708Y-8954D01*
X23492Y-8954D01*
X23291Y-9037D01*
X23138Y-9190D01*
X23100Y-9282D01*
X23062Y-9191D01*
X22909Y-9038D01*
X22708Y-8954D01*
X22492Y-8954D01*
X22291Y-9037D01*
X22138Y-9190D01*
X22100Y-9282D01*
X22062Y-9191D01*
X21909Y-9038D01*
X21708Y-8954D01*
X21492Y-8954D01*
X21291Y-9037D01*
X21138Y-9190D01*
X21125Y-9221D01*
X21125Y-9175D01*
X21087Y-9083D01*
X21016Y-9013D01*
X20924Y-8975D01*
X20825Y-8974D01*
X20275Y-8974D01*
X20183Y-9012D01*
X20113Y-9083D01*
X20075Y-9175D01*
X20074Y-9274D01*
X20074Y-9274D01*
X20045Y-9203D01*
X19897Y-9055D01*
X19704Y-8975D01*
X19496Y-8974D01*
X19303Y-9054D01*
X19155Y-9202D01*
X19099Y-9335D01*
X19045Y-9203D01*
X18897Y-9055D01*
X18704Y-8975D01*
X18496Y-8974D01*
X18303Y-9054D01*
X18155Y-9202D01*
X18125Y-9274D01*
X18125Y-9274D01*
X18124Y-9175D01*
X18086Y-9083D01*
X18016Y-9012D01*
X17924Y-8974D01*
X17760Y-8975D01*
X17697Y-9037D01*
X17697Y-9402D01*
X17705Y-9402D01*
X17705Y-9597D01*
X17697Y-9597D01*
X17697Y-9962D01*
X17760Y-10025D01*
X17821Y-10025D01*
X17791Y-10037D01*
X17638Y-10190D01*
X17600Y-10282D01*
X17562Y-10191D01*
X17409Y-10038D01*
X17377Y-10025D01*
X17439Y-10025D01*
X17502Y-9962D01*
X17502Y-9597D01*
X17494Y-9597D01*
X17494Y-9402D01*
X17502Y-9402D01*
X17502Y-9037D01*
X17439Y-8975D01*
X17275Y-8974D01*
X17183Y-9012D01*
X17113Y-9083D01*
X17075Y-9175D01*
X17075Y-9221D01*
X17062Y-9191D01*
X16909Y-9038D01*
X16708Y-8954D01*
X16492Y-8954D01*
X16291Y-9037D01*
X16138Y-9190D01*
X16054Y-9391D01*
X16054Y-9607D01*
X16137Y-9808D01*
X16290Y-9961D01*
X16491Y-10045D01*
X16707Y-10045D01*
X16908Y-9962D01*
X17061Y-9809D01*
X17075Y-9777D01*
X17075Y-9824D01*
X17113Y-9916D01*
X17151Y-9954D01*
X16992Y-9954D01*
X16791Y-10037D01*
X16638Y-10190D01*
X16554Y-10391D01*
X16554Y-10607D01*
X16637Y-10808D01*
X16790Y-10961D01*
X16991Y-11045D01*
X17207Y-11045D01*
X17408Y-10962D01*
X17561Y-10809D01*
X17599Y-10717D01*
X17637Y-10808D01*
X17790Y-10961D01*
X17899Y-11007D01*
X17753Y-11153D01*
X17753Y-11153D01*
X17653Y-11253D01*
X17578Y-11366D01*
X17573Y-11388D01*
X17551Y-11500D01*
X17551Y-11500D01*
X17551Y-11550D01*
X15350Y-11550D01*
X15350Y-12205D01*
X15154Y-12205D01*
X15154Y-9532D01*
X15125Y-9317D01*
X15100Y-9257D01*
X15011Y-9227D01*
X14872Y-9365D01*
X14872Y-9088D01*
X14842Y-8999D01*
X14632Y-8945D01*
X14417Y-8974D01*
X14357Y-8999D01*
X14327Y-9088D01*
X14600Y-9361D01*
X14872Y-9088D01*
X14872Y-9365D01*
X14738Y-9500D01*
X15011Y-9772D01*
X15100Y-9742D01*
X15154Y-9532D01*
X15154Y-12205D01*
X14872Y-12205D01*
X14872Y-9911D01*
X14600Y-9638D01*
X14461Y-9776D01*
X14461Y-9500D01*
X14188Y-9227D01*
X14099Y-9257D01*
X14095Y-9272D01*
X14062Y-9191D01*
X13909Y-9038D01*
X13708Y-8954D01*
X13492Y-8954D01*
X13291Y-9037D01*
X13138Y-9190D01*
X13054Y-9391D01*
X13054Y-9607D01*
X13137Y-9808D01*
X13290Y-9961D01*
X13491Y-10045D01*
X13707Y-10045D01*
X13908Y-9962D01*
X14061Y-9809D01*
X14094Y-9730D01*
X14099Y-9742D01*
X14188Y-9772D01*
X14461Y-9500D01*
X14461Y-9776D01*
X14327Y-9911D01*
X14357Y-10000D01*
X14567Y-10054D01*
X14782Y-10025D01*
X14842Y-10000D01*
X14872Y-9911D01*
X14872Y-12205D01*
X14400Y-12205D01*
X14154Y-12254D01*
X13945Y-12394D01*
X13945Y-12394D01*
X13084Y-13255D01*
X13145Y-13108D01*
X13145Y-12892D01*
X13062Y-12691D01*
X12909Y-12538D01*
X12817Y-12500D01*
X12908Y-12462D01*
X13061Y-12309D01*
X13145Y-12108D01*
X13145Y-11892D01*
X13062Y-11691D01*
X12909Y-11538D01*
X12817Y-11500D01*
X12908Y-11462D01*
X13061Y-11309D01*
X13145Y-11108D01*
X13145Y-10892D01*
X13062Y-10691D01*
X12909Y-10538D01*
X12817Y-10500D01*
X12908Y-10462D01*
X13061Y-10309D01*
X13145Y-10108D01*
X13145Y-9892D01*
X13062Y-9691D01*
X12909Y-9538D01*
X12708Y-9454D01*
X12492Y-9454D01*
X12291Y-9537D01*
X12138Y-9690D01*
X12054Y-9891D01*
X12054Y-10107D01*
X12137Y-10308D01*
X12290Y-10461D01*
X12382Y-10499D01*
X12291Y-10537D01*
X12138Y-10690D01*
X12054Y-10891D01*
X12054Y-11107D01*
X12137Y-11308D01*
X12290Y-11461D01*
X12382Y-11499D01*
X12291Y-11537D01*
X12138Y-11690D01*
X12054Y-11891D01*
X12054Y-12107D01*
X12137Y-12308D01*
X12290Y-12461D01*
X12382Y-12499D01*
X12291Y-12537D01*
X12138Y-12690D01*
X12054Y-12891D01*
X12054Y-13107D01*
X12137Y-13308D01*
X12290Y-13461D01*
X12382Y-13499D01*
X12291Y-13537D01*
X12138Y-13690D01*
X12054Y-13891D01*
X12054Y-14107D01*
X12137Y-14308D01*
X12290Y-14461D01*
X12382Y-14499D01*
X12291Y-14537D01*
X12138Y-14690D01*
X12054Y-14891D01*
X12054Y-15107D01*
X12137Y-15308D01*
X12290Y-15461D01*
X12491Y-15545D01*
X12707Y-15545D01*
X12856Y-15484D01*
X12856Y-16800D01*
X12899Y-17019D01*
X12899Y-17849D01*
X12937Y-17941D01*
X13008Y-18011D01*
X13100Y-18049D01*
X13199Y-18050D01*
X13899Y-18050D01*
X13991Y-18012D01*
X14061Y-17941D01*
X14099Y-17849D01*
X14100Y-17750D01*
X14100Y-17019D01*
X14143Y-16800D01*
X14143Y-14016D01*
X14667Y-13493D01*
X15350Y-13493D01*
X15350Y-16850D01*
X15905Y-16850D01*
X15905Y-16900D01*
X15926Y-17005D01*
X15909Y-16988D01*
X15708Y-16904D01*
X15492Y-16904D01*
X15291Y-16987D01*
X15138Y-17140D01*
X15054Y-17341D01*
X15054Y-17557D01*
X15137Y-17758D01*
X15290Y-17911D01*
X15491Y-17995D01*
X15707Y-17995D01*
X15908Y-17912D01*
X16061Y-17759D01*
X16076Y-17723D01*
X16463Y-17723D01*
X16569Y-17830D01*
X17094Y-18355D01*
X17094Y-18355D01*
X17303Y-18494D01*
X17303Y-18494D01*
X17501Y-18533D01*
X17549Y-18543D01*
X17549Y-18543D01*
X17550Y-18543D01*
X20450Y-18543D01*
X23100Y-18543D01*
X25050Y-18543D01*
X28750Y-18543D01*
X29600Y-18543D01*
X29799Y-18543D01*
X29800Y-18543D01*
X29800Y-18543D01*
X30046Y-18494D01*
X30046Y-18494D01*
X30255Y-18355D01*
X34666Y-13943D01*
X35700Y-13943D01*
X36715Y-13943D01*
X36715Y-14139D01*
X36778Y-14202D01*
X37852Y-14202D01*
X37852Y-14194D01*
X38047Y-14194D01*
X38047Y-14202D01*
X39121Y-14202D01*
X39184Y-14139D01*
X39184Y-13856D01*
X39181Y-13850D01*
X39196Y-13835D01*
X39234Y-13743D01*
X39234Y-13644D01*
X39234Y-15209D01*
X39184Y-15209D01*
X39184Y-14743D01*
X39184Y-14460D01*
X39121Y-14397D01*
X38047Y-14397D01*
X38047Y-14881D01*
X38110Y-14943D01*
X38884Y-14943D01*
X38984Y-14943D01*
X39076Y-14905D01*
X39146Y-14835D01*
X39184Y-14743D01*
X39184Y-15209D01*
X38660Y-15209D01*
X38597Y-15271D01*
X38597Y-15952D01*
X39474Y-15952D01*
X39537Y-15889D01*
X39537Y-15409D01*
X39537Y-16690D01*
X39537Y-16210D01*
X39474Y-16147D01*
X38597Y-16147D01*
X38597Y-16828D01*
X38660Y-16890D01*
X39237Y-16890D01*
X39337Y-16890D01*
X39429Y-16852D01*
X39499Y-16781D01*
X39537Y-16690D01*
X39537Y-17159D01*
X39499Y-17068D01*
X39429Y-16997D01*
X39337Y-16959D01*
X39237Y-16959D01*
X38402Y-16959D01*
X38402Y-16828D01*
X38402Y-16147D01*
X38402Y-15952D01*
X38402Y-15271D01*
X38339Y-15209D01*
X37852Y-15209D01*
X37852Y-14881D01*
X37852Y-14397D01*
X36778Y-14397D01*
X36715Y-14460D01*
X36715Y-14743D01*
X36753Y-14835D01*
X36823Y-14905D01*
X36915Y-14943D01*
X37015Y-14943D01*
X37789Y-14943D01*
X37852Y-14881D01*
X37852Y-15209D01*
X37762Y-15209D01*
X37662Y-15209D01*
X37570Y-15247D01*
X37500Y-15318D01*
X37462Y-15409D01*
X37462Y-15889D01*
X37525Y-15952D01*
X38402Y-15952D01*
X38402Y-16147D01*
X37525Y-16147D01*
X37462Y-16210D01*
X37462Y-16690D01*
X37500Y-16781D01*
X37570Y-16852D01*
X37662Y-16890D01*
X37762Y-16890D01*
X38339Y-16890D01*
X38402Y-16828D01*
X38402Y-16959D01*
X37663Y-16959D01*
X37571Y-16997D01*
X37500Y-17067D01*
X37462Y-17159D01*
X37462Y-17258D01*
X37462Y-18440D01*
X37500Y-18531D01*
X37570Y-18602D01*
X37662Y-18640D01*
X37762Y-18640D01*
X39336Y-18640D01*
X39428Y-18602D01*
X39499Y-18532D01*
X39537Y-18440D01*
X39537Y-18341D01*
X39537Y-19350D01*
X25050Y-19350D01*
X25000Y-19350D01*
X20450Y-19350D01*
X20400Y-19350D01*
X11500Y-19350D01*
X11500Y-17750D01*
X11500Y-15750D01*
X11462Y-15658D01*
X11391Y-15588D01*
X11299Y-15550D01*
X11200Y-15549D01*
X10500Y-15549D01*
X10408Y-15587D01*
X10338Y-15658D01*
X10300Y-15750D01*
X10299Y-15849D01*
X10299Y-16254D01*
X10292Y-16254D01*
X10232Y-16194D01*
X10140Y-16156D01*
X10041Y-16156D01*
X10025Y-16156D01*
X10025Y-13896D01*
X9945Y-13703D01*
X9797Y-13555D01*
X9664Y-13499D01*
X9797Y-13445D01*
X9944Y-13297D01*
X10024Y-13104D01*
X10025Y-12896D01*
X9945Y-12703D01*
X9797Y-12555D01*
X9725Y-12525D01*
X9824Y-12525D01*
X9916Y-12487D01*
X9986Y-12416D01*
X10024Y-12324D01*
X10025Y-12225D01*
X10025Y-11675D01*
X9987Y-11583D01*
X9916Y-11513D01*
X9824Y-11475D01*
X9725Y-11474D01*
X9725Y-11474D01*
X9797Y-11445D01*
X9944Y-11297D01*
X10024Y-11104D01*
X10025Y-10896D01*
X9945Y-10703D01*
X9797Y-10555D01*
X9664Y-10499D01*
X9797Y-10445D01*
X9944Y-10297D01*
X10024Y-10104D01*
X10025Y-9896D01*
X9945Y-9703D01*
X9797Y-9555D01*
X9604Y-9475D01*
X9396Y-9474D01*
X9203Y-9554D01*
X9055Y-9702D01*
X8975Y-9895D01*
X8974Y-10103D01*
X9054Y-10297D01*
X9202Y-10444D01*
X9335Y-10500D01*
X9203Y-10554D01*
X9055Y-10702D01*
X8975Y-10895D01*
X8974Y-11103D01*
X9054Y-11297D01*
X9202Y-11444D01*
X9274Y-11474D01*
X9175Y-11474D01*
X9083Y-11512D01*
X9013Y-11583D01*
X8975Y-11675D01*
X8974Y-11774D01*
X8974Y-12324D01*
X9012Y-12416D01*
X9083Y-12486D01*
X9175Y-12524D01*
X9274Y-12525D01*
X9274Y-12525D01*
X9203Y-12554D01*
X9055Y-12702D01*
X8975Y-12895D01*
X8974Y-13103D01*
X9054Y-13297D01*
X9202Y-13444D01*
X9335Y-13500D01*
X9203Y-13554D01*
X9055Y-13702D01*
X8975Y-13895D01*
X8974Y-14103D01*
X9054Y-14297D01*
X9202Y-14444D01*
X9274Y-14474D01*
X9175Y-14474D01*
X9083Y-14512D01*
X9013Y-14583D01*
X8975Y-14675D01*
X8974Y-14774D01*
X8974Y-15324D01*
X9012Y-15416D01*
X9083Y-15486D01*
X9175Y-15524D01*
X9274Y-15525D01*
X9824Y-15525D01*
X9916Y-15487D01*
X9986Y-15416D01*
X10024Y-15324D01*
X10025Y-15225D01*
X10025Y-14675D01*
X9987Y-14583D01*
X9916Y-14513D01*
X9824Y-14475D01*
X9725Y-14474D01*
X9725Y-14474D01*
X9797Y-14445D01*
X9944Y-14297D01*
X10024Y-14104D01*
X10025Y-13896D01*
X10025Y-16156D01*
X8859Y-16156D01*
X8768Y-16194D01*
X8697Y-16264D01*
X8659Y-16356D01*
X8659Y-16455D01*
X8659Y-17243D01*
X8682Y-17300D01*
X8659Y-17356D01*
X8659Y-17455D01*
X8659Y-18243D01*
X8697Y-18335D01*
X8767Y-18405D01*
X8859Y-18443D01*
X8958Y-18443D01*
X10140Y-18443D01*
X10231Y-18405D01*
X10302Y-18335D01*
X10340Y-18243D01*
X10340Y-18144D01*
X10340Y-17944D01*
X10408Y-18011D01*
X10500Y-18049D01*
X10599Y-18050D01*
X11299Y-18050D01*
X11391Y-18012D01*
X11461Y-17941D01*
X11499Y-17849D01*
X11500Y-17750D01*
X11500Y-19350D01*
X8650Y-19350D01*
X8650Y-8750D01*
X39690Y-8750D01*
X39690Y-19350D01*
M02*
