M48
;DRILL file {Pcbnew (2013-07-07 BZR 4022)-stable} date 9/2/2014 10:06:19 AM
;FORMAT={2:4/ absolute / inch / suppress leading zeros}
FMAT,2
INCH,TZ
T1C0.024
T2C0.032
T3C0.033
T4C0.039
T5C0.063
%
G90
G05
M72
T1
X12600Y-10000
X12600Y-11000
X12600Y-12000
X12600Y-13000
X12600Y-14000
X12600Y-15000
X13600Y-9500
X14600Y-9500
X16600Y-9500
X17100Y-10500
X18100Y-10500
X21600Y-9500
X21600Y-15500
X22600Y-9500
X23600Y-9500
X24600Y-9500
X24600Y-15500
X26000Y-11600
X26000Y-12600
X26000Y-13600
X26000Y-14600
X27000Y-11600
X27000Y-12600
X27000Y-13600
X27000Y-14600
X31500Y-9800
X31500Y-10800
X31500Y-11800
X32500Y-9800
X32500Y-10800
X32500Y-11800
T2
X9500Y-10000
X9500Y-11000
X9500Y-12000
X9500Y-13000
X9500Y-14000
X9500Y-15000
X17600Y-9500
X18600Y-9500
X19600Y-9500
X20600Y-9500
X37950Y-14300
X38000Y-13300
X38500Y-12300
T3
X15600Y-17450
T4
X9500Y-16800
X9500Y-17800
T5
X38500Y-16050
X38500Y-17800
T0
M30
