G04 (created by PCBNEW (2013-07-07 BZR 4022)-stable) date 9/2/2014 5:43:59 PM*
%MOIN*%
G04 Gerber Fmt 3.4, Leading zero omitted, Abs format*
%FSLAX34Y34*%
G01*
G70*
G90*
G04 APERTURE LIST*
%ADD10C,0.00590551*%
%ADD11C,0.005*%
%ADD12C,0.012*%
%ADD13C,0.0045*%
%ADD14C,0.0106*%
%ADD15C,0.0107*%
G04 APERTURE END LIST*
G54D10*
G54D11*
X36550Y-12050D02*
X37450Y-12050D01*
X37450Y-12050D02*
X37450Y-12550D01*
X37450Y-12550D02*
X36550Y-12550D01*
X36550Y-12550D02*
X36550Y-12050D01*
X15350Y-10250D02*
X16250Y-10250D01*
X16250Y-10250D02*
X16250Y-10750D01*
X16250Y-10750D02*
X15350Y-10750D01*
X15350Y-10750D02*
X15350Y-10250D01*
X14950Y-10750D02*
X14050Y-10750D01*
X14050Y-10750D02*
X14050Y-10250D01*
X14050Y-10250D02*
X14950Y-10250D01*
X14950Y-10250D02*
X14950Y-10750D01*
G54D12*
X10000Y-12500D02*
X9000Y-12500D01*
X9000Y-12500D02*
X9000Y-9500D01*
X9000Y-9500D02*
X10000Y-9500D01*
X10000Y-9500D02*
X10000Y-12500D01*
X9000Y-11500D02*
X10000Y-11500D01*
X10000Y-15500D02*
X9000Y-15500D01*
X9000Y-15500D02*
X9000Y-12500D01*
X9000Y-12500D02*
X10000Y-12500D01*
X10000Y-12500D02*
X10000Y-15500D01*
X9000Y-14500D02*
X10000Y-14500D01*
X38000Y-11800D02*
X39000Y-11800D01*
X39000Y-11800D02*
X39000Y-14800D01*
X39000Y-14800D02*
X38000Y-14800D01*
X38000Y-14800D02*
X38000Y-11800D01*
X39000Y-12800D02*
X38000Y-12800D01*
X17100Y-10000D02*
X17100Y-9000D01*
X17100Y-9000D02*
X19100Y-9000D01*
X19100Y-9000D02*
X19100Y-10000D01*
X19100Y-10000D02*
X17100Y-10000D01*
X21100Y-9000D02*
X21100Y-10000D01*
X21100Y-10000D02*
X19100Y-10000D01*
X19100Y-10000D02*
X19100Y-9000D01*
X19100Y-9000D02*
X21100Y-9000D01*
G54D10*
X33000Y-9300D02*
X28500Y-9300D01*
X28500Y-9300D02*
X28500Y-16300D01*
X28500Y-16300D02*
X33000Y-16300D01*
X33000Y-16300D02*
X33000Y-9300D01*
G54D12*
X10000Y-18300D02*
X9000Y-18300D01*
X9000Y-18300D02*
X9000Y-16300D01*
X9000Y-16300D02*
X10000Y-16300D01*
X10000Y-16300D02*
X10000Y-18300D01*
G54D10*
X25100Y-9000D02*
X12100Y-9000D01*
X12100Y-9000D02*
X12100Y-16000D01*
X12100Y-16000D02*
X25100Y-16000D01*
X25100Y-16000D02*
X25100Y-9000D01*
G54D12*
X38000Y-16300D02*
X39000Y-16300D01*
X39000Y-16300D02*
X39000Y-18300D01*
X39000Y-18300D02*
X38000Y-18300D01*
X38000Y-18300D02*
X38000Y-16300D01*
G54D13*
X36970Y-12380D02*
X36910Y-12285D01*
X36867Y-12380D02*
X36867Y-12180D01*
X36935Y-12180D01*
X36952Y-12190D01*
X36961Y-12200D01*
X36970Y-12219D01*
X36970Y-12247D01*
X36961Y-12266D01*
X36952Y-12276D01*
X36935Y-12285D01*
X36867Y-12285D01*
X37124Y-12247D02*
X37124Y-12380D01*
X37081Y-12171D02*
X37038Y-12314D01*
X37150Y-12314D01*
X15770Y-10580D02*
X15710Y-10485D01*
X15667Y-10580D02*
X15667Y-10380D01*
X15735Y-10380D01*
X15752Y-10390D01*
X15761Y-10400D01*
X15770Y-10419D01*
X15770Y-10447D01*
X15761Y-10466D01*
X15752Y-10476D01*
X15735Y-10485D01*
X15667Y-10485D01*
X15838Y-10400D02*
X15847Y-10390D01*
X15864Y-10380D01*
X15907Y-10380D01*
X15924Y-10390D01*
X15932Y-10400D01*
X15941Y-10419D01*
X15941Y-10438D01*
X15932Y-10466D01*
X15830Y-10580D01*
X15941Y-10580D01*
X14470Y-10580D02*
X14410Y-10485D01*
X14367Y-10580D02*
X14367Y-10380D01*
X14435Y-10380D01*
X14452Y-10390D01*
X14461Y-10400D01*
X14470Y-10419D01*
X14470Y-10447D01*
X14461Y-10466D01*
X14452Y-10476D01*
X14435Y-10485D01*
X14367Y-10485D01*
X14530Y-10380D02*
X14641Y-10380D01*
X14581Y-10457D01*
X14607Y-10457D01*
X14624Y-10466D01*
X14632Y-10476D01*
X14641Y-10495D01*
X14641Y-10542D01*
X14632Y-10561D01*
X14624Y-10571D01*
X14607Y-10580D01*
X14555Y-10580D01*
X14538Y-10571D01*
X14530Y-10561D01*
G54D14*
X8785Y-11312D02*
X8080Y-11312D01*
X8785Y-11070D02*
X8382Y-11252D01*
X8080Y-11070D02*
X8483Y-11312D01*
X8785Y-10666D02*
X8785Y-10909D01*
X8785Y-10788D02*
X8080Y-10788D01*
X8181Y-10828D01*
X8248Y-10868D01*
X8281Y-10909D01*
G54D12*
G54D14*
X8785Y-14312D02*
X8080Y-14312D01*
X8785Y-14070D02*
X8382Y-14252D01*
X8080Y-14070D02*
X8483Y-14312D01*
X8147Y-13909D02*
X8113Y-13888D01*
X8080Y-13848D01*
X8080Y-13747D01*
X8113Y-13707D01*
X8147Y-13687D01*
X8214Y-13666D01*
X8281Y-13666D01*
X8382Y-13687D01*
X8785Y-13929D01*
X8785Y-13666D01*
G54D12*
G54D14*
X39785Y-13612D02*
X39080Y-13612D01*
X39785Y-13370D02*
X39382Y-13552D01*
X39080Y-13370D02*
X39483Y-13612D01*
X39080Y-13229D02*
X39080Y-12966D01*
X39348Y-13108D01*
X39348Y-13047D01*
X39382Y-13007D01*
X39416Y-12987D01*
X39483Y-12966D01*
X39651Y-12966D01*
X39718Y-12987D01*
X39751Y-13007D01*
X39785Y-13047D01*
X39785Y-13168D01*
X39751Y-13209D01*
X39718Y-13229D01*
G54D12*
G54D15*
X19529Y-8743D02*
X19590Y-8775D01*
X19692Y-8775D01*
X19733Y-8743D01*
X19753Y-8710D01*
X19773Y-8645D01*
X19773Y-8581D01*
X19753Y-8516D01*
X19733Y-8483D01*
X19692Y-8451D01*
X19610Y-8418D01*
X19570Y-8386D01*
X19549Y-8354D01*
X19529Y-8289D01*
X19529Y-8224D01*
X19549Y-8159D01*
X19570Y-8127D01*
X19610Y-8094D01*
X19712Y-8094D01*
X19773Y-8127D01*
X19916Y-8094D02*
X20018Y-8775D01*
X20100Y-8289D01*
X20181Y-8775D01*
X20283Y-8094D01*
X20670Y-8775D02*
X20426Y-8775D01*
X20548Y-8775D02*
X20548Y-8094D01*
X20507Y-8191D01*
X20466Y-8256D01*
X20426Y-8289D01*
G54D12*
G54D15*
X19784Y-10775D02*
X19784Y-10094D01*
X19947Y-10094D01*
X19987Y-10127D01*
X20008Y-10159D01*
X20028Y-10224D01*
X20028Y-10321D01*
X20008Y-10386D01*
X19987Y-10418D01*
X19947Y-10451D01*
X19784Y-10451D01*
X20436Y-10775D02*
X20191Y-10775D01*
X20314Y-10775D02*
X20314Y-10094D01*
X20273Y-10191D01*
X20232Y-10256D01*
X20191Y-10289D01*
G54D12*
G54D10*
X30700Y-14565D02*
X30700Y-14884D01*
X30718Y-14921D01*
X30737Y-14940D01*
X30775Y-14959D01*
X30850Y-14959D01*
X30887Y-14940D01*
X30906Y-14921D01*
X30925Y-14884D01*
X30925Y-14565D01*
X31074Y-14565D02*
X31318Y-14565D01*
X31187Y-14715D01*
X31243Y-14715D01*
X31281Y-14734D01*
X31299Y-14753D01*
X31318Y-14790D01*
X31318Y-14884D01*
X31299Y-14921D01*
X31281Y-14940D01*
X31243Y-14959D01*
X31131Y-14959D01*
X31093Y-14940D01*
X31074Y-14921D01*
X29293Y-13459D02*
X29162Y-13271D01*
X29068Y-13459D02*
X29068Y-13065D01*
X29218Y-13065D01*
X29256Y-13084D01*
X29275Y-13103D01*
X29293Y-13140D01*
X29293Y-13196D01*
X29275Y-13234D01*
X29256Y-13253D01*
X29218Y-13271D01*
X29068Y-13271D01*
X29462Y-13253D02*
X29593Y-13253D01*
X29650Y-13459D02*
X29462Y-13459D01*
X29462Y-13065D01*
X29650Y-13065D01*
X29818Y-13459D02*
X29818Y-13065D01*
X29912Y-13065D01*
X29968Y-13084D01*
X30006Y-13121D01*
X30025Y-13159D01*
X30043Y-13234D01*
X30043Y-13290D01*
X30025Y-13365D01*
X30006Y-13403D01*
X29968Y-13440D01*
X29912Y-13459D01*
X29818Y-13459D01*
X30343Y-13253D02*
X30400Y-13271D01*
X30418Y-13290D01*
X30437Y-13328D01*
X30437Y-13384D01*
X30418Y-13421D01*
X30400Y-13440D01*
X30362Y-13459D01*
X30212Y-13459D01*
X30212Y-13065D01*
X30343Y-13065D01*
X30381Y-13084D01*
X30400Y-13103D01*
X30418Y-13140D01*
X30418Y-13178D01*
X30400Y-13215D01*
X30381Y-13234D01*
X30343Y-13253D01*
X30212Y-13253D01*
X30681Y-13065D02*
X30756Y-13065D01*
X30793Y-13084D01*
X30831Y-13121D01*
X30850Y-13196D01*
X30850Y-13328D01*
X30831Y-13403D01*
X30793Y-13440D01*
X30756Y-13459D01*
X30681Y-13459D01*
X30643Y-13440D01*
X30606Y-13403D01*
X30587Y-13328D01*
X30587Y-13196D01*
X30606Y-13121D01*
X30643Y-13084D01*
X30681Y-13065D01*
X30962Y-13065D02*
X31187Y-13065D01*
X31074Y-13459D02*
X31074Y-13065D01*
X31299Y-13346D02*
X31487Y-13346D01*
X31262Y-13459D02*
X31393Y-13065D01*
X31524Y-13459D01*
X31881Y-13421D02*
X31862Y-13440D01*
X31806Y-13459D01*
X31768Y-13459D01*
X31712Y-13440D01*
X31674Y-13403D01*
X31656Y-13365D01*
X31637Y-13290D01*
X31637Y-13234D01*
X31656Y-13159D01*
X31674Y-13121D01*
X31712Y-13084D01*
X31768Y-13065D01*
X31806Y-13065D01*
X31862Y-13084D01*
X31881Y-13103D01*
X32274Y-13421D02*
X32256Y-13440D01*
X32199Y-13459D01*
X32162Y-13459D01*
X32106Y-13440D01*
X32068Y-13403D01*
X32049Y-13365D01*
X32031Y-13290D01*
X32031Y-13234D01*
X32049Y-13159D01*
X32068Y-13121D01*
X32106Y-13084D01*
X32162Y-13065D01*
X32199Y-13065D01*
X32256Y-13084D01*
X32274Y-13103D01*
X32443Y-13253D02*
X32574Y-13253D01*
X32631Y-13459D02*
X32443Y-13459D01*
X32443Y-13065D01*
X32631Y-13065D01*
X32987Y-13459D02*
X32799Y-13459D01*
X32799Y-13065D01*
G54D15*
X8775Y-17615D02*
X8094Y-17615D01*
X8094Y-17452D01*
X8127Y-17412D01*
X8159Y-17391D01*
X8224Y-17371D01*
X8321Y-17371D01*
X8386Y-17391D01*
X8418Y-17412D01*
X8451Y-17452D01*
X8451Y-17615D01*
X8159Y-17208D02*
X8127Y-17187D01*
X8094Y-17147D01*
X8094Y-17045D01*
X8127Y-17004D01*
X8159Y-16984D01*
X8224Y-16963D01*
X8289Y-16963D01*
X8386Y-16984D01*
X8775Y-17228D01*
X8775Y-16963D01*
G54D12*
G54D10*
X18215Y-12659D02*
X18215Y-12265D01*
X18628Y-12621D02*
X18609Y-12640D01*
X18553Y-12659D01*
X18515Y-12659D01*
X18459Y-12640D01*
X18421Y-12603D01*
X18403Y-12565D01*
X18384Y-12490D01*
X18384Y-12434D01*
X18403Y-12359D01*
X18421Y-12321D01*
X18459Y-12284D01*
X18515Y-12265D01*
X18553Y-12265D01*
X18609Y-12284D01*
X18628Y-12303D01*
X19003Y-12659D02*
X18778Y-12659D01*
X18890Y-12659D02*
X18890Y-12265D01*
X18853Y-12321D01*
X18815Y-12359D01*
X18778Y-12378D01*
X25646Y-15724D02*
X25646Y-15537D01*
X25759Y-15762D02*
X25365Y-15630D01*
X25759Y-15499D01*
X25759Y-15143D02*
X25571Y-15274D01*
X25759Y-15368D02*
X25365Y-15368D01*
X25365Y-15218D01*
X25384Y-15180D01*
X25403Y-15162D01*
X25440Y-15143D01*
X25496Y-15143D01*
X25534Y-15162D01*
X25553Y-15180D01*
X25571Y-15218D01*
X25571Y-15368D01*
X25759Y-14974D02*
X25365Y-14974D01*
X25365Y-14880D01*
X25384Y-14824D01*
X25421Y-14787D01*
X25459Y-14768D01*
X25534Y-14749D01*
X25590Y-14749D01*
X25665Y-14768D01*
X25703Y-14787D01*
X25740Y-14824D01*
X25759Y-14880D01*
X25759Y-14974D01*
X25365Y-14580D02*
X25684Y-14580D01*
X25721Y-14562D01*
X25740Y-14543D01*
X25759Y-14505D01*
X25759Y-14431D01*
X25740Y-14393D01*
X25721Y-14374D01*
X25684Y-14356D01*
X25365Y-14356D01*
X25759Y-14168D02*
X25365Y-14168D01*
X25759Y-13981D02*
X25365Y-13981D01*
X25759Y-13756D01*
X25365Y-13756D01*
X25365Y-13493D02*
X25365Y-13418D01*
X25384Y-13381D01*
X25421Y-13343D01*
X25496Y-13324D01*
X25628Y-13324D01*
X25703Y-13343D01*
X25740Y-13381D01*
X25759Y-13418D01*
X25759Y-13493D01*
X25740Y-13531D01*
X25703Y-13568D01*
X25628Y-13587D01*
X25496Y-13587D01*
X25421Y-13568D01*
X25384Y-13531D01*
X25365Y-13493D01*
X25796Y-13249D02*
X25796Y-12949D01*
X25759Y-12856D02*
X25365Y-12856D01*
X25365Y-12706D01*
X25384Y-12668D01*
X25403Y-12649D01*
X25440Y-12631D01*
X25496Y-12631D01*
X25534Y-12649D01*
X25553Y-12668D01*
X25571Y-12706D01*
X25571Y-12856D01*
X25759Y-12237D02*
X25571Y-12368D01*
X25759Y-12462D02*
X25365Y-12462D01*
X25365Y-12312D01*
X25384Y-12275D01*
X25403Y-12256D01*
X25440Y-12237D01*
X25496Y-12237D01*
X25534Y-12256D01*
X25553Y-12275D01*
X25571Y-12312D01*
X25571Y-12462D01*
X25365Y-11993D02*
X25365Y-11918D01*
X25384Y-11881D01*
X25421Y-11843D01*
X25496Y-11825D01*
X25628Y-11825D01*
X25703Y-11843D01*
X25740Y-11881D01*
X25759Y-11918D01*
X25759Y-11993D01*
X25740Y-12031D01*
X25703Y-12068D01*
X25628Y-12087D01*
X25496Y-12087D01*
X25421Y-12068D01*
X25384Y-12031D01*
X25365Y-11993D01*
X25796Y-11750D02*
X25796Y-11450D01*
X25759Y-11356D02*
X25365Y-11356D01*
X25646Y-11225D01*
X25365Y-11093D01*
X25759Y-11093D01*
X25759Y-10906D02*
X25365Y-10906D01*
X25759Y-10718D02*
X25365Y-10718D01*
X25759Y-10494D01*
X25365Y-10494D01*
X25759Y-10306D02*
X25365Y-10306D01*
X25796Y-10212D02*
X25796Y-9912D01*
X25365Y-9631D02*
X25365Y-9819D01*
X25553Y-9837D01*
X25534Y-9819D01*
X25515Y-9781D01*
X25515Y-9687D01*
X25534Y-9650D01*
X25553Y-9631D01*
X25590Y-9612D01*
X25684Y-9612D01*
X25721Y-9631D01*
X25740Y-9650D01*
X25759Y-9687D01*
X25759Y-9781D01*
X25740Y-9819D01*
X25721Y-9837D01*
X25365Y-9500D02*
X25759Y-9369D01*
X25365Y-9237D01*
G54D15*
X39775Y-17615D02*
X39094Y-17615D01*
X39094Y-17452D01*
X39127Y-17412D01*
X39159Y-17391D01*
X39224Y-17371D01*
X39321Y-17371D01*
X39386Y-17391D01*
X39418Y-17412D01*
X39451Y-17452D01*
X39451Y-17615D01*
X39094Y-17228D02*
X39094Y-16963D01*
X39354Y-17106D01*
X39354Y-17045D01*
X39386Y-17004D01*
X39418Y-16984D01*
X39483Y-16963D01*
X39645Y-16963D01*
X39710Y-16984D01*
X39743Y-17004D01*
X39775Y-17045D01*
X39775Y-17167D01*
X39743Y-17208D01*
X39710Y-17228D01*
G54D12*
M02*
