G04 (created by PCBNEW (2013-07-07 BZR 4022)-stable) date 9/2/2014 11:24:20 PM*
%MOIN*%
G04 Gerber Fmt 3.4, Leading zero omitted, Abs format*
%FSLAX34Y34*%
G01*
G70*
G90*
G04 APERTURE LIST*
%ADD10C,0.00590551*%
%ADD11C,0.008*%
%ADD12C,0.005*%
%ADD13C,0.0045*%
%ADD14C,0.0047*%
G04 APERTURE END LIST*
G54D10*
G54D11*
X35236Y-17530D02*
X35236Y-18730D01*
X35236Y-18730D02*
X32436Y-18730D01*
X32436Y-18730D02*
X32436Y-17530D01*
X35236Y-16330D02*
X35236Y-16030D01*
X35236Y-16030D02*
X34636Y-15130D01*
X34636Y-15130D02*
X33036Y-15130D01*
X33036Y-15130D02*
X32436Y-16030D01*
X32436Y-16030D02*
X32436Y-16330D01*
G54D12*
X31586Y-20980D02*
X32486Y-20980D01*
X32486Y-20980D02*
X32486Y-20480D01*
X32486Y-20480D02*
X31586Y-20480D01*
X31586Y-20480D02*
X31586Y-20980D01*
G54D10*
X25636Y-21030D02*
X25636Y-16030D01*
X25636Y-16030D02*
X30636Y-16030D01*
X30636Y-16030D02*
X30636Y-21030D01*
X30636Y-21030D02*
X25636Y-21030D01*
X35736Y-19430D02*
X35736Y-13430D01*
X35736Y-13430D02*
X47236Y-13430D01*
X47236Y-13430D02*
X47236Y-19430D01*
X47236Y-19430D02*
X35736Y-19430D01*
X22836Y-21130D02*
X23336Y-21130D01*
X22136Y-21130D02*
X21536Y-21130D01*
X23636Y-19930D02*
X23636Y-20130D01*
X21236Y-19930D02*
X21236Y-20130D01*
X23636Y-22330D02*
X23636Y-22130D01*
X21236Y-22330D02*
X21236Y-22130D01*
G54D12*
X22136Y-21130D02*
X22056Y-21130D01*
X21219Y-22331D02*
X23652Y-22331D01*
X22696Y-20380D02*
X22696Y-21880D01*
X22826Y-20380D02*
X22826Y-21880D01*
X21219Y-19929D02*
X23652Y-19929D01*
X22386Y-21130D02*
X22136Y-21317D01*
X22136Y-21317D02*
X22136Y-21130D01*
X22136Y-21130D02*
X22136Y-20943D01*
X22136Y-20943D02*
X22386Y-21130D01*
X22386Y-21130D02*
X22386Y-21255D01*
X22386Y-21255D02*
X22324Y-21317D01*
X22386Y-21130D02*
X22386Y-21005D01*
X22386Y-21005D02*
X22448Y-20943D01*
X22386Y-21130D02*
X22823Y-21130D01*
G54D11*
X34140Y-16392D02*
X34140Y-16716D01*
X34121Y-16754D01*
X34102Y-16773D01*
X34064Y-16792D01*
X33988Y-16792D01*
X33950Y-16773D01*
X33931Y-16754D01*
X33912Y-16716D01*
X33912Y-16392D01*
X33740Y-16430D02*
X33721Y-16411D01*
X33683Y-16392D01*
X33588Y-16392D01*
X33550Y-16411D01*
X33531Y-16430D01*
X33512Y-16468D01*
X33512Y-16506D01*
X33531Y-16564D01*
X33760Y-16792D01*
X33512Y-16792D01*
X35350Y-17354D02*
X35369Y-17373D01*
X35426Y-17392D01*
X35464Y-17392D01*
X35521Y-17373D01*
X35560Y-17335D01*
X35579Y-17297D01*
X35598Y-17221D01*
X35598Y-17164D01*
X35579Y-17087D01*
X35560Y-17049D01*
X35521Y-17011D01*
X35464Y-16992D01*
X35426Y-16992D01*
X35369Y-17011D01*
X35350Y-17030D01*
X35064Y-16992D02*
X35064Y-17278D01*
X35083Y-17335D01*
X35121Y-17373D01*
X35179Y-17392D01*
X35217Y-17392D01*
X34664Y-17392D02*
X34893Y-17392D01*
X34779Y-17392D02*
X34779Y-16992D01*
X34817Y-17049D01*
X34855Y-17087D01*
X34893Y-17106D01*
X34283Y-17392D02*
X34512Y-17392D01*
X34398Y-17392D02*
X34398Y-16992D01*
X34436Y-17049D01*
X34474Y-17087D01*
X34512Y-17106D01*
X33902Y-17392D02*
X34131Y-17392D01*
X34017Y-17392D02*
X34017Y-16992D01*
X34055Y-17049D01*
X34093Y-17087D01*
X34131Y-17106D01*
X33769Y-16992D02*
X33502Y-16992D01*
X33674Y-17392D01*
X33350Y-17240D02*
X33045Y-17240D01*
X32893Y-16992D02*
X32645Y-16992D01*
X32779Y-17144D01*
X32721Y-17144D01*
X32683Y-17164D01*
X32664Y-17183D01*
X32645Y-17221D01*
X32645Y-17316D01*
X32664Y-17354D01*
X32683Y-17373D01*
X32721Y-17392D01*
X32836Y-17392D01*
X32874Y-17373D01*
X32893Y-17354D01*
X32474Y-17354D02*
X32455Y-17373D01*
X32474Y-17392D01*
X32493Y-17373D01*
X32474Y-17354D01*
X32474Y-17392D01*
X32321Y-16992D02*
X32074Y-16992D01*
X32207Y-17144D01*
X32150Y-17144D01*
X32112Y-17164D01*
X32093Y-17183D01*
X32074Y-17221D01*
X32074Y-17316D01*
X32093Y-17354D01*
X32112Y-17373D01*
X32150Y-17392D01*
X32264Y-17392D01*
X32302Y-17373D01*
X32321Y-17354D01*
G54D13*
X32066Y-20811D02*
X32126Y-20716D01*
X32169Y-20811D02*
X32169Y-20611D01*
X32100Y-20611D01*
X32083Y-20621D01*
X32074Y-20630D01*
X32066Y-20649D01*
X32066Y-20678D01*
X32074Y-20697D01*
X32083Y-20706D01*
X32100Y-20716D01*
X32169Y-20716D01*
X31894Y-20811D02*
X31997Y-20811D01*
X31946Y-20811D02*
X31946Y-20611D01*
X31963Y-20640D01*
X31980Y-20659D01*
X31997Y-20668D01*
G54D10*
X30901Y-18230D02*
X31220Y-18230D01*
X31258Y-18249D01*
X31276Y-18268D01*
X31295Y-18305D01*
X31295Y-18380D01*
X31276Y-18418D01*
X31258Y-18436D01*
X31220Y-18455D01*
X30901Y-18455D01*
X31295Y-18849D02*
X31295Y-18624D01*
X31295Y-18736D02*
X30901Y-18736D01*
X30958Y-18699D01*
X30995Y-18661D01*
X31014Y-18624D01*
X24901Y-16712D02*
X24901Y-16787D01*
X24920Y-16824D01*
X24958Y-16862D01*
X25033Y-16880D01*
X25164Y-16880D01*
X25239Y-16862D01*
X25276Y-16824D01*
X25295Y-16787D01*
X25295Y-16712D01*
X25276Y-16674D01*
X25239Y-16637D01*
X25164Y-16618D01*
X25033Y-16618D01*
X24958Y-16637D01*
X24920Y-16674D01*
X24901Y-16712D01*
X25295Y-17049D02*
X24901Y-17049D01*
X25295Y-17274D02*
X25070Y-17105D01*
X24901Y-17274D02*
X25126Y-17049D01*
X25295Y-17630D02*
X25295Y-17443D01*
X24901Y-17443D01*
X25145Y-17762D02*
X25145Y-18062D01*
X24901Y-18193D02*
X24901Y-18418D01*
X25295Y-18305D02*
X24901Y-18305D01*
X24901Y-18718D02*
X24901Y-18643D01*
X24920Y-18605D01*
X24939Y-18586D01*
X24995Y-18549D01*
X25070Y-18530D01*
X25220Y-18530D01*
X25258Y-18549D01*
X25276Y-18568D01*
X25295Y-18605D01*
X25295Y-18680D01*
X25276Y-18718D01*
X25258Y-18736D01*
X25220Y-18755D01*
X25126Y-18755D01*
X25089Y-18736D01*
X25070Y-18718D01*
X25051Y-18680D01*
X25051Y-18605D01*
X25070Y-18568D01*
X25089Y-18549D01*
X25126Y-18530D01*
X25145Y-18924D02*
X25145Y-19224D01*
X24901Y-19374D02*
X25295Y-19468D01*
X25014Y-19543D01*
X25295Y-19618D01*
X24901Y-19711D01*
X25295Y-20068D02*
X25295Y-19843D01*
X25295Y-19955D02*
X24901Y-19955D01*
X24958Y-19918D01*
X24995Y-19880D01*
X25014Y-19843D01*
X24939Y-20217D02*
X24920Y-20236D01*
X24901Y-20274D01*
X24901Y-20367D01*
X24920Y-20405D01*
X24939Y-20424D01*
X24976Y-20442D01*
X25014Y-20442D01*
X25070Y-20424D01*
X25295Y-20199D01*
X25295Y-20442D01*
X42036Y-15696D02*
X42036Y-16015D01*
X42017Y-16052D01*
X41998Y-16071D01*
X41961Y-16090D01*
X41886Y-16090D01*
X41848Y-16071D01*
X41829Y-16052D01*
X41811Y-16015D01*
X41811Y-15696D01*
X41455Y-15827D02*
X41455Y-16090D01*
X41548Y-15677D02*
X41642Y-15958D01*
X41398Y-15958D01*
X44445Y-17590D02*
X44445Y-17196D01*
X44220Y-17590D01*
X44220Y-17196D01*
X43807Y-17590D02*
X43939Y-17402D01*
X44032Y-17590D02*
X44032Y-17196D01*
X43882Y-17196D01*
X43845Y-17215D01*
X43826Y-17233D01*
X43807Y-17271D01*
X43807Y-17327D01*
X43826Y-17365D01*
X43845Y-17383D01*
X43882Y-17402D01*
X44032Y-17402D01*
X43507Y-17383D02*
X43639Y-17383D01*
X43639Y-17590D02*
X43639Y-17196D01*
X43451Y-17196D01*
X43320Y-17233D02*
X43301Y-17215D01*
X43264Y-17196D01*
X43170Y-17196D01*
X43132Y-17215D01*
X43114Y-17233D01*
X43095Y-17271D01*
X43095Y-17308D01*
X43114Y-17365D01*
X43339Y-17590D01*
X43095Y-17590D01*
X42757Y-17327D02*
X42757Y-17590D01*
X42851Y-17177D02*
X42945Y-17458D01*
X42701Y-17458D01*
X42364Y-17590D02*
X42551Y-17590D01*
X42551Y-17196D01*
X42158Y-17196D02*
X42120Y-17196D01*
X42083Y-17215D01*
X42064Y-17233D01*
X42045Y-17271D01*
X42026Y-17346D01*
X42026Y-17440D01*
X42045Y-17515D01*
X42064Y-17552D01*
X42083Y-17571D01*
X42120Y-17590D01*
X42158Y-17590D01*
X42195Y-17571D01*
X42214Y-17552D01*
X42233Y-17515D01*
X42251Y-17440D01*
X42251Y-17346D01*
X42233Y-17271D01*
X42214Y-17233D01*
X42195Y-17215D01*
X42158Y-17196D01*
X41651Y-17590D02*
X41876Y-17590D01*
X41764Y-17590D02*
X41764Y-17196D01*
X41801Y-17252D01*
X41839Y-17290D01*
X41876Y-17308D01*
X41576Y-17627D02*
X41276Y-17627D01*
X41183Y-17590D02*
X41183Y-17196D01*
X41051Y-17477D01*
X40920Y-17196D01*
X40920Y-17590D01*
X40658Y-17196D02*
X40583Y-17196D01*
X40545Y-17215D01*
X40508Y-17252D01*
X40489Y-17327D01*
X40489Y-17458D01*
X40508Y-17533D01*
X40545Y-17571D01*
X40583Y-17590D01*
X40658Y-17590D01*
X40695Y-17571D01*
X40733Y-17533D01*
X40751Y-17458D01*
X40751Y-17327D01*
X40733Y-17252D01*
X40695Y-17215D01*
X40658Y-17196D01*
X40320Y-17590D02*
X40320Y-17196D01*
X40227Y-17196D01*
X40170Y-17215D01*
X40133Y-17252D01*
X40114Y-17290D01*
X40095Y-17365D01*
X40095Y-17421D01*
X40114Y-17496D01*
X40133Y-17533D01*
X40170Y-17571D01*
X40227Y-17590D01*
X40320Y-17590D01*
X39927Y-17196D02*
X39927Y-17515D01*
X39908Y-17552D01*
X39889Y-17571D01*
X39852Y-17590D01*
X39777Y-17590D01*
X39739Y-17571D01*
X39720Y-17552D01*
X39702Y-17515D01*
X39702Y-17196D01*
X39327Y-17590D02*
X39514Y-17590D01*
X39514Y-17196D01*
X39195Y-17383D02*
X39064Y-17383D01*
X39008Y-17590D02*
X39195Y-17590D01*
X39195Y-17196D01*
X39008Y-17196D01*
G54D14*
X22727Y-22314D02*
X22727Y-21920D01*
X22633Y-21920D01*
X22576Y-21938D01*
X22539Y-21976D01*
X22520Y-22013D01*
X22501Y-22089D01*
X22501Y-22145D01*
X22520Y-22220D01*
X22539Y-22257D01*
X22576Y-22295D01*
X22633Y-22314D01*
X22727Y-22314D01*
X22126Y-22314D02*
X22351Y-22314D01*
X22239Y-22314D02*
X22239Y-21920D01*
X22276Y-21976D01*
X22314Y-22013D01*
X22351Y-22032D01*
X23214Y-20188D02*
X23214Y-19794D01*
X23121Y-19794D01*
X23064Y-19812D01*
X23027Y-19850D01*
X23008Y-19887D01*
X22989Y-19963D01*
X22989Y-20019D01*
X23008Y-20094D01*
X23027Y-20131D01*
X23064Y-20169D01*
X23121Y-20188D01*
X23214Y-20188D01*
X22820Y-20188D02*
X22820Y-19794D01*
X22558Y-19794D02*
X22483Y-19794D01*
X22445Y-19812D01*
X22408Y-19850D01*
X22389Y-19925D01*
X22389Y-20056D01*
X22408Y-20131D01*
X22445Y-20169D01*
X22483Y-20188D01*
X22558Y-20188D01*
X22595Y-20169D01*
X22633Y-20131D01*
X22651Y-20056D01*
X22651Y-19925D01*
X22633Y-19850D01*
X22595Y-19812D01*
X22558Y-19794D01*
X22220Y-20188D02*
X22220Y-19794D01*
X22126Y-19794D01*
X22070Y-19812D01*
X22032Y-19850D01*
X22014Y-19887D01*
X21995Y-19963D01*
X21995Y-20019D01*
X22014Y-20094D01*
X22032Y-20131D01*
X22070Y-20169D01*
X22126Y-20188D01*
X22220Y-20188D01*
X21826Y-19981D02*
X21695Y-19981D01*
X21638Y-20188D02*
X21826Y-20188D01*
X21826Y-19794D01*
X21638Y-19794D01*
M02*
