G04 (created by PCBNEW (2013-07-07 BZR 4022)-stable) date 9/2/2014 11:24:20 PM*
%MOIN*%
G04 Gerber Fmt 3.4, Leading zero omitted, Abs format*
%FSLAX34Y34*%
G01*
G70*
G90*
G04 APERTURE LIST*
%ADD10C,0.00590551*%
%ADD11C,0.00984252*%
%ADD12C,0.019685*%
%ADD13R,0.025X0.045*%
%ADD14C,0.0590551*%
%ADD15R,0.055X0.055*%
%ADD16R,0.19685X0.0787402*%
%ADD17R,0.11811X0.0787402*%
%ADD18R,0.15748X0.11811*%
%ADD19C,0.0787402*%
G04 APERTURE END LIST*
G54D10*
G54D11*
X40683Y-16055D02*
X40683Y-15868D01*
X40795Y-16093D02*
X40401Y-15961D01*
X40795Y-15830D01*
X40758Y-15474D02*
X40776Y-15493D01*
X40795Y-15549D01*
X40795Y-15586D01*
X40776Y-15643D01*
X40739Y-15680D01*
X40701Y-15699D01*
X40626Y-15718D01*
X40570Y-15718D01*
X40495Y-15699D01*
X40458Y-15680D01*
X40420Y-15643D01*
X40401Y-15586D01*
X40401Y-15549D01*
X40420Y-15493D01*
X40439Y-15474D01*
X40758Y-15080D02*
X40776Y-15099D01*
X40795Y-15155D01*
X40795Y-15193D01*
X40776Y-15249D01*
X40739Y-15286D01*
X40701Y-15305D01*
X40626Y-15324D01*
X40570Y-15324D01*
X40495Y-15305D01*
X40458Y-15286D01*
X40420Y-15249D01*
X40401Y-15193D01*
X40401Y-15155D01*
X40420Y-15099D01*
X40439Y-15080D01*
X40589Y-14911D02*
X40589Y-14780D01*
X40795Y-14724D02*
X40795Y-14911D01*
X40401Y-14911D01*
X40401Y-14724D01*
X40795Y-14368D02*
X40795Y-14555D01*
X40401Y-14555D01*
X20920Y-23083D02*
X20976Y-23102D01*
X20995Y-23121D01*
X21014Y-23158D01*
X21014Y-23215D01*
X20995Y-23252D01*
X20976Y-23271D01*
X20939Y-23290D01*
X20789Y-23290D01*
X20789Y-22896D01*
X20920Y-22896D01*
X20958Y-22915D01*
X20976Y-22933D01*
X20995Y-22971D01*
X20995Y-23008D01*
X20976Y-23046D01*
X20958Y-23065D01*
X20920Y-23083D01*
X20789Y-23083D01*
X21351Y-23290D02*
X21351Y-23083D01*
X21333Y-23046D01*
X21295Y-23027D01*
X21220Y-23027D01*
X21183Y-23046D01*
X21351Y-23271D02*
X21314Y-23290D01*
X21220Y-23290D01*
X21183Y-23271D01*
X21164Y-23233D01*
X21164Y-23196D01*
X21183Y-23158D01*
X21220Y-23140D01*
X21314Y-23140D01*
X21351Y-23121D01*
X21483Y-23027D02*
X21633Y-23027D01*
X21539Y-22896D02*
X21539Y-23233D01*
X21558Y-23271D01*
X21595Y-23290D01*
X21633Y-23290D01*
X21708Y-23027D02*
X21858Y-23027D01*
X21764Y-22896D02*
X21764Y-23233D01*
X21783Y-23271D01*
X21820Y-23290D01*
X21858Y-23290D01*
X22139Y-23271D02*
X22101Y-23290D01*
X22026Y-23290D01*
X21989Y-23271D01*
X21970Y-23233D01*
X21970Y-23083D01*
X21989Y-23046D01*
X22026Y-23027D01*
X22101Y-23027D01*
X22139Y-23046D01*
X22158Y-23083D01*
X22158Y-23121D01*
X21970Y-23158D01*
X22326Y-23290D02*
X22326Y-23027D01*
X22326Y-23102D02*
X22345Y-23065D01*
X22364Y-23046D01*
X22401Y-23027D01*
X22439Y-23027D01*
X22532Y-23027D02*
X22626Y-23290D01*
X22720Y-23027D02*
X22626Y-23290D01*
X22589Y-23383D01*
X22570Y-23402D01*
X22532Y-23421D01*
X47870Y-14621D02*
X47833Y-14640D01*
X47758Y-14640D01*
X47720Y-14621D01*
X47701Y-14602D01*
X47683Y-14565D01*
X47683Y-14452D01*
X47701Y-14415D01*
X47720Y-14396D01*
X47758Y-14377D01*
X47833Y-14377D01*
X47870Y-14396D01*
X48095Y-14640D02*
X48058Y-14621D01*
X48039Y-14602D01*
X48020Y-14565D01*
X48020Y-14452D01*
X48039Y-14415D01*
X48058Y-14396D01*
X48095Y-14377D01*
X48151Y-14377D01*
X48189Y-14396D01*
X48208Y-14415D01*
X48226Y-14452D01*
X48226Y-14565D01*
X48208Y-14602D01*
X48189Y-14621D01*
X48151Y-14640D01*
X48095Y-14640D01*
X48451Y-14640D02*
X48414Y-14621D01*
X48395Y-14583D01*
X48395Y-14246D01*
X48601Y-14640D02*
X48601Y-14377D01*
X48601Y-14246D02*
X48583Y-14265D01*
X48601Y-14283D01*
X48620Y-14265D01*
X48601Y-14246D01*
X48601Y-14283D01*
X48789Y-14377D02*
X48789Y-14640D01*
X48789Y-14415D02*
X48808Y-14396D01*
X48845Y-14377D01*
X48901Y-14377D01*
X48939Y-14396D01*
X48958Y-14433D01*
X48958Y-14640D01*
X49145Y-14640D02*
X49145Y-14246D01*
X49314Y-14640D02*
X49314Y-14433D01*
X49295Y-14396D01*
X49258Y-14377D01*
X49201Y-14377D01*
X49164Y-14396D01*
X49145Y-14415D01*
X49557Y-14640D02*
X49520Y-14621D01*
X49501Y-14602D01*
X49482Y-14565D01*
X49482Y-14452D01*
X49501Y-14415D01*
X49520Y-14396D01*
X49557Y-14377D01*
X49614Y-14377D01*
X49651Y-14396D01*
X49670Y-14415D01*
X49689Y-14452D01*
X49689Y-14565D01*
X49670Y-14602D01*
X49651Y-14621D01*
X49614Y-14640D01*
X49557Y-14640D01*
X43699Y-13890D02*
X43511Y-13890D01*
X43511Y-13496D01*
X43830Y-13683D02*
X43961Y-13683D01*
X44017Y-13890D02*
X43830Y-13890D01*
X43830Y-13496D01*
X44017Y-13496D01*
X44186Y-13890D02*
X44186Y-13496D01*
X44280Y-13496D01*
X44336Y-13515D01*
X44373Y-13552D01*
X44392Y-13590D01*
X44411Y-13665D01*
X44411Y-13721D01*
X44392Y-13796D01*
X44373Y-13833D01*
X44336Y-13871D01*
X44280Y-13890D01*
X44186Y-13890D01*
X44636Y-13890D02*
X44598Y-13871D01*
X44580Y-13833D01*
X44580Y-13496D01*
X44786Y-13890D02*
X44786Y-13627D01*
X44786Y-13496D02*
X44767Y-13515D01*
X44786Y-13533D01*
X44805Y-13515D01*
X44786Y-13496D01*
X44786Y-13533D01*
X45142Y-13627D02*
X45142Y-13946D01*
X45123Y-13983D01*
X45105Y-14002D01*
X45067Y-14021D01*
X45011Y-14021D01*
X44973Y-14002D01*
X45142Y-13871D02*
X45105Y-13890D01*
X45030Y-13890D01*
X44992Y-13871D01*
X44973Y-13852D01*
X44955Y-13815D01*
X44955Y-13702D01*
X44973Y-13665D01*
X44992Y-13646D01*
X45030Y-13627D01*
X45105Y-13627D01*
X45142Y-13646D01*
X45330Y-13890D02*
X45330Y-13496D01*
X45498Y-13890D02*
X45498Y-13683D01*
X45480Y-13646D01*
X45442Y-13627D01*
X45386Y-13627D01*
X45348Y-13646D01*
X45330Y-13665D01*
X45630Y-13627D02*
X45780Y-13627D01*
X45686Y-13496D02*
X45686Y-13833D01*
X45705Y-13871D01*
X45742Y-13890D01*
X45780Y-13890D01*
X45855Y-13496D02*
X46080Y-13496D01*
X45967Y-13890D02*
X45967Y-13496D01*
X46361Y-13871D02*
X46323Y-13890D01*
X46248Y-13890D01*
X46211Y-13871D01*
X46192Y-13833D01*
X46192Y-13683D01*
X46211Y-13646D01*
X46248Y-13627D01*
X46323Y-13627D01*
X46361Y-13646D01*
X46379Y-13683D01*
X46379Y-13721D01*
X46192Y-13758D01*
X46548Y-13627D02*
X46548Y-13890D01*
X46548Y-13665D02*
X46567Y-13646D01*
X46604Y-13627D01*
X46661Y-13627D01*
X46698Y-13646D01*
X46717Y-13683D01*
X46717Y-13890D01*
X46886Y-13871D02*
X46923Y-13890D01*
X46998Y-13890D01*
X47036Y-13871D01*
X47054Y-13833D01*
X47054Y-13815D01*
X47036Y-13777D01*
X46998Y-13758D01*
X46942Y-13758D01*
X46904Y-13740D01*
X46886Y-13702D01*
X46886Y-13683D01*
X46904Y-13646D01*
X46942Y-13627D01*
X46998Y-13627D01*
X47036Y-13646D01*
X47373Y-13871D02*
X47336Y-13890D01*
X47261Y-13890D01*
X47223Y-13871D01*
X47204Y-13833D01*
X47204Y-13683D01*
X47223Y-13646D01*
X47261Y-13627D01*
X47336Y-13627D01*
X47373Y-13646D01*
X47392Y-13683D01*
X47392Y-13721D01*
X47204Y-13758D01*
X47729Y-13627D02*
X47729Y-13946D01*
X47711Y-13983D01*
X47692Y-14002D01*
X47654Y-14021D01*
X47598Y-14021D01*
X47561Y-14002D01*
X47729Y-13871D02*
X47692Y-13890D01*
X47617Y-13890D01*
X47579Y-13871D01*
X47561Y-13852D01*
X47542Y-13815D01*
X47542Y-13702D01*
X47561Y-13665D01*
X47579Y-13646D01*
X47617Y-13627D01*
X47692Y-13627D01*
X47729Y-13646D01*
X47917Y-13890D02*
X47917Y-13627D01*
X47917Y-13702D02*
X47936Y-13665D01*
X47954Y-13646D01*
X47992Y-13627D01*
X48029Y-13627D01*
X48161Y-13890D02*
X48161Y-13627D01*
X48161Y-13496D02*
X48142Y-13515D01*
X48161Y-13533D01*
X48179Y-13515D01*
X48161Y-13496D01*
X48161Y-13533D01*
X48292Y-13627D02*
X48442Y-13627D01*
X48348Y-13496D02*
X48348Y-13833D01*
X48367Y-13871D01*
X48404Y-13890D01*
X48442Y-13890D01*
X48535Y-13627D02*
X48629Y-13890D01*
X48723Y-13627D02*
X48629Y-13890D01*
X48592Y-13983D01*
X48573Y-14002D01*
X48535Y-14021D01*
X49135Y-13627D02*
X49229Y-13890D01*
X49323Y-13627D01*
X49679Y-13890D02*
X49454Y-13890D01*
X49567Y-13890D02*
X49567Y-13496D01*
X49529Y-13552D01*
X49492Y-13590D01*
X49454Y-13608D01*
G54D12*
X20036Y-23111D02*
X19436Y-23111D01*
X21004Y-21330D02*
X21004Y-20730D01*
X21304Y-21030D02*
X20705Y-21030D01*
G54D11*
X46089Y-21746D02*
X46108Y-21689D01*
X46126Y-21671D01*
X46164Y-21652D01*
X46220Y-21652D01*
X46258Y-21671D01*
X46276Y-21689D01*
X46295Y-21727D01*
X46295Y-21877D01*
X45901Y-21877D01*
X45901Y-21746D01*
X45920Y-21708D01*
X45939Y-21689D01*
X45976Y-21671D01*
X46014Y-21671D01*
X46051Y-21689D01*
X46070Y-21708D01*
X46089Y-21746D01*
X46089Y-21877D01*
X46295Y-21315D02*
X46089Y-21315D01*
X46051Y-21333D01*
X46033Y-21371D01*
X46033Y-21446D01*
X46051Y-21483D01*
X46276Y-21315D02*
X46295Y-21352D01*
X46295Y-21446D01*
X46276Y-21483D01*
X46239Y-21502D01*
X46201Y-21502D01*
X46164Y-21483D01*
X46145Y-21446D01*
X46145Y-21352D01*
X46126Y-21315D01*
X46033Y-21183D02*
X46033Y-21033D01*
X45901Y-21127D02*
X46239Y-21127D01*
X46276Y-21108D01*
X46295Y-21071D01*
X46295Y-21033D01*
X46033Y-20958D02*
X46033Y-20808D01*
X45901Y-20902D02*
X46239Y-20902D01*
X46276Y-20883D01*
X46295Y-20846D01*
X46295Y-20808D01*
X46276Y-20527D02*
X46295Y-20565D01*
X46295Y-20640D01*
X46276Y-20677D01*
X46239Y-20696D01*
X46089Y-20696D01*
X46051Y-20677D01*
X46033Y-20640D01*
X46033Y-20565D01*
X46051Y-20527D01*
X46089Y-20508D01*
X46126Y-20508D01*
X46164Y-20696D01*
X46295Y-20340D02*
X46033Y-20340D01*
X46108Y-20340D02*
X46070Y-20321D01*
X46051Y-20302D01*
X46033Y-20265D01*
X46033Y-20227D01*
X46033Y-20133D02*
X46295Y-20040D01*
X46033Y-19946D02*
X46295Y-20040D01*
X46389Y-20077D01*
X46408Y-20096D01*
X46426Y-20133D01*
G54D12*
X47504Y-18980D02*
X47504Y-18380D01*
X47054Y-22080D02*
X47054Y-21480D01*
X47354Y-21780D02*
X46755Y-21780D01*
X47054Y-20630D02*
X47054Y-20030D01*
X47017Y-17393D02*
X47017Y-17768D01*
X47392Y-17805D01*
X47354Y-17768D01*
X47317Y-17693D01*
X47317Y-17505D01*
X47354Y-17430D01*
X47392Y-17393D01*
X47467Y-17355D01*
X47654Y-17355D01*
X47729Y-17393D01*
X47767Y-17430D01*
X47804Y-17505D01*
X47804Y-17693D01*
X47767Y-17768D01*
X47729Y-17805D01*
X49017Y-15805D02*
X49054Y-15693D01*
X49054Y-15505D01*
X49017Y-15430D01*
X48979Y-15393D01*
X48904Y-15355D01*
X48829Y-15355D01*
X48754Y-15393D01*
X48717Y-15430D01*
X48679Y-15505D01*
X48642Y-15655D01*
X48604Y-15730D01*
X48567Y-15768D01*
X48492Y-15805D01*
X48417Y-15805D01*
X48342Y-15768D01*
X48305Y-15730D01*
X48267Y-15655D01*
X48267Y-15468D01*
X48305Y-15355D01*
G54D13*
X46936Y-16630D03*
X47536Y-16630D03*
X25736Y-14830D03*
X26336Y-14830D03*
X25036Y-14830D03*
X24436Y-14830D03*
G54D14*
X19736Y-16330D03*
X19736Y-15330D03*
X19736Y-14330D03*
X19736Y-19330D03*
X19736Y-18330D03*
X19736Y-17330D03*
G54D15*
X48736Y-16630D03*
G54D16*
X48236Y-17630D03*
X48186Y-18630D03*
G54D14*
X27836Y-13830D03*
X28836Y-13830D03*
X30836Y-13830D03*
X29836Y-13830D03*
G54D15*
X41736Y-14130D03*
G54D14*
X42736Y-14130D03*
X41736Y-15130D03*
X42736Y-15130D03*
X41736Y-16130D03*
X42736Y-16130D03*
X36236Y-18930D03*
X37236Y-18930D03*
X36236Y-17930D03*
X37236Y-17930D03*
X36236Y-16930D03*
X37236Y-16930D03*
X36236Y-15930D03*
X37236Y-15930D03*
G54D17*
X19736Y-22130D03*
X19736Y-21130D03*
G54D14*
X31836Y-19830D03*
X34836Y-19830D03*
X34836Y-13830D03*
X33836Y-13830D03*
X32836Y-13830D03*
X31836Y-13830D03*
X28336Y-14830D03*
X27336Y-14830D03*
X26836Y-13830D03*
X24836Y-13830D03*
X23836Y-13830D03*
X22836Y-14330D03*
X22836Y-15330D03*
X22836Y-16330D03*
X22836Y-17330D03*
X22836Y-18330D03*
X22836Y-19330D03*
G54D18*
X48736Y-20380D03*
X48736Y-22130D03*
G54D14*
X25836Y-21780D03*
G54D12*
X25386Y-14830D02*
X25386Y-21330D01*
X25386Y-21330D02*
X25836Y-21780D01*
X25036Y-14830D02*
X25386Y-14830D01*
X25386Y-14830D02*
X25336Y-14830D01*
X25336Y-14830D02*
X25736Y-14830D01*
X36236Y-17930D02*
X34836Y-19330D01*
X34836Y-19330D02*
X34836Y-19830D01*
X34836Y-13830D02*
X37036Y-13830D01*
X37036Y-13830D02*
X37736Y-14530D01*
X37536Y-17930D02*
X37236Y-17930D01*
X38736Y-16730D02*
X37536Y-17930D01*
X38736Y-15530D02*
X38736Y-16730D01*
X37636Y-14430D02*
X37736Y-14530D01*
X37736Y-14530D02*
X38736Y-15530D01*
X47536Y-16630D02*
X48736Y-16630D01*
X36236Y-15930D02*
X34936Y-15930D01*
X34936Y-15930D02*
X32836Y-13830D01*
X33836Y-13830D02*
X34736Y-14730D01*
X37636Y-15130D02*
X38136Y-15630D01*
X38136Y-15630D02*
X38136Y-16430D01*
X38136Y-16430D02*
X37636Y-16930D01*
X37636Y-16930D02*
X37236Y-16930D01*
X37236Y-14730D02*
X37636Y-15130D01*
X34736Y-14730D02*
X37236Y-14730D01*
X31836Y-13830D02*
X34636Y-16630D01*
X34936Y-16930D02*
X36236Y-16930D01*
X34636Y-16630D02*
X34936Y-16930D01*
X41736Y-16130D02*
X42236Y-15630D01*
X28136Y-15630D02*
X27336Y-14830D01*
X30136Y-15630D02*
X28136Y-15630D01*
X33536Y-19030D02*
X30136Y-15630D01*
X33536Y-20030D02*
X33536Y-19030D01*
X34436Y-20930D02*
X33536Y-20030D01*
X38836Y-20930D02*
X34436Y-20930D01*
X43436Y-16330D02*
X38836Y-20930D01*
X43436Y-15830D02*
X43436Y-16330D01*
X43236Y-15630D02*
X43436Y-15830D01*
X42236Y-15630D02*
X43236Y-15630D01*
X42736Y-16130D02*
X39036Y-19830D01*
X30036Y-14830D02*
X28336Y-14830D01*
X34036Y-18830D02*
X30036Y-14830D01*
X34036Y-19930D02*
X34036Y-18830D01*
X34536Y-20430D02*
X34036Y-19930D01*
X38436Y-20430D02*
X34536Y-20430D01*
X39036Y-19830D02*
X38436Y-20430D01*
X19736Y-16330D02*
X22836Y-16330D01*
X19736Y-17330D02*
X22836Y-17330D01*
X19736Y-18330D02*
X22836Y-18330D01*
X19736Y-19330D02*
X22836Y-19330D01*
X26836Y-13830D02*
X26836Y-14330D01*
X26836Y-14330D02*
X26336Y-14830D01*
X23836Y-13830D02*
X23836Y-14230D01*
X23836Y-14230D02*
X24436Y-14830D01*
X19736Y-14330D02*
X22836Y-14330D01*
X19736Y-15330D02*
X22836Y-15330D01*
X31836Y-19830D02*
X32486Y-19830D01*
X39236Y-21830D02*
X44436Y-16630D01*
X44436Y-16630D02*
X46936Y-16630D01*
X34486Y-21830D02*
X39236Y-21830D01*
X32486Y-19830D02*
X34486Y-21830D01*
G54D19*
X19736Y-22130D02*
X24736Y-22130D01*
X48136Y-22730D02*
X48736Y-22130D01*
X25336Y-22730D02*
X48136Y-22730D01*
X24736Y-22130D02*
X25336Y-22730D01*
M02*
