M48
;DRILL file {Pcbnew (2013-07-07 BZR 4022)-stable} date 9/2/2014 5:44:02 PM
;FORMAT={-:-/ absolute / inch / decimal}
FMAT,2
INCH,TZ
T1C0.031
T2C0.039
T3C0.059
%
G90
G05
M72
T1
X0.95Y-1.
X0.95Y-1.1
X0.95Y-1.2
X0.95Y-1.3
X0.95Y-1.4
X0.95Y-1.5
X1.26Y-1.
X1.26Y-1.1
X1.26Y-1.2
X1.26Y-1.3
X1.26Y-1.4
X1.26Y-1.5
X1.36Y-0.95
X1.46Y-0.95
X1.56Y-1.745
X1.66Y-0.95
X1.71Y-1.05
X1.76Y-0.95
X1.81Y-1.05
X1.86Y-0.95
X1.96Y-0.95
X2.06Y-0.95
X2.16Y-0.95
X2.16Y-1.55
X2.26Y-0.95
X2.36Y-0.95
X2.46Y-0.95
X2.46Y-1.55
X2.6Y-1.16
X2.6Y-1.26
X2.6Y-1.36
X2.6Y-1.46
X2.7Y-1.16
X2.7Y-1.26
X2.7Y-1.36
X2.7Y-1.46
X3.15Y-0.98
X3.15Y-1.08
X3.15Y-1.18
X3.25Y-0.98
X3.25Y-1.08
X3.25Y-1.18
X3.85Y-1.23
T2
X0.95Y-1.68
X0.95Y-1.78
X3.795Y-1.43
X3.8Y-1.33
T3
X3.85Y-1.605
X3.85Y-1.78
T0
M30
