M48
;DRILL file {Pcbnew (2013-07-07 BZR 4022)-stable} date 8/29/2014 5:22:18 PM
;FORMAT={-:-/ absolute / inch / decimal}
FMAT,2
INCH,TZ
T1C0.024
T2C0.032
T3C0.033
%
G90
G05
M72
T1
X1.1Y-1.
X1.1Y-1.1
X1.1Y-1.2
X1.1Y-1.3
X1.1Y-1.4
X1.1Y-1.5
X1.2Y-0.95
X1.3Y-0.95
X1.5Y-0.95
X1.55Y-1.05
X1.65Y-1.05
X2.Y-0.95
X2.Y-1.55
X2.1Y-0.95
X2.2Y-0.95
X2.3Y-0.95
X2.3Y-1.55
X2.6Y-1.16
X2.6Y-1.26
X2.6Y-1.36
X2.6Y-1.46
X2.7Y-1.16
X2.7Y-1.26
X2.7Y-1.36
X2.7Y-1.46
X3.15Y-0.98
X3.15Y-1.08
X3.15Y-1.18
X3.25Y-0.98
X3.25Y-1.08
X3.25Y-1.18
T2
X0.95Y-1.
X0.95Y-1.1
X0.95Y-1.2
X0.95Y-1.3
X0.95Y-1.4
X0.95Y-1.5
X0.95Y-1.68
X0.95Y-1.78
X1.58Y-0.8
X1.68Y-0.8
X1.8Y-0.8
X1.9Y-0.8
X3.85Y-1.23
X3.85Y-1.33
X3.85Y-1.43
T3
X1.43Y-1.75
T0
M30
