G04 (created by PCBNEW (2013-07-07 BZR 4022)-stable) date 9/2/2014 11:24:20 PM*
%MOIN*%
G04 Gerber Fmt 3.4, Leading zero omitted, Abs format*
%FSLAX34Y34*%
G01*
G70*
G90*
G04 APERTURE LIST*
%ADD10C,0.00590551*%
%ADD11C,0.00984252*%
%ADD12R,0.144X0.08*%
%ADD13R,0.04X0.08*%
%ADD14R,0.025X0.045*%
%ADD15C,0.0590551*%
%ADD16R,0.055X0.055*%
%ADD17R,0.19685X0.0787402*%
%ADD18R,0.05X0.05*%
%ADD19R,0.0708661X0.165354*%
%ADD20R,0.161417X0.0708661*%
%ADD21R,0.11811X0.0787402*%
%ADD22R,0.15748X0.11811*%
%ADD23R,0.07X0.2*%
%ADD24C,0.0787402*%
%ADD25C,0.019685*%
%ADD26C,0.0393701*%
%ADD27C,0.0590551*%
%ADD28C,0.01*%
G04 APERTURE END LIST*
G54D10*
G54D11*
X38333Y-15677D02*
X38595Y-15677D01*
X38370Y-15677D02*
X38351Y-15696D01*
X38333Y-15734D01*
X38333Y-15790D01*
X38351Y-15827D01*
X38389Y-15846D01*
X38595Y-15846D01*
X38595Y-16258D02*
X38408Y-16127D01*
X38595Y-16033D02*
X38201Y-16033D01*
X38201Y-16183D01*
X38220Y-16221D01*
X38239Y-16240D01*
X38276Y-16258D01*
X38333Y-16258D01*
X38370Y-16240D01*
X38389Y-16221D01*
X38408Y-16183D01*
X38408Y-16033D01*
X38389Y-16558D02*
X38389Y-16427D01*
X38595Y-16427D02*
X38201Y-16427D01*
X38201Y-16615D01*
X38239Y-16746D02*
X38220Y-16765D01*
X38201Y-16802D01*
X38201Y-16896D01*
X38220Y-16933D01*
X38239Y-16952D01*
X38276Y-16971D01*
X38314Y-16971D01*
X38370Y-16952D01*
X38595Y-16727D01*
X38595Y-16971D01*
X38333Y-17308D02*
X38595Y-17308D01*
X38183Y-17215D02*
X38464Y-17121D01*
X38464Y-17365D01*
X38595Y-17702D02*
X38595Y-17515D01*
X38201Y-17515D01*
X38201Y-17908D02*
X38201Y-17946D01*
X38220Y-17983D01*
X38239Y-18002D01*
X38276Y-18021D01*
X38351Y-18039D01*
X38445Y-18039D01*
X38520Y-18021D01*
X38558Y-18002D01*
X38576Y-17983D01*
X38595Y-17946D01*
X38595Y-17908D01*
X38576Y-17871D01*
X38558Y-17852D01*
X38520Y-17833D01*
X38445Y-17815D01*
X38351Y-17815D01*
X38276Y-17833D01*
X38239Y-17852D01*
X38220Y-17871D01*
X38201Y-17908D01*
X38595Y-18414D02*
X38595Y-18189D01*
X38595Y-18302D02*
X38201Y-18302D01*
X38258Y-18264D01*
X38295Y-18227D01*
X38314Y-18189D01*
X38445Y-18583D02*
X38445Y-18883D01*
X38595Y-18733D02*
X38295Y-18733D01*
G54D12*
X33836Y-15630D03*
G54D13*
X33836Y-18230D03*
X32936Y-18230D03*
X34736Y-18230D03*
G54D14*
X31736Y-20730D03*
X32336Y-20730D03*
G54D15*
X19736Y-16330D03*
X19736Y-15330D03*
X19736Y-14330D03*
X19736Y-19330D03*
X19736Y-18330D03*
X19736Y-17330D03*
G54D16*
X48736Y-16630D03*
G54D17*
X48236Y-17630D03*
X48186Y-18630D03*
G54D15*
X27836Y-13830D03*
X28836Y-13830D03*
X30836Y-13830D03*
X29836Y-13830D03*
G54D16*
X41736Y-14130D03*
G54D15*
X42736Y-14130D03*
X41736Y-15130D03*
X42736Y-15130D03*
X41736Y-16130D03*
X42736Y-16130D03*
G54D18*
X28136Y-16731D03*
G54D19*
X26337Y-17180D03*
X26337Y-18979D03*
G54D20*
X26785Y-20329D03*
G54D18*
X28136Y-20329D03*
X29935Y-20329D03*
X29935Y-18530D03*
X29935Y-17629D03*
X29935Y-16731D03*
X29037Y-16731D03*
X29037Y-20329D03*
X29935Y-19432D03*
G54D15*
X36236Y-18930D03*
X37236Y-18930D03*
X36236Y-17930D03*
X37236Y-17930D03*
X36236Y-16930D03*
X37236Y-16930D03*
X36236Y-15930D03*
X37236Y-15930D03*
G54D21*
X19736Y-22130D03*
X19736Y-21130D03*
G54D15*
X31836Y-19830D03*
X34836Y-19830D03*
X34836Y-13830D03*
X33836Y-13830D03*
X32836Y-13830D03*
X31836Y-13830D03*
X28336Y-14830D03*
X27336Y-14830D03*
X26836Y-13830D03*
X24836Y-13830D03*
X23836Y-13830D03*
X22836Y-14330D03*
X22836Y-15330D03*
X22836Y-16330D03*
X22836Y-17330D03*
X22836Y-18330D03*
X22836Y-19330D03*
G54D22*
X48736Y-20380D03*
X48736Y-22130D03*
G54D23*
X21136Y-21130D03*
X23736Y-21130D03*
G54D15*
X25836Y-21780D03*
G54D24*
X26785Y-20329D02*
X26785Y-21230D01*
X26785Y-21230D02*
X27785Y-22230D01*
X27785Y-22230D02*
X40036Y-22230D01*
X40036Y-22230D02*
X44636Y-17630D01*
X44636Y-17630D02*
X48236Y-17630D01*
G54D25*
X42736Y-15130D02*
X43386Y-15130D01*
X43436Y-15130D02*
X45936Y-17630D01*
X43386Y-15130D02*
X43436Y-15130D01*
X48236Y-17630D02*
X45936Y-17630D01*
X45936Y-17630D02*
X44636Y-17630D01*
X38986Y-22230D02*
X33336Y-22230D01*
X40036Y-22230D02*
X44636Y-17630D01*
X39836Y-22230D02*
X40036Y-22230D01*
X38986Y-22230D02*
X39836Y-22230D01*
X32936Y-18230D02*
X32936Y-18980D01*
X33536Y-22030D02*
X33336Y-22230D01*
X33536Y-19580D02*
X33536Y-22030D01*
X32936Y-18980D02*
X33536Y-19580D01*
X25911Y-21705D02*
X27261Y-21705D01*
X25836Y-21780D02*
X25911Y-21705D01*
X26785Y-21230D02*
X26786Y-21230D01*
X26786Y-21230D02*
X27261Y-21705D01*
X27086Y-21530D02*
X27786Y-22230D01*
X27261Y-21705D02*
X27086Y-21530D01*
X27786Y-22230D02*
X33336Y-22230D01*
X28136Y-20329D02*
X28136Y-22330D01*
X41736Y-15130D02*
X42736Y-15130D01*
G54D24*
X48186Y-18630D02*
X46536Y-18630D01*
X48736Y-20380D02*
X47036Y-20380D01*
G54D25*
X34736Y-18230D02*
X34736Y-18980D01*
G54D24*
X26337Y-18979D02*
X25237Y-18979D01*
G54D26*
X25237Y-18979D02*
X25236Y-18980D01*
X29935Y-18530D02*
X30936Y-18530D01*
G54D25*
X29935Y-20329D02*
X29935Y-21329D01*
X31436Y-20730D02*
X31736Y-20730D01*
X30636Y-21530D02*
X31436Y-20730D01*
X30136Y-21530D02*
X30636Y-21530D01*
X29935Y-21329D02*
X30136Y-21530D01*
X28836Y-13830D02*
X28836Y-14130D01*
X28136Y-15830D02*
X28136Y-16731D01*
X28236Y-15730D02*
X28136Y-15830D01*
X29036Y-14930D02*
X28236Y-15730D01*
X29036Y-14330D02*
X29036Y-14930D01*
X28836Y-14130D02*
X29036Y-14330D01*
G54D24*
X23736Y-21130D02*
X23736Y-18080D01*
X24636Y-17180D02*
X26337Y-17180D01*
X23736Y-18080D02*
X24636Y-17180D01*
G54D25*
X33836Y-18730D02*
X33836Y-18230D01*
X34036Y-18930D02*
X33836Y-18730D01*
X34036Y-19930D02*
X34036Y-18930D01*
X34636Y-20530D02*
X34036Y-19930D01*
X36236Y-20530D02*
X34636Y-20530D01*
X36236Y-20530D02*
X37236Y-19530D01*
X37236Y-18930D02*
X37236Y-19530D01*
X29836Y-13830D02*
X29836Y-14930D01*
G54D26*
X29037Y-15732D02*
X29037Y-16731D01*
X29037Y-15732D02*
X29036Y-15730D01*
G54D25*
X29836Y-14930D02*
X29036Y-15730D01*
X30836Y-13830D02*
X30836Y-14830D01*
X30836Y-14830D02*
X29935Y-15731D01*
G54D26*
X29935Y-16731D02*
X29935Y-15731D01*
X29935Y-15731D02*
X29936Y-15730D01*
G54D27*
X21136Y-21130D02*
X19736Y-21130D01*
G54D10*
G36*
X52879Y-23746D02*
X52823Y-23746D01*
X52823Y-21705D01*
X52823Y-21653D01*
X52823Y-21601D01*
X52823Y-21600D01*
X52823Y-21600D01*
X52778Y-21374D01*
X52738Y-21277D01*
X52737Y-21276D01*
X52610Y-21086D01*
X52610Y-21085D01*
X52535Y-21011D01*
X52344Y-20883D01*
X52246Y-20843D01*
X52245Y-20843D01*
X52021Y-20798D01*
X52020Y-20798D01*
X51915Y-20798D01*
X51689Y-20843D01*
X51592Y-20883D01*
X51591Y-20884D01*
X51401Y-21011D01*
X51400Y-21011D01*
X51326Y-21086D01*
X51198Y-21277D01*
X51158Y-21375D01*
X51158Y-21376D01*
X51113Y-21600D01*
X51113Y-21600D01*
X51113Y-21601D01*
X51113Y-21653D01*
X51113Y-21705D01*
X51113Y-21706D01*
X51113Y-21706D01*
X51158Y-21930D01*
X51158Y-21931D01*
X51198Y-22029D01*
X51326Y-22220D01*
X51400Y-22295D01*
X51401Y-22295D01*
X51591Y-22422D01*
X51592Y-22423D01*
X51689Y-22463D01*
X51915Y-22508D01*
X52020Y-22508D01*
X52021Y-22508D01*
X52245Y-22463D01*
X52246Y-22463D01*
X52344Y-22423D01*
X52535Y-22295D01*
X52610Y-22221D01*
X52610Y-22220D01*
X52737Y-22030D01*
X52738Y-22029D01*
X52778Y-21932D01*
X52823Y-21706D01*
X52823Y-21706D01*
X52823Y-21705D01*
X52823Y-23746D01*
X49773Y-23746D01*
X49773Y-22671D01*
X49773Y-21490D01*
X49773Y-21020D01*
X49773Y-19740D01*
X49735Y-19648D01*
X49665Y-19578D01*
X49573Y-19540D01*
X49474Y-19540D01*
X49470Y-19540D01*
X49470Y-17974D01*
X49470Y-17187D01*
X49432Y-17095D01*
X49362Y-17025D01*
X49270Y-16987D01*
X49248Y-16987D01*
X49261Y-16955D01*
X49261Y-16856D01*
X49261Y-16306D01*
X49223Y-16214D01*
X49153Y-16143D01*
X49061Y-16105D01*
X48961Y-16105D01*
X48411Y-16105D01*
X48319Y-16143D01*
X48249Y-16213D01*
X48211Y-16305D01*
X48211Y-16405D01*
X48211Y-16955D01*
X48224Y-16986D01*
X47202Y-16986D01*
X47202Y-16987D01*
X45785Y-16987D01*
X43682Y-14884D01*
X43569Y-14808D01*
X43547Y-14804D01*
X43436Y-14782D01*
X43436Y-14782D01*
X43386Y-14782D01*
X43286Y-14782D01*
X43286Y-14211D01*
X43275Y-13994D01*
X43213Y-13845D01*
X43118Y-13818D01*
X43047Y-13889D01*
X43047Y-13748D01*
X43021Y-13653D01*
X42816Y-13580D01*
X42600Y-13591D01*
X42451Y-13653D01*
X42424Y-13748D01*
X42736Y-14059D01*
X43047Y-13748D01*
X43047Y-13889D01*
X42806Y-14130D01*
X43118Y-14442D01*
X43213Y-14415D01*
X43286Y-14211D01*
X43286Y-14782D01*
X43158Y-14782D01*
X43045Y-14668D01*
X42960Y-14633D01*
X43021Y-14608D01*
X43047Y-14513D01*
X42736Y-14201D01*
X42424Y-14513D01*
X42451Y-14608D01*
X42516Y-14631D01*
X42427Y-14668D01*
X42313Y-14782D01*
X42158Y-14782D01*
X42045Y-14668D01*
X42014Y-14655D01*
X42060Y-14655D01*
X42152Y-14617D01*
X42223Y-14547D01*
X42261Y-14455D01*
X42261Y-14416D01*
X42353Y-14442D01*
X42665Y-14130D01*
X42353Y-13818D01*
X42261Y-13845D01*
X42261Y-13805D01*
X42223Y-13713D01*
X42152Y-13643D01*
X42060Y-13605D01*
X41848Y-13605D01*
X41786Y-13668D01*
X41786Y-14080D01*
X41794Y-14080D01*
X41794Y-14180D01*
X41786Y-14180D01*
X41786Y-14188D01*
X41686Y-14188D01*
X41686Y-14180D01*
X41686Y-14080D01*
X41686Y-13668D01*
X41623Y-13605D01*
X41411Y-13605D01*
X41319Y-13643D01*
X41249Y-13713D01*
X41211Y-13805D01*
X41211Y-13905D01*
X41211Y-14018D01*
X41273Y-14080D01*
X41686Y-14080D01*
X41686Y-14180D01*
X41273Y-14180D01*
X41211Y-14243D01*
X41211Y-14356D01*
X41211Y-14455D01*
X41249Y-14547D01*
X41319Y-14617D01*
X41411Y-14655D01*
X41457Y-14655D01*
X41427Y-14668D01*
X41274Y-14821D01*
X41191Y-15021D01*
X41190Y-15238D01*
X41273Y-15439D01*
X41426Y-15592D01*
X41518Y-15630D01*
X41427Y-15668D01*
X41274Y-15821D01*
X41191Y-16021D01*
X41190Y-16238D01*
X41273Y-16439D01*
X41426Y-16592D01*
X41627Y-16675D01*
X41844Y-16676D01*
X42044Y-16593D01*
X42198Y-16439D01*
X42236Y-16348D01*
X42273Y-16439D01*
X42426Y-16592D01*
X42627Y-16675D01*
X42844Y-16676D01*
X43044Y-16593D01*
X43198Y-16439D01*
X43281Y-16239D01*
X43281Y-16022D01*
X43198Y-15822D01*
X43045Y-15668D01*
X42953Y-15630D01*
X43044Y-15593D01*
X43158Y-15479D01*
X43291Y-15479D01*
X44799Y-16987D01*
X44636Y-16987D01*
X44389Y-17036D01*
X44306Y-17091D01*
X44181Y-17175D01*
X44181Y-17175D01*
X39769Y-21587D01*
X35286Y-21587D01*
X33884Y-21587D01*
X33884Y-20271D01*
X34389Y-20777D01*
X34389Y-20777D01*
X34502Y-20852D01*
X34636Y-20879D01*
X35286Y-20879D01*
X36236Y-20879D01*
X36236Y-20879D01*
X36236Y-20879D01*
X36347Y-20857D01*
X36369Y-20852D01*
X36369Y-20852D01*
X36482Y-20777D01*
X37482Y-19777D01*
X37482Y-19777D01*
X37482Y-19777D01*
X37558Y-19664D01*
X37584Y-19530D01*
X37584Y-19353D01*
X37698Y-19239D01*
X37762Y-19083D01*
X37762Y-19276D01*
X39011Y-19276D01*
X39011Y-15284D01*
X37762Y-15284D01*
X37762Y-15777D01*
X37698Y-15622D01*
X37545Y-15468D01*
X37345Y-15385D01*
X37128Y-15385D01*
X36927Y-15468D01*
X36774Y-15621D01*
X36736Y-15712D01*
X36698Y-15622D01*
X36545Y-15468D01*
X36345Y-15385D01*
X36128Y-15385D01*
X35927Y-15468D01*
X35774Y-15621D01*
X35691Y-15821D01*
X35690Y-16038D01*
X35773Y-16239D01*
X35926Y-16392D01*
X36018Y-16430D01*
X35927Y-16468D01*
X35774Y-16621D01*
X35691Y-16821D01*
X35690Y-17038D01*
X35773Y-17239D01*
X35926Y-17392D01*
X36018Y-17430D01*
X35927Y-17468D01*
X35774Y-17621D01*
X35691Y-17821D01*
X35690Y-18038D01*
X35773Y-18239D01*
X35926Y-18392D01*
X36012Y-18428D01*
X35951Y-18453D01*
X35924Y-18548D01*
X36236Y-18859D01*
X36547Y-18548D01*
X36521Y-18453D01*
X36455Y-18430D01*
X36544Y-18393D01*
X36698Y-18239D01*
X36736Y-18148D01*
X36773Y-18239D01*
X36926Y-18392D01*
X37018Y-18430D01*
X36927Y-18468D01*
X36774Y-18621D01*
X36738Y-18706D01*
X36713Y-18645D01*
X36618Y-18618D01*
X36306Y-18930D01*
X36618Y-19242D01*
X36713Y-19215D01*
X36736Y-19150D01*
X36773Y-19239D01*
X36887Y-19353D01*
X36887Y-19386D01*
X36547Y-19726D01*
X36547Y-19313D01*
X36236Y-19001D01*
X36165Y-19072D01*
X36165Y-18930D01*
X35853Y-18618D01*
X35758Y-18645D01*
X35686Y-18850D01*
X35697Y-19066D01*
X35758Y-19215D01*
X35853Y-19242D01*
X36165Y-18930D01*
X36165Y-19072D01*
X35924Y-19313D01*
X35951Y-19408D01*
X36155Y-19480D01*
X36372Y-19469D01*
X36521Y-19408D01*
X36547Y-19313D01*
X36547Y-19726D01*
X36091Y-20182D01*
X35286Y-20182D01*
X35255Y-20182D01*
X35286Y-20151D01*
X35298Y-20139D01*
X35381Y-19939D01*
X35381Y-19722D01*
X35298Y-19522D01*
X35286Y-19509D01*
X35186Y-19409D01*
X35186Y-18581D01*
X35186Y-18343D01*
X35123Y-18280D01*
X34786Y-18280D01*
X34786Y-18818D01*
X34848Y-18880D01*
X34985Y-18880D01*
X35077Y-18842D01*
X35148Y-18772D01*
X35186Y-18680D01*
X35186Y-18581D01*
X35186Y-19409D01*
X35145Y-19368D01*
X34945Y-19285D01*
X34728Y-19285D01*
X34527Y-19368D01*
X34384Y-19511D01*
X34384Y-18930D01*
X34360Y-18808D01*
X34394Y-18842D01*
X34486Y-18880D01*
X34623Y-18880D01*
X34686Y-18818D01*
X34686Y-18280D01*
X34678Y-18280D01*
X34678Y-18180D01*
X34686Y-18180D01*
X34686Y-18172D01*
X34786Y-18172D01*
X34786Y-18180D01*
X35123Y-18180D01*
X35186Y-18118D01*
X35186Y-17880D01*
X35186Y-17780D01*
X35180Y-17766D01*
X35286Y-17766D01*
X35286Y-16091D01*
X34801Y-16091D01*
X34806Y-16080D01*
X34806Y-15981D01*
X34806Y-15181D01*
X34768Y-15089D01*
X34698Y-15018D01*
X34606Y-14980D01*
X34506Y-14980D01*
X33066Y-14980D01*
X32974Y-15018D01*
X32904Y-15088D01*
X32866Y-15180D01*
X32866Y-15280D01*
X32866Y-16080D01*
X32870Y-16091D01*
X32430Y-16091D01*
X32430Y-17766D01*
X32492Y-17766D01*
X32486Y-17780D01*
X32486Y-17880D01*
X32486Y-18680D01*
X32524Y-18772D01*
X32587Y-18835D01*
X32587Y-18980D01*
X32587Y-18980D01*
X32609Y-19091D01*
X32614Y-19114D01*
X32689Y-19227D01*
X33187Y-19725D01*
X33187Y-21587D01*
X32711Y-21587D01*
X32711Y-20906D01*
X32711Y-20555D01*
X32711Y-20455D01*
X32673Y-20363D01*
X32602Y-20293D01*
X32510Y-20255D01*
X32448Y-20255D01*
X32386Y-20318D01*
X32386Y-20680D01*
X32648Y-20680D01*
X32711Y-20618D01*
X32711Y-20555D01*
X32711Y-20906D01*
X32711Y-20843D01*
X32648Y-20780D01*
X32386Y-20780D01*
X32386Y-21143D01*
X32448Y-21205D01*
X32510Y-21205D01*
X32602Y-21167D01*
X32673Y-21097D01*
X32711Y-21005D01*
X32711Y-20906D01*
X32711Y-21587D01*
X31072Y-21587D01*
X31485Y-21174D01*
X31561Y-21205D01*
X31660Y-21205D01*
X31910Y-21205D01*
X32002Y-21167D01*
X32036Y-21134D01*
X32069Y-21167D01*
X32161Y-21205D01*
X32223Y-21205D01*
X32286Y-21143D01*
X32286Y-20780D01*
X32278Y-20780D01*
X32278Y-20680D01*
X32286Y-20680D01*
X32286Y-20318D01*
X32223Y-20255D01*
X32182Y-20255D01*
X32298Y-20139D01*
X32381Y-19939D01*
X32381Y-19722D01*
X32298Y-19522D01*
X32145Y-19368D01*
X31945Y-19285D01*
X31728Y-19285D01*
X31527Y-19368D01*
X31374Y-19521D01*
X31291Y-19721D01*
X31290Y-19938D01*
X31373Y-20139D01*
X31510Y-20276D01*
X31469Y-20293D01*
X31399Y-20363D01*
X31387Y-20391D01*
X31387Y-20391D01*
X31302Y-20408D01*
X31189Y-20484D01*
X31189Y-20484D01*
X30758Y-20915D01*
X30758Y-15894D01*
X30382Y-15894D01*
X30382Y-15777D01*
X31082Y-15077D01*
X31082Y-15077D01*
X31082Y-15077D01*
X31158Y-14964D01*
X31184Y-14830D01*
X31184Y-14253D01*
X31298Y-14139D01*
X31336Y-14048D01*
X31373Y-14139D01*
X31526Y-14292D01*
X31727Y-14375D01*
X31944Y-14376D01*
X32144Y-14293D01*
X32298Y-14139D01*
X32336Y-14048D01*
X32373Y-14139D01*
X32526Y-14292D01*
X32727Y-14375D01*
X32944Y-14376D01*
X33144Y-14293D01*
X33298Y-14139D01*
X33336Y-14048D01*
X33373Y-14139D01*
X33526Y-14292D01*
X33727Y-14375D01*
X33944Y-14376D01*
X34144Y-14293D01*
X34298Y-14139D01*
X34336Y-14048D01*
X34373Y-14139D01*
X34526Y-14292D01*
X34727Y-14375D01*
X34944Y-14376D01*
X35144Y-14293D01*
X35298Y-14139D01*
X35381Y-13939D01*
X35381Y-13722D01*
X35298Y-13522D01*
X35145Y-13368D01*
X34945Y-13285D01*
X34728Y-13285D01*
X34527Y-13368D01*
X34374Y-13521D01*
X34336Y-13612D01*
X34298Y-13522D01*
X34145Y-13368D01*
X33945Y-13285D01*
X33728Y-13285D01*
X33527Y-13368D01*
X33374Y-13521D01*
X33336Y-13612D01*
X33298Y-13522D01*
X33145Y-13368D01*
X32945Y-13285D01*
X32728Y-13285D01*
X32527Y-13368D01*
X32374Y-13521D01*
X32336Y-13612D01*
X32298Y-13522D01*
X32145Y-13368D01*
X31945Y-13285D01*
X31728Y-13285D01*
X31527Y-13368D01*
X31374Y-13521D01*
X31336Y-13612D01*
X31298Y-13522D01*
X31145Y-13368D01*
X30945Y-13285D01*
X30728Y-13285D01*
X30527Y-13368D01*
X30374Y-13521D01*
X30336Y-13612D01*
X30298Y-13522D01*
X30145Y-13368D01*
X29945Y-13285D01*
X29728Y-13285D01*
X29527Y-13368D01*
X29374Y-13521D01*
X29336Y-13612D01*
X29298Y-13522D01*
X29145Y-13368D01*
X28945Y-13285D01*
X28728Y-13285D01*
X28527Y-13368D01*
X28374Y-13521D01*
X28338Y-13606D01*
X28313Y-13545D01*
X28218Y-13518D01*
X28147Y-13589D01*
X28147Y-13448D01*
X28121Y-13353D01*
X27916Y-13280D01*
X27700Y-13291D01*
X27551Y-13353D01*
X27524Y-13448D01*
X27836Y-13759D01*
X28147Y-13448D01*
X28147Y-13589D01*
X27906Y-13830D01*
X28218Y-14142D01*
X28313Y-14115D01*
X28336Y-14050D01*
X28373Y-14139D01*
X28526Y-14292D01*
X28535Y-14296D01*
X28535Y-14296D01*
X28560Y-14333D01*
X28445Y-14285D01*
X28228Y-14285D01*
X28147Y-14318D01*
X28147Y-14213D01*
X27836Y-13901D01*
X27765Y-13972D01*
X27765Y-13830D01*
X27453Y-13518D01*
X27358Y-13545D01*
X27335Y-13611D01*
X27298Y-13522D01*
X27145Y-13368D01*
X26945Y-13285D01*
X26728Y-13285D01*
X26527Y-13368D01*
X26374Y-13521D01*
X26291Y-13721D01*
X26290Y-13938D01*
X26373Y-14139D01*
X26526Y-14292D01*
X26727Y-14375D01*
X26944Y-14376D01*
X27144Y-14293D01*
X27298Y-14139D01*
X27333Y-14054D01*
X27358Y-14115D01*
X27453Y-14142D01*
X27765Y-13830D01*
X27765Y-13972D01*
X27524Y-14213D01*
X27551Y-14308D01*
X27755Y-14380D01*
X27972Y-14369D01*
X28121Y-14308D01*
X28147Y-14213D01*
X28147Y-14318D01*
X28027Y-14368D01*
X27874Y-14521D01*
X27836Y-14612D01*
X27798Y-14522D01*
X27645Y-14368D01*
X27445Y-14285D01*
X27228Y-14285D01*
X27027Y-14368D01*
X26874Y-14521D01*
X26791Y-14721D01*
X26790Y-14938D01*
X26873Y-15139D01*
X27026Y-15292D01*
X27227Y-15375D01*
X27444Y-15376D01*
X27644Y-15293D01*
X27798Y-15139D01*
X27836Y-15048D01*
X27873Y-15139D01*
X28026Y-15292D01*
X28136Y-15338D01*
X27989Y-15484D01*
X27989Y-15484D01*
X27889Y-15584D01*
X27814Y-15697D01*
X27809Y-15719D01*
X27787Y-15830D01*
X27787Y-15830D01*
X27787Y-15894D01*
X25540Y-15894D01*
X25540Y-16536D01*
X25386Y-16536D01*
X25386Y-13911D01*
X25375Y-13694D01*
X25313Y-13545D01*
X25218Y-13518D01*
X25147Y-13589D01*
X25147Y-13448D01*
X25121Y-13353D01*
X24916Y-13280D01*
X24700Y-13291D01*
X24551Y-13353D01*
X24524Y-13448D01*
X24836Y-13759D01*
X25147Y-13448D01*
X25147Y-13589D01*
X24906Y-13830D01*
X25218Y-14142D01*
X25313Y-14115D01*
X25386Y-13911D01*
X25386Y-16536D01*
X25147Y-16536D01*
X25147Y-14213D01*
X24836Y-13901D01*
X24765Y-13972D01*
X24765Y-13830D01*
X24453Y-13518D01*
X24358Y-13545D01*
X24335Y-13611D01*
X24298Y-13522D01*
X24145Y-13368D01*
X23945Y-13285D01*
X23728Y-13285D01*
X23527Y-13368D01*
X23374Y-13521D01*
X23291Y-13721D01*
X23290Y-13938D01*
X23373Y-14139D01*
X23526Y-14292D01*
X23727Y-14375D01*
X23944Y-14376D01*
X24144Y-14293D01*
X24298Y-14139D01*
X24333Y-14054D01*
X24358Y-14115D01*
X24453Y-14142D01*
X24765Y-13830D01*
X24765Y-13972D01*
X24524Y-14213D01*
X24551Y-14308D01*
X24755Y-14380D01*
X24972Y-14369D01*
X25121Y-14308D01*
X25147Y-14213D01*
X25147Y-16536D01*
X24636Y-16536D01*
X24390Y-16585D01*
X24181Y-16725D01*
X24181Y-16725D01*
X23320Y-17585D01*
X23381Y-17439D01*
X23381Y-17222D01*
X23298Y-17022D01*
X23145Y-16868D01*
X23053Y-16830D01*
X23144Y-16793D01*
X23298Y-16639D01*
X23381Y-16439D01*
X23381Y-16222D01*
X23298Y-16022D01*
X23145Y-15868D01*
X23053Y-15830D01*
X23144Y-15793D01*
X23298Y-15639D01*
X23381Y-15439D01*
X23381Y-15222D01*
X23298Y-15022D01*
X23145Y-14868D01*
X23053Y-14830D01*
X23144Y-14793D01*
X23298Y-14639D01*
X23381Y-14439D01*
X23381Y-14222D01*
X23298Y-14022D01*
X23145Y-13868D01*
X22945Y-13785D01*
X22728Y-13785D01*
X22527Y-13868D01*
X22374Y-14021D01*
X22291Y-14221D01*
X22290Y-14438D01*
X22373Y-14639D01*
X22526Y-14792D01*
X22618Y-14830D01*
X22527Y-14868D01*
X22374Y-15021D01*
X22291Y-15221D01*
X22290Y-15438D01*
X22373Y-15639D01*
X22526Y-15792D01*
X22618Y-15830D01*
X22527Y-15868D01*
X22374Y-16021D01*
X22291Y-16221D01*
X22290Y-16438D01*
X22373Y-16639D01*
X22526Y-16792D01*
X22618Y-16830D01*
X22527Y-16868D01*
X22374Y-17021D01*
X22291Y-17221D01*
X22290Y-17438D01*
X22373Y-17639D01*
X22526Y-17792D01*
X22618Y-17830D01*
X22527Y-17868D01*
X22374Y-18021D01*
X22291Y-18221D01*
X22290Y-18438D01*
X22373Y-18639D01*
X22526Y-18792D01*
X22618Y-18830D01*
X22527Y-18868D01*
X22374Y-19021D01*
X22291Y-19221D01*
X22290Y-19438D01*
X22373Y-19639D01*
X22526Y-19792D01*
X22727Y-19875D01*
X22944Y-19876D01*
X23092Y-19814D01*
X23092Y-21130D01*
X23136Y-21350D01*
X23136Y-22180D01*
X23174Y-22272D01*
X23244Y-22342D01*
X23336Y-22380D01*
X23435Y-22380D01*
X24135Y-22380D01*
X24227Y-22342D01*
X24298Y-22272D01*
X24336Y-22180D01*
X24336Y-22081D01*
X24336Y-21350D01*
X24379Y-21130D01*
X24379Y-18347D01*
X24903Y-17824D01*
X25540Y-17824D01*
X25540Y-21112D01*
X26142Y-21112D01*
X26142Y-21230D01*
X26142Y-21230D01*
X26163Y-21336D01*
X26145Y-21318D01*
X25945Y-21235D01*
X25728Y-21235D01*
X25527Y-21318D01*
X25374Y-21471D01*
X25291Y-21671D01*
X25290Y-21888D01*
X25373Y-22089D01*
X25526Y-22242D01*
X25727Y-22325D01*
X25944Y-22326D01*
X26144Y-22243D01*
X26298Y-22089D01*
X26313Y-22054D01*
X26698Y-22054D01*
X27330Y-22685D01*
X27330Y-22685D01*
X27539Y-22825D01*
X27539Y-22825D01*
X27785Y-22874D01*
X30758Y-22874D01*
X35286Y-22874D01*
X40036Y-22874D01*
X40036Y-22874D01*
X40036Y-22874D01*
X40282Y-22825D01*
X40282Y-22825D01*
X40491Y-22685D01*
X44902Y-18274D01*
X46951Y-18274D01*
X46951Y-18518D01*
X47014Y-18580D01*
X48136Y-18580D01*
X48136Y-18572D01*
X48236Y-18572D01*
X48236Y-18580D01*
X49357Y-18580D01*
X49420Y-18518D01*
X49420Y-18187D01*
X49417Y-18180D01*
X49432Y-18166D01*
X49470Y-18074D01*
X49470Y-17974D01*
X49470Y-19540D01*
X49420Y-19540D01*
X49420Y-19073D01*
X49420Y-18743D01*
X49357Y-18680D01*
X48236Y-18680D01*
X48236Y-19211D01*
X48298Y-19274D01*
X49120Y-19274D01*
X49220Y-19274D01*
X49312Y-19236D01*
X49382Y-19165D01*
X49420Y-19073D01*
X49420Y-19540D01*
X48848Y-19540D01*
X48786Y-19602D01*
X48786Y-20330D01*
X49711Y-20330D01*
X49773Y-20268D01*
X49773Y-19740D01*
X49773Y-21020D01*
X49773Y-20493D01*
X49711Y-20430D01*
X48786Y-20430D01*
X48786Y-21158D01*
X48848Y-21221D01*
X49474Y-21221D01*
X49573Y-21221D01*
X49665Y-21183D01*
X49735Y-21112D01*
X49773Y-21020D01*
X49773Y-21490D01*
X49735Y-21398D01*
X49665Y-21328D01*
X49573Y-21290D01*
X49474Y-21290D01*
X48686Y-21290D01*
X48686Y-21158D01*
X48686Y-20430D01*
X48686Y-20330D01*
X48686Y-19602D01*
X48623Y-19540D01*
X48136Y-19540D01*
X48136Y-19211D01*
X48136Y-18680D01*
X47014Y-18680D01*
X46951Y-18743D01*
X46951Y-19073D01*
X46989Y-19165D01*
X47060Y-19236D01*
X47152Y-19274D01*
X47251Y-19274D01*
X48073Y-19274D01*
X48136Y-19211D01*
X48136Y-19540D01*
X47998Y-19540D01*
X47898Y-19540D01*
X47807Y-19578D01*
X47736Y-19648D01*
X47698Y-19740D01*
X47698Y-20268D01*
X47761Y-20330D01*
X48686Y-20330D01*
X48686Y-20430D01*
X47761Y-20430D01*
X47698Y-20493D01*
X47698Y-21020D01*
X47736Y-21112D01*
X47807Y-21183D01*
X47898Y-21221D01*
X47998Y-21221D01*
X48623Y-21221D01*
X48686Y-21158D01*
X48686Y-21290D01*
X47899Y-21290D01*
X47807Y-21328D01*
X47737Y-21398D01*
X47698Y-21490D01*
X47698Y-21589D01*
X47698Y-22770D01*
X47736Y-22862D01*
X47807Y-22933D01*
X47898Y-22971D01*
X47998Y-22971D01*
X49573Y-22971D01*
X49665Y-22933D01*
X49735Y-22863D01*
X49773Y-22771D01*
X49773Y-22671D01*
X49773Y-23746D01*
X35286Y-23746D01*
X30758Y-23746D01*
X21736Y-23746D01*
X21736Y-22081D01*
X21736Y-20081D01*
X21698Y-19989D01*
X21628Y-19918D01*
X21536Y-19880D01*
X21436Y-19880D01*
X20736Y-19880D01*
X20644Y-19918D01*
X20574Y-19988D01*
X20536Y-20080D01*
X20536Y-20180D01*
X20536Y-20585D01*
X20528Y-20585D01*
X20468Y-20525D01*
X20376Y-20487D01*
X20281Y-20486D01*
X20281Y-19222D01*
X20198Y-19022D01*
X20045Y-18868D01*
X19953Y-18830D01*
X20044Y-18793D01*
X20198Y-18639D01*
X20281Y-18439D01*
X20281Y-18222D01*
X20198Y-18022D01*
X20045Y-17868D01*
X19953Y-17830D01*
X20044Y-17793D01*
X20198Y-17639D01*
X20281Y-17439D01*
X20281Y-17222D01*
X20198Y-17022D01*
X20045Y-16868D01*
X19953Y-16830D01*
X20044Y-16793D01*
X20198Y-16639D01*
X20281Y-16439D01*
X20281Y-16222D01*
X20198Y-16022D01*
X20045Y-15868D01*
X19953Y-15830D01*
X20044Y-15793D01*
X20198Y-15639D01*
X20281Y-15439D01*
X20281Y-15222D01*
X20198Y-15022D01*
X20045Y-14868D01*
X19953Y-14830D01*
X20044Y-14793D01*
X20198Y-14639D01*
X20281Y-14439D01*
X20281Y-14222D01*
X20198Y-14022D01*
X20045Y-13868D01*
X19845Y-13785D01*
X19628Y-13785D01*
X19427Y-13868D01*
X19274Y-14021D01*
X19191Y-14221D01*
X19190Y-14438D01*
X19273Y-14639D01*
X19426Y-14792D01*
X19518Y-14830D01*
X19427Y-14868D01*
X19274Y-15021D01*
X19191Y-15221D01*
X19190Y-15438D01*
X19273Y-15639D01*
X19426Y-15792D01*
X19518Y-15830D01*
X19427Y-15868D01*
X19274Y-16021D01*
X19191Y-16221D01*
X19190Y-16438D01*
X19273Y-16639D01*
X19426Y-16792D01*
X19518Y-16830D01*
X19427Y-16868D01*
X19274Y-17021D01*
X19191Y-17221D01*
X19190Y-17438D01*
X19273Y-17639D01*
X19426Y-17792D01*
X19518Y-17830D01*
X19427Y-17868D01*
X19274Y-18021D01*
X19191Y-18221D01*
X19190Y-18438D01*
X19273Y-18639D01*
X19426Y-18792D01*
X19518Y-18830D01*
X19427Y-18868D01*
X19274Y-19021D01*
X19191Y-19221D01*
X19190Y-19438D01*
X19273Y-19639D01*
X19426Y-19792D01*
X19627Y-19875D01*
X19844Y-19876D01*
X20044Y-19793D01*
X20198Y-19639D01*
X20281Y-19439D01*
X20281Y-19222D01*
X20281Y-20486D01*
X20277Y-20486D01*
X19096Y-20486D01*
X19004Y-20524D01*
X18933Y-20595D01*
X18895Y-20687D01*
X18895Y-20786D01*
X18895Y-21573D01*
X18919Y-21630D01*
X18895Y-21687D01*
X18895Y-21786D01*
X18895Y-22573D01*
X18933Y-22665D01*
X19003Y-22736D01*
X19095Y-22774D01*
X19195Y-22774D01*
X20376Y-22774D01*
X20468Y-22736D01*
X20538Y-22666D01*
X20576Y-22574D01*
X20576Y-22474D01*
X20576Y-22274D01*
X20644Y-22342D01*
X20736Y-22380D01*
X20835Y-22380D01*
X21535Y-22380D01*
X21627Y-22342D01*
X21698Y-22272D01*
X21736Y-22180D01*
X21736Y-22081D01*
X21736Y-23746D01*
X17784Y-23746D01*
X17784Y-20131D01*
X17784Y-20078D01*
X17784Y-20026D01*
X17784Y-16587D01*
X17784Y-16535D01*
X17784Y-16483D01*
X17784Y-16482D01*
X17784Y-16482D01*
X17739Y-16256D01*
X17698Y-16159D01*
X17698Y-16158D01*
X17571Y-15968D01*
X17570Y-15967D01*
X17496Y-15893D01*
X17304Y-15765D01*
X17207Y-15725D01*
X17206Y-15725D01*
X16982Y-15680D01*
X16981Y-15680D01*
X16876Y-15680D01*
X16650Y-15725D01*
X16553Y-15765D01*
X16552Y-15766D01*
X16362Y-15893D01*
X16361Y-15893D01*
X16287Y-15968D01*
X16159Y-16159D01*
X16118Y-16257D01*
X16118Y-16258D01*
X16074Y-16482D01*
X16074Y-16482D01*
X16074Y-16483D01*
X16074Y-16535D01*
X16074Y-16587D01*
X16074Y-16588D01*
X16074Y-16588D01*
X16118Y-16812D01*
X16118Y-16813D01*
X16159Y-16911D01*
X16287Y-17102D01*
X16361Y-17177D01*
X16362Y-17177D01*
X16552Y-17304D01*
X16553Y-17305D01*
X16650Y-17345D01*
X16876Y-17390D01*
X16981Y-17390D01*
X16982Y-17390D01*
X17206Y-17345D01*
X17207Y-17345D01*
X17304Y-17305D01*
X17496Y-17177D01*
X17570Y-17103D01*
X17571Y-17102D01*
X17698Y-16912D01*
X17698Y-16911D01*
X17739Y-16814D01*
X17784Y-16588D01*
X17784Y-16587D01*
X17784Y-16587D01*
X17784Y-20026D01*
X17784Y-20026D01*
X17784Y-20025D01*
X17739Y-19799D01*
X17698Y-19702D01*
X17698Y-19702D01*
X17571Y-19511D01*
X17570Y-19510D01*
X17496Y-19436D01*
X17304Y-19308D01*
X17207Y-19268D01*
X17206Y-19268D01*
X16982Y-19223D01*
X16981Y-19223D01*
X16876Y-19223D01*
X16650Y-19268D01*
X16553Y-19309D01*
X16552Y-19309D01*
X16362Y-19436D01*
X16361Y-19436D01*
X16287Y-19511D01*
X16159Y-19703D01*
X16118Y-19800D01*
X16118Y-19801D01*
X16074Y-20025D01*
X16074Y-20026D01*
X16074Y-20026D01*
X16074Y-20078D01*
X16074Y-20131D01*
X16074Y-20131D01*
X16074Y-20131D01*
X16118Y-20356D01*
X16118Y-20357D01*
X16159Y-20454D01*
X16287Y-20646D01*
X16361Y-20720D01*
X16362Y-20720D01*
X16552Y-20847D01*
X16553Y-20848D01*
X16650Y-20888D01*
X16876Y-20933D01*
X16981Y-20934D01*
X16982Y-20933D01*
X17206Y-20888D01*
X17207Y-20888D01*
X17304Y-20848D01*
X17496Y-20720D01*
X17570Y-20646D01*
X17571Y-20645D01*
X17698Y-20455D01*
X17698Y-20454D01*
X17739Y-20357D01*
X17784Y-20131D01*
X17784Y-20131D01*
X17784Y-20131D01*
X17784Y-23746D01*
X16017Y-23746D01*
X16017Y-12868D01*
X52879Y-12868D01*
X52879Y-15872D01*
X52857Y-15872D01*
X52857Y-14970D01*
X52826Y-14730D01*
X52826Y-14729D01*
X52793Y-14630D01*
X52673Y-14419D01*
X52673Y-14419D01*
X52604Y-14339D01*
X52412Y-14190D01*
X52412Y-14190D01*
X52318Y-14143D01*
X52084Y-14079D01*
X52083Y-14079D01*
X51978Y-14072D01*
X51738Y-14102D01*
X51737Y-14102D01*
X51638Y-14135D01*
X51427Y-14255D01*
X51426Y-14256D01*
X51347Y-14325D01*
X51198Y-14516D01*
X51198Y-14516D01*
X51151Y-14611D01*
X51087Y-14845D01*
X51083Y-14897D01*
X51080Y-14950D01*
X51110Y-15190D01*
X51110Y-15191D01*
X51143Y-15291D01*
X51263Y-15501D01*
X51263Y-15502D01*
X51332Y-15581D01*
X51524Y-15730D01*
X51524Y-15730D01*
X51618Y-15777D01*
X51852Y-15841D01*
X51853Y-15841D01*
X51958Y-15849D01*
X52198Y-15818D01*
X52199Y-15818D01*
X52298Y-15785D01*
X52509Y-15665D01*
X52509Y-15665D01*
X52589Y-15596D01*
X52738Y-15404D01*
X52738Y-15404D01*
X52785Y-15310D01*
X52849Y-15076D01*
X52849Y-15075D01*
X52857Y-14970D01*
X52857Y-15872D01*
X50393Y-15872D01*
X50290Y-15892D01*
X50287Y-15894D01*
X50146Y-15894D01*
X50146Y-16035D01*
X50144Y-16038D01*
X50124Y-16141D01*
X50124Y-20472D01*
X50144Y-20575D01*
X50146Y-20579D01*
X50146Y-20719D01*
X50287Y-20719D01*
X50290Y-20721D01*
X50393Y-20742D01*
X52879Y-20742D01*
X52879Y-23746D01*
X52879Y-23746D01*
G37*
G54D28*
X52879Y-23746D02*
X52823Y-23746D01*
X52823Y-21705D01*
X52823Y-21653D01*
X52823Y-21601D01*
X52823Y-21600D01*
X52823Y-21600D01*
X52778Y-21374D01*
X52738Y-21277D01*
X52737Y-21276D01*
X52610Y-21086D01*
X52610Y-21085D01*
X52535Y-21011D01*
X52344Y-20883D01*
X52246Y-20843D01*
X52245Y-20843D01*
X52021Y-20798D01*
X52020Y-20798D01*
X51915Y-20798D01*
X51689Y-20843D01*
X51592Y-20883D01*
X51591Y-20884D01*
X51401Y-21011D01*
X51400Y-21011D01*
X51326Y-21086D01*
X51198Y-21277D01*
X51158Y-21375D01*
X51158Y-21376D01*
X51113Y-21600D01*
X51113Y-21600D01*
X51113Y-21601D01*
X51113Y-21653D01*
X51113Y-21705D01*
X51113Y-21706D01*
X51113Y-21706D01*
X51158Y-21930D01*
X51158Y-21931D01*
X51198Y-22029D01*
X51326Y-22220D01*
X51400Y-22295D01*
X51401Y-22295D01*
X51591Y-22422D01*
X51592Y-22423D01*
X51689Y-22463D01*
X51915Y-22508D01*
X52020Y-22508D01*
X52021Y-22508D01*
X52245Y-22463D01*
X52246Y-22463D01*
X52344Y-22423D01*
X52535Y-22295D01*
X52610Y-22221D01*
X52610Y-22220D01*
X52737Y-22030D01*
X52738Y-22029D01*
X52778Y-21932D01*
X52823Y-21706D01*
X52823Y-21706D01*
X52823Y-21705D01*
X52823Y-23746D01*
X49773Y-23746D01*
X49773Y-22671D01*
X49773Y-21490D01*
X49773Y-21020D01*
X49773Y-19740D01*
X49735Y-19648D01*
X49665Y-19578D01*
X49573Y-19540D01*
X49474Y-19540D01*
X49470Y-19540D01*
X49470Y-17974D01*
X49470Y-17187D01*
X49432Y-17095D01*
X49362Y-17025D01*
X49270Y-16987D01*
X49248Y-16987D01*
X49261Y-16955D01*
X49261Y-16856D01*
X49261Y-16306D01*
X49223Y-16214D01*
X49153Y-16143D01*
X49061Y-16105D01*
X48961Y-16105D01*
X48411Y-16105D01*
X48319Y-16143D01*
X48249Y-16213D01*
X48211Y-16305D01*
X48211Y-16405D01*
X48211Y-16955D01*
X48224Y-16986D01*
X47202Y-16986D01*
X47202Y-16987D01*
X45785Y-16987D01*
X43682Y-14884D01*
X43569Y-14808D01*
X43547Y-14804D01*
X43436Y-14782D01*
X43436Y-14782D01*
X43386Y-14782D01*
X43286Y-14782D01*
X43286Y-14211D01*
X43275Y-13994D01*
X43213Y-13845D01*
X43118Y-13818D01*
X43047Y-13889D01*
X43047Y-13748D01*
X43021Y-13653D01*
X42816Y-13580D01*
X42600Y-13591D01*
X42451Y-13653D01*
X42424Y-13748D01*
X42736Y-14059D01*
X43047Y-13748D01*
X43047Y-13889D01*
X42806Y-14130D01*
X43118Y-14442D01*
X43213Y-14415D01*
X43286Y-14211D01*
X43286Y-14782D01*
X43158Y-14782D01*
X43045Y-14668D01*
X42960Y-14633D01*
X43021Y-14608D01*
X43047Y-14513D01*
X42736Y-14201D01*
X42424Y-14513D01*
X42451Y-14608D01*
X42516Y-14631D01*
X42427Y-14668D01*
X42313Y-14782D01*
X42158Y-14782D01*
X42045Y-14668D01*
X42014Y-14655D01*
X42060Y-14655D01*
X42152Y-14617D01*
X42223Y-14547D01*
X42261Y-14455D01*
X42261Y-14416D01*
X42353Y-14442D01*
X42665Y-14130D01*
X42353Y-13818D01*
X42261Y-13845D01*
X42261Y-13805D01*
X42223Y-13713D01*
X42152Y-13643D01*
X42060Y-13605D01*
X41848Y-13605D01*
X41786Y-13668D01*
X41786Y-14080D01*
X41794Y-14080D01*
X41794Y-14180D01*
X41786Y-14180D01*
X41786Y-14188D01*
X41686Y-14188D01*
X41686Y-14180D01*
X41686Y-14080D01*
X41686Y-13668D01*
X41623Y-13605D01*
X41411Y-13605D01*
X41319Y-13643D01*
X41249Y-13713D01*
X41211Y-13805D01*
X41211Y-13905D01*
X41211Y-14018D01*
X41273Y-14080D01*
X41686Y-14080D01*
X41686Y-14180D01*
X41273Y-14180D01*
X41211Y-14243D01*
X41211Y-14356D01*
X41211Y-14455D01*
X41249Y-14547D01*
X41319Y-14617D01*
X41411Y-14655D01*
X41457Y-14655D01*
X41427Y-14668D01*
X41274Y-14821D01*
X41191Y-15021D01*
X41190Y-15238D01*
X41273Y-15439D01*
X41426Y-15592D01*
X41518Y-15630D01*
X41427Y-15668D01*
X41274Y-15821D01*
X41191Y-16021D01*
X41190Y-16238D01*
X41273Y-16439D01*
X41426Y-16592D01*
X41627Y-16675D01*
X41844Y-16676D01*
X42044Y-16593D01*
X42198Y-16439D01*
X42236Y-16348D01*
X42273Y-16439D01*
X42426Y-16592D01*
X42627Y-16675D01*
X42844Y-16676D01*
X43044Y-16593D01*
X43198Y-16439D01*
X43281Y-16239D01*
X43281Y-16022D01*
X43198Y-15822D01*
X43045Y-15668D01*
X42953Y-15630D01*
X43044Y-15593D01*
X43158Y-15479D01*
X43291Y-15479D01*
X44799Y-16987D01*
X44636Y-16987D01*
X44389Y-17036D01*
X44306Y-17091D01*
X44181Y-17175D01*
X44181Y-17175D01*
X39769Y-21587D01*
X35286Y-21587D01*
X33884Y-21587D01*
X33884Y-20271D01*
X34389Y-20777D01*
X34389Y-20777D01*
X34502Y-20852D01*
X34636Y-20879D01*
X35286Y-20879D01*
X36236Y-20879D01*
X36236Y-20879D01*
X36236Y-20879D01*
X36347Y-20857D01*
X36369Y-20852D01*
X36369Y-20852D01*
X36482Y-20777D01*
X37482Y-19777D01*
X37482Y-19777D01*
X37482Y-19777D01*
X37558Y-19664D01*
X37584Y-19530D01*
X37584Y-19353D01*
X37698Y-19239D01*
X37762Y-19083D01*
X37762Y-19276D01*
X39011Y-19276D01*
X39011Y-15284D01*
X37762Y-15284D01*
X37762Y-15777D01*
X37698Y-15622D01*
X37545Y-15468D01*
X37345Y-15385D01*
X37128Y-15385D01*
X36927Y-15468D01*
X36774Y-15621D01*
X36736Y-15712D01*
X36698Y-15622D01*
X36545Y-15468D01*
X36345Y-15385D01*
X36128Y-15385D01*
X35927Y-15468D01*
X35774Y-15621D01*
X35691Y-15821D01*
X35690Y-16038D01*
X35773Y-16239D01*
X35926Y-16392D01*
X36018Y-16430D01*
X35927Y-16468D01*
X35774Y-16621D01*
X35691Y-16821D01*
X35690Y-17038D01*
X35773Y-17239D01*
X35926Y-17392D01*
X36018Y-17430D01*
X35927Y-17468D01*
X35774Y-17621D01*
X35691Y-17821D01*
X35690Y-18038D01*
X35773Y-18239D01*
X35926Y-18392D01*
X36012Y-18428D01*
X35951Y-18453D01*
X35924Y-18548D01*
X36236Y-18859D01*
X36547Y-18548D01*
X36521Y-18453D01*
X36455Y-18430D01*
X36544Y-18393D01*
X36698Y-18239D01*
X36736Y-18148D01*
X36773Y-18239D01*
X36926Y-18392D01*
X37018Y-18430D01*
X36927Y-18468D01*
X36774Y-18621D01*
X36738Y-18706D01*
X36713Y-18645D01*
X36618Y-18618D01*
X36306Y-18930D01*
X36618Y-19242D01*
X36713Y-19215D01*
X36736Y-19150D01*
X36773Y-19239D01*
X36887Y-19353D01*
X36887Y-19386D01*
X36547Y-19726D01*
X36547Y-19313D01*
X36236Y-19001D01*
X36165Y-19072D01*
X36165Y-18930D01*
X35853Y-18618D01*
X35758Y-18645D01*
X35686Y-18850D01*
X35697Y-19066D01*
X35758Y-19215D01*
X35853Y-19242D01*
X36165Y-18930D01*
X36165Y-19072D01*
X35924Y-19313D01*
X35951Y-19408D01*
X36155Y-19480D01*
X36372Y-19469D01*
X36521Y-19408D01*
X36547Y-19313D01*
X36547Y-19726D01*
X36091Y-20182D01*
X35286Y-20182D01*
X35255Y-20182D01*
X35286Y-20151D01*
X35298Y-20139D01*
X35381Y-19939D01*
X35381Y-19722D01*
X35298Y-19522D01*
X35286Y-19509D01*
X35186Y-19409D01*
X35186Y-18581D01*
X35186Y-18343D01*
X35123Y-18280D01*
X34786Y-18280D01*
X34786Y-18818D01*
X34848Y-18880D01*
X34985Y-18880D01*
X35077Y-18842D01*
X35148Y-18772D01*
X35186Y-18680D01*
X35186Y-18581D01*
X35186Y-19409D01*
X35145Y-19368D01*
X34945Y-19285D01*
X34728Y-19285D01*
X34527Y-19368D01*
X34384Y-19511D01*
X34384Y-18930D01*
X34360Y-18808D01*
X34394Y-18842D01*
X34486Y-18880D01*
X34623Y-18880D01*
X34686Y-18818D01*
X34686Y-18280D01*
X34678Y-18280D01*
X34678Y-18180D01*
X34686Y-18180D01*
X34686Y-18172D01*
X34786Y-18172D01*
X34786Y-18180D01*
X35123Y-18180D01*
X35186Y-18118D01*
X35186Y-17880D01*
X35186Y-17780D01*
X35180Y-17766D01*
X35286Y-17766D01*
X35286Y-16091D01*
X34801Y-16091D01*
X34806Y-16080D01*
X34806Y-15981D01*
X34806Y-15181D01*
X34768Y-15089D01*
X34698Y-15018D01*
X34606Y-14980D01*
X34506Y-14980D01*
X33066Y-14980D01*
X32974Y-15018D01*
X32904Y-15088D01*
X32866Y-15180D01*
X32866Y-15280D01*
X32866Y-16080D01*
X32870Y-16091D01*
X32430Y-16091D01*
X32430Y-17766D01*
X32492Y-17766D01*
X32486Y-17780D01*
X32486Y-17880D01*
X32486Y-18680D01*
X32524Y-18772D01*
X32587Y-18835D01*
X32587Y-18980D01*
X32587Y-18980D01*
X32609Y-19091D01*
X32614Y-19114D01*
X32689Y-19227D01*
X33187Y-19725D01*
X33187Y-21587D01*
X32711Y-21587D01*
X32711Y-20906D01*
X32711Y-20555D01*
X32711Y-20455D01*
X32673Y-20363D01*
X32602Y-20293D01*
X32510Y-20255D01*
X32448Y-20255D01*
X32386Y-20318D01*
X32386Y-20680D01*
X32648Y-20680D01*
X32711Y-20618D01*
X32711Y-20555D01*
X32711Y-20906D01*
X32711Y-20843D01*
X32648Y-20780D01*
X32386Y-20780D01*
X32386Y-21143D01*
X32448Y-21205D01*
X32510Y-21205D01*
X32602Y-21167D01*
X32673Y-21097D01*
X32711Y-21005D01*
X32711Y-20906D01*
X32711Y-21587D01*
X31072Y-21587D01*
X31485Y-21174D01*
X31561Y-21205D01*
X31660Y-21205D01*
X31910Y-21205D01*
X32002Y-21167D01*
X32036Y-21134D01*
X32069Y-21167D01*
X32161Y-21205D01*
X32223Y-21205D01*
X32286Y-21143D01*
X32286Y-20780D01*
X32278Y-20780D01*
X32278Y-20680D01*
X32286Y-20680D01*
X32286Y-20318D01*
X32223Y-20255D01*
X32182Y-20255D01*
X32298Y-20139D01*
X32381Y-19939D01*
X32381Y-19722D01*
X32298Y-19522D01*
X32145Y-19368D01*
X31945Y-19285D01*
X31728Y-19285D01*
X31527Y-19368D01*
X31374Y-19521D01*
X31291Y-19721D01*
X31290Y-19938D01*
X31373Y-20139D01*
X31510Y-20276D01*
X31469Y-20293D01*
X31399Y-20363D01*
X31387Y-20391D01*
X31387Y-20391D01*
X31302Y-20408D01*
X31189Y-20484D01*
X31189Y-20484D01*
X30758Y-20915D01*
X30758Y-15894D01*
X30382Y-15894D01*
X30382Y-15777D01*
X31082Y-15077D01*
X31082Y-15077D01*
X31082Y-15077D01*
X31158Y-14964D01*
X31184Y-14830D01*
X31184Y-14253D01*
X31298Y-14139D01*
X31336Y-14048D01*
X31373Y-14139D01*
X31526Y-14292D01*
X31727Y-14375D01*
X31944Y-14376D01*
X32144Y-14293D01*
X32298Y-14139D01*
X32336Y-14048D01*
X32373Y-14139D01*
X32526Y-14292D01*
X32727Y-14375D01*
X32944Y-14376D01*
X33144Y-14293D01*
X33298Y-14139D01*
X33336Y-14048D01*
X33373Y-14139D01*
X33526Y-14292D01*
X33727Y-14375D01*
X33944Y-14376D01*
X34144Y-14293D01*
X34298Y-14139D01*
X34336Y-14048D01*
X34373Y-14139D01*
X34526Y-14292D01*
X34727Y-14375D01*
X34944Y-14376D01*
X35144Y-14293D01*
X35298Y-14139D01*
X35381Y-13939D01*
X35381Y-13722D01*
X35298Y-13522D01*
X35145Y-13368D01*
X34945Y-13285D01*
X34728Y-13285D01*
X34527Y-13368D01*
X34374Y-13521D01*
X34336Y-13612D01*
X34298Y-13522D01*
X34145Y-13368D01*
X33945Y-13285D01*
X33728Y-13285D01*
X33527Y-13368D01*
X33374Y-13521D01*
X33336Y-13612D01*
X33298Y-13522D01*
X33145Y-13368D01*
X32945Y-13285D01*
X32728Y-13285D01*
X32527Y-13368D01*
X32374Y-13521D01*
X32336Y-13612D01*
X32298Y-13522D01*
X32145Y-13368D01*
X31945Y-13285D01*
X31728Y-13285D01*
X31527Y-13368D01*
X31374Y-13521D01*
X31336Y-13612D01*
X31298Y-13522D01*
X31145Y-13368D01*
X30945Y-13285D01*
X30728Y-13285D01*
X30527Y-13368D01*
X30374Y-13521D01*
X30336Y-13612D01*
X30298Y-13522D01*
X30145Y-13368D01*
X29945Y-13285D01*
X29728Y-13285D01*
X29527Y-13368D01*
X29374Y-13521D01*
X29336Y-13612D01*
X29298Y-13522D01*
X29145Y-13368D01*
X28945Y-13285D01*
X28728Y-13285D01*
X28527Y-13368D01*
X28374Y-13521D01*
X28338Y-13606D01*
X28313Y-13545D01*
X28218Y-13518D01*
X28147Y-13589D01*
X28147Y-13448D01*
X28121Y-13353D01*
X27916Y-13280D01*
X27700Y-13291D01*
X27551Y-13353D01*
X27524Y-13448D01*
X27836Y-13759D01*
X28147Y-13448D01*
X28147Y-13589D01*
X27906Y-13830D01*
X28218Y-14142D01*
X28313Y-14115D01*
X28336Y-14050D01*
X28373Y-14139D01*
X28526Y-14292D01*
X28535Y-14296D01*
X28535Y-14296D01*
X28560Y-14333D01*
X28445Y-14285D01*
X28228Y-14285D01*
X28147Y-14318D01*
X28147Y-14213D01*
X27836Y-13901D01*
X27765Y-13972D01*
X27765Y-13830D01*
X27453Y-13518D01*
X27358Y-13545D01*
X27335Y-13611D01*
X27298Y-13522D01*
X27145Y-13368D01*
X26945Y-13285D01*
X26728Y-13285D01*
X26527Y-13368D01*
X26374Y-13521D01*
X26291Y-13721D01*
X26290Y-13938D01*
X26373Y-14139D01*
X26526Y-14292D01*
X26727Y-14375D01*
X26944Y-14376D01*
X27144Y-14293D01*
X27298Y-14139D01*
X27333Y-14054D01*
X27358Y-14115D01*
X27453Y-14142D01*
X27765Y-13830D01*
X27765Y-13972D01*
X27524Y-14213D01*
X27551Y-14308D01*
X27755Y-14380D01*
X27972Y-14369D01*
X28121Y-14308D01*
X28147Y-14213D01*
X28147Y-14318D01*
X28027Y-14368D01*
X27874Y-14521D01*
X27836Y-14612D01*
X27798Y-14522D01*
X27645Y-14368D01*
X27445Y-14285D01*
X27228Y-14285D01*
X27027Y-14368D01*
X26874Y-14521D01*
X26791Y-14721D01*
X26790Y-14938D01*
X26873Y-15139D01*
X27026Y-15292D01*
X27227Y-15375D01*
X27444Y-15376D01*
X27644Y-15293D01*
X27798Y-15139D01*
X27836Y-15048D01*
X27873Y-15139D01*
X28026Y-15292D01*
X28136Y-15338D01*
X27989Y-15484D01*
X27989Y-15484D01*
X27889Y-15584D01*
X27814Y-15697D01*
X27809Y-15719D01*
X27787Y-15830D01*
X27787Y-15830D01*
X27787Y-15894D01*
X25540Y-15894D01*
X25540Y-16536D01*
X25386Y-16536D01*
X25386Y-13911D01*
X25375Y-13694D01*
X25313Y-13545D01*
X25218Y-13518D01*
X25147Y-13589D01*
X25147Y-13448D01*
X25121Y-13353D01*
X24916Y-13280D01*
X24700Y-13291D01*
X24551Y-13353D01*
X24524Y-13448D01*
X24836Y-13759D01*
X25147Y-13448D01*
X25147Y-13589D01*
X24906Y-13830D01*
X25218Y-14142D01*
X25313Y-14115D01*
X25386Y-13911D01*
X25386Y-16536D01*
X25147Y-16536D01*
X25147Y-14213D01*
X24836Y-13901D01*
X24765Y-13972D01*
X24765Y-13830D01*
X24453Y-13518D01*
X24358Y-13545D01*
X24335Y-13611D01*
X24298Y-13522D01*
X24145Y-13368D01*
X23945Y-13285D01*
X23728Y-13285D01*
X23527Y-13368D01*
X23374Y-13521D01*
X23291Y-13721D01*
X23290Y-13938D01*
X23373Y-14139D01*
X23526Y-14292D01*
X23727Y-14375D01*
X23944Y-14376D01*
X24144Y-14293D01*
X24298Y-14139D01*
X24333Y-14054D01*
X24358Y-14115D01*
X24453Y-14142D01*
X24765Y-13830D01*
X24765Y-13972D01*
X24524Y-14213D01*
X24551Y-14308D01*
X24755Y-14380D01*
X24972Y-14369D01*
X25121Y-14308D01*
X25147Y-14213D01*
X25147Y-16536D01*
X24636Y-16536D01*
X24390Y-16585D01*
X24181Y-16725D01*
X24181Y-16725D01*
X23320Y-17585D01*
X23381Y-17439D01*
X23381Y-17222D01*
X23298Y-17022D01*
X23145Y-16868D01*
X23053Y-16830D01*
X23144Y-16793D01*
X23298Y-16639D01*
X23381Y-16439D01*
X23381Y-16222D01*
X23298Y-16022D01*
X23145Y-15868D01*
X23053Y-15830D01*
X23144Y-15793D01*
X23298Y-15639D01*
X23381Y-15439D01*
X23381Y-15222D01*
X23298Y-15022D01*
X23145Y-14868D01*
X23053Y-14830D01*
X23144Y-14793D01*
X23298Y-14639D01*
X23381Y-14439D01*
X23381Y-14222D01*
X23298Y-14022D01*
X23145Y-13868D01*
X22945Y-13785D01*
X22728Y-13785D01*
X22527Y-13868D01*
X22374Y-14021D01*
X22291Y-14221D01*
X22290Y-14438D01*
X22373Y-14639D01*
X22526Y-14792D01*
X22618Y-14830D01*
X22527Y-14868D01*
X22374Y-15021D01*
X22291Y-15221D01*
X22290Y-15438D01*
X22373Y-15639D01*
X22526Y-15792D01*
X22618Y-15830D01*
X22527Y-15868D01*
X22374Y-16021D01*
X22291Y-16221D01*
X22290Y-16438D01*
X22373Y-16639D01*
X22526Y-16792D01*
X22618Y-16830D01*
X22527Y-16868D01*
X22374Y-17021D01*
X22291Y-17221D01*
X22290Y-17438D01*
X22373Y-17639D01*
X22526Y-17792D01*
X22618Y-17830D01*
X22527Y-17868D01*
X22374Y-18021D01*
X22291Y-18221D01*
X22290Y-18438D01*
X22373Y-18639D01*
X22526Y-18792D01*
X22618Y-18830D01*
X22527Y-18868D01*
X22374Y-19021D01*
X22291Y-19221D01*
X22290Y-19438D01*
X22373Y-19639D01*
X22526Y-19792D01*
X22727Y-19875D01*
X22944Y-19876D01*
X23092Y-19814D01*
X23092Y-21130D01*
X23136Y-21350D01*
X23136Y-22180D01*
X23174Y-22272D01*
X23244Y-22342D01*
X23336Y-22380D01*
X23435Y-22380D01*
X24135Y-22380D01*
X24227Y-22342D01*
X24298Y-22272D01*
X24336Y-22180D01*
X24336Y-22081D01*
X24336Y-21350D01*
X24379Y-21130D01*
X24379Y-18347D01*
X24903Y-17824D01*
X25540Y-17824D01*
X25540Y-21112D01*
X26142Y-21112D01*
X26142Y-21230D01*
X26142Y-21230D01*
X26163Y-21336D01*
X26145Y-21318D01*
X25945Y-21235D01*
X25728Y-21235D01*
X25527Y-21318D01*
X25374Y-21471D01*
X25291Y-21671D01*
X25290Y-21888D01*
X25373Y-22089D01*
X25526Y-22242D01*
X25727Y-22325D01*
X25944Y-22326D01*
X26144Y-22243D01*
X26298Y-22089D01*
X26313Y-22054D01*
X26698Y-22054D01*
X27330Y-22685D01*
X27330Y-22685D01*
X27539Y-22825D01*
X27539Y-22825D01*
X27785Y-22874D01*
X30758Y-22874D01*
X35286Y-22874D01*
X40036Y-22874D01*
X40036Y-22874D01*
X40036Y-22874D01*
X40282Y-22825D01*
X40282Y-22825D01*
X40491Y-22685D01*
X44902Y-18274D01*
X46951Y-18274D01*
X46951Y-18518D01*
X47014Y-18580D01*
X48136Y-18580D01*
X48136Y-18572D01*
X48236Y-18572D01*
X48236Y-18580D01*
X49357Y-18580D01*
X49420Y-18518D01*
X49420Y-18187D01*
X49417Y-18180D01*
X49432Y-18166D01*
X49470Y-18074D01*
X49470Y-17974D01*
X49470Y-19540D01*
X49420Y-19540D01*
X49420Y-19073D01*
X49420Y-18743D01*
X49357Y-18680D01*
X48236Y-18680D01*
X48236Y-19211D01*
X48298Y-19274D01*
X49120Y-19274D01*
X49220Y-19274D01*
X49312Y-19236D01*
X49382Y-19165D01*
X49420Y-19073D01*
X49420Y-19540D01*
X48848Y-19540D01*
X48786Y-19602D01*
X48786Y-20330D01*
X49711Y-20330D01*
X49773Y-20268D01*
X49773Y-19740D01*
X49773Y-21020D01*
X49773Y-20493D01*
X49711Y-20430D01*
X48786Y-20430D01*
X48786Y-21158D01*
X48848Y-21221D01*
X49474Y-21221D01*
X49573Y-21221D01*
X49665Y-21183D01*
X49735Y-21112D01*
X49773Y-21020D01*
X49773Y-21490D01*
X49735Y-21398D01*
X49665Y-21328D01*
X49573Y-21290D01*
X49474Y-21290D01*
X48686Y-21290D01*
X48686Y-21158D01*
X48686Y-20430D01*
X48686Y-20330D01*
X48686Y-19602D01*
X48623Y-19540D01*
X48136Y-19540D01*
X48136Y-19211D01*
X48136Y-18680D01*
X47014Y-18680D01*
X46951Y-18743D01*
X46951Y-19073D01*
X46989Y-19165D01*
X47060Y-19236D01*
X47152Y-19274D01*
X47251Y-19274D01*
X48073Y-19274D01*
X48136Y-19211D01*
X48136Y-19540D01*
X47998Y-19540D01*
X47898Y-19540D01*
X47807Y-19578D01*
X47736Y-19648D01*
X47698Y-19740D01*
X47698Y-20268D01*
X47761Y-20330D01*
X48686Y-20330D01*
X48686Y-20430D01*
X47761Y-20430D01*
X47698Y-20493D01*
X47698Y-21020D01*
X47736Y-21112D01*
X47807Y-21183D01*
X47898Y-21221D01*
X47998Y-21221D01*
X48623Y-21221D01*
X48686Y-21158D01*
X48686Y-21290D01*
X47899Y-21290D01*
X47807Y-21328D01*
X47737Y-21398D01*
X47698Y-21490D01*
X47698Y-21589D01*
X47698Y-22770D01*
X47736Y-22862D01*
X47807Y-22933D01*
X47898Y-22971D01*
X47998Y-22971D01*
X49573Y-22971D01*
X49665Y-22933D01*
X49735Y-22863D01*
X49773Y-22771D01*
X49773Y-22671D01*
X49773Y-23746D01*
X35286Y-23746D01*
X30758Y-23746D01*
X21736Y-23746D01*
X21736Y-22081D01*
X21736Y-20081D01*
X21698Y-19989D01*
X21628Y-19918D01*
X21536Y-19880D01*
X21436Y-19880D01*
X20736Y-19880D01*
X20644Y-19918D01*
X20574Y-19988D01*
X20536Y-20080D01*
X20536Y-20180D01*
X20536Y-20585D01*
X20528Y-20585D01*
X20468Y-20525D01*
X20376Y-20487D01*
X20281Y-20486D01*
X20281Y-19222D01*
X20198Y-19022D01*
X20045Y-18868D01*
X19953Y-18830D01*
X20044Y-18793D01*
X20198Y-18639D01*
X20281Y-18439D01*
X20281Y-18222D01*
X20198Y-18022D01*
X20045Y-17868D01*
X19953Y-17830D01*
X20044Y-17793D01*
X20198Y-17639D01*
X20281Y-17439D01*
X20281Y-17222D01*
X20198Y-17022D01*
X20045Y-16868D01*
X19953Y-16830D01*
X20044Y-16793D01*
X20198Y-16639D01*
X20281Y-16439D01*
X20281Y-16222D01*
X20198Y-16022D01*
X20045Y-15868D01*
X19953Y-15830D01*
X20044Y-15793D01*
X20198Y-15639D01*
X20281Y-15439D01*
X20281Y-15222D01*
X20198Y-15022D01*
X20045Y-14868D01*
X19953Y-14830D01*
X20044Y-14793D01*
X20198Y-14639D01*
X20281Y-14439D01*
X20281Y-14222D01*
X20198Y-14022D01*
X20045Y-13868D01*
X19845Y-13785D01*
X19628Y-13785D01*
X19427Y-13868D01*
X19274Y-14021D01*
X19191Y-14221D01*
X19190Y-14438D01*
X19273Y-14639D01*
X19426Y-14792D01*
X19518Y-14830D01*
X19427Y-14868D01*
X19274Y-15021D01*
X19191Y-15221D01*
X19190Y-15438D01*
X19273Y-15639D01*
X19426Y-15792D01*
X19518Y-15830D01*
X19427Y-15868D01*
X19274Y-16021D01*
X19191Y-16221D01*
X19190Y-16438D01*
X19273Y-16639D01*
X19426Y-16792D01*
X19518Y-16830D01*
X19427Y-16868D01*
X19274Y-17021D01*
X19191Y-17221D01*
X19190Y-17438D01*
X19273Y-17639D01*
X19426Y-17792D01*
X19518Y-17830D01*
X19427Y-17868D01*
X19274Y-18021D01*
X19191Y-18221D01*
X19190Y-18438D01*
X19273Y-18639D01*
X19426Y-18792D01*
X19518Y-18830D01*
X19427Y-18868D01*
X19274Y-19021D01*
X19191Y-19221D01*
X19190Y-19438D01*
X19273Y-19639D01*
X19426Y-19792D01*
X19627Y-19875D01*
X19844Y-19876D01*
X20044Y-19793D01*
X20198Y-19639D01*
X20281Y-19439D01*
X20281Y-19222D01*
X20281Y-20486D01*
X20277Y-20486D01*
X19096Y-20486D01*
X19004Y-20524D01*
X18933Y-20595D01*
X18895Y-20687D01*
X18895Y-20786D01*
X18895Y-21573D01*
X18919Y-21630D01*
X18895Y-21687D01*
X18895Y-21786D01*
X18895Y-22573D01*
X18933Y-22665D01*
X19003Y-22736D01*
X19095Y-22774D01*
X19195Y-22774D01*
X20376Y-22774D01*
X20468Y-22736D01*
X20538Y-22666D01*
X20576Y-22574D01*
X20576Y-22474D01*
X20576Y-22274D01*
X20644Y-22342D01*
X20736Y-22380D01*
X20835Y-22380D01*
X21535Y-22380D01*
X21627Y-22342D01*
X21698Y-22272D01*
X21736Y-22180D01*
X21736Y-22081D01*
X21736Y-23746D01*
X17784Y-23746D01*
X17784Y-20131D01*
X17784Y-20078D01*
X17784Y-20026D01*
X17784Y-16587D01*
X17784Y-16535D01*
X17784Y-16483D01*
X17784Y-16482D01*
X17784Y-16482D01*
X17739Y-16256D01*
X17698Y-16159D01*
X17698Y-16158D01*
X17571Y-15968D01*
X17570Y-15967D01*
X17496Y-15893D01*
X17304Y-15765D01*
X17207Y-15725D01*
X17206Y-15725D01*
X16982Y-15680D01*
X16981Y-15680D01*
X16876Y-15680D01*
X16650Y-15725D01*
X16553Y-15765D01*
X16552Y-15766D01*
X16362Y-15893D01*
X16361Y-15893D01*
X16287Y-15968D01*
X16159Y-16159D01*
X16118Y-16257D01*
X16118Y-16258D01*
X16074Y-16482D01*
X16074Y-16482D01*
X16074Y-16483D01*
X16074Y-16535D01*
X16074Y-16587D01*
X16074Y-16588D01*
X16074Y-16588D01*
X16118Y-16812D01*
X16118Y-16813D01*
X16159Y-16911D01*
X16287Y-17102D01*
X16361Y-17177D01*
X16362Y-17177D01*
X16552Y-17304D01*
X16553Y-17305D01*
X16650Y-17345D01*
X16876Y-17390D01*
X16981Y-17390D01*
X16982Y-17390D01*
X17206Y-17345D01*
X17207Y-17345D01*
X17304Y-17305D01*
X17496Y-17177D01*
X17570Y-17103D01*
X17571Y-17102D01*
X17698Y-16912D01*
X17698Y-16911D01*
X17739Y-16814D01*
X17784Y-16588D01*
X17784Y-16587D01*
X17784Y-16587D01*
X17784Y-20026D01*
X17784Y-20026D01*
X17784Y-20025D01*
X17739Y-19799D01*
X17698Y-19702D01*
X17698Y-19702D01*
X17571Y-19511D01*
X17570Y-19510D01*
X17496Y-19436D01*
X17304Y-19308D01*
X17207Y-19268D01*
X17206Y-19268D01*
X16982Y-19223D01*
X16981Y-19223D01*
X16876Y-19223D01*
X16650Y-19268D01*
X16553Y-19309D01*
X16552Y-19309D01*
X16362Y-19436D01*
X16361Y-19436D01*
X16287Y-19511D01*
X16159Y-19703D01*
X16118Y-19800D01*
X16118Y-19801D01*
X16074Y-20025D01*
X16074Y-20026D01*
X16074Y-20026D01*
X16074Y-20078D01*
X16074Y-20131D01*
X16074Y-20131D01*
X16074Y-20131D01*
X16118Y-20356D01*
X16118Y-20357D01*
X16159Y-20454D01*
X16287Y-20646D01*
X16361Y-20720D01*
X16362Y-20720D01*
X16552Y-20847D01*
X16553Y-20848D01*
X16650Y-20888D01*
X16876Y-20933D01*
X16981Y-20934D01*
X16982Y-20933D01*
X17206Y-20888D01*
X17207Y-20888D01*
X17304Y-20848D01*
X17496Y-20720D01*
X17570Y-20646D01*
X17571Y-20645D01*
X17698Y-20455D01*
X17698Y-20454D01*
X17739Y-20357D01*
X17784Y-20131D01*
X17784Y-20131D01*
X17784Y-20131D01*
X17784Y-23746D01*
X16017Y-23746D01*
X16017Y-12868D01*
X52879Y-12868D01*
X52879Y-15872D01*
X52857Y-15872D01*
X52857Y-14970D01*
X52826Y-14730D01*
X52826Y-14729D01*
X52793Y-14630D01*
X52673Y-14419D01*
X52673Y-14419D01*
X52604Y-14339D01*
X52412Y-14190D01*
X52412Y-14190D01*
X52318Y-14143D01*
X52084Y-14079D01*
X52083Y-14079D01*
X51978Y-14072D01*
X51738Y-14102D01*
X51737Y-14102D01*
X51638Y-14135D01*
X51427Y-14255D01*
X51426Y-14256D01*
X51347Y-14325D01*
X51198Y-14516D01*
X51198Y-14516D01*
X51151Y-14611D01*
X51087Y-14845D01*
X51083Y-14897D01*
X51080Y-14950D01*
X51110Y-15190D01*
X51110Y-15191D01*
X51143Y-15291D01*
X51263Y-15501D01*
X51263Y-15502D01*
X51332Y-15581D01*
X51524Y-15730D01*
X51524Y-15730D01*
X51618Y-15777D01*
X51852Y-15841D01*
X51853Y-15841D01*
X51958Y-15849D01*
X52198Y-15818D01*
X52199Y-15818D01*
X52298Y-15785D01*
X52509Y-15665D01*
X52509Y-15665D01*
X52589Y-15596D01*
X52738Y-15404D01*
X52738Y-15404D01*
X52785Y-15310D01*
X52849Y-15076D01*
X52849Y-15075D01*
X52857Y-14970D01*
X52857Y-15872D01*
X50393Y-15872D01*
X50290Y-15892D01*
X50287Y-15894D01*
X50146Y-15894D01*
X50146Y-16035D01*
X50144Y-16038D01*
X50124Y-16141D01*
X50124Y-20472D01*
X50144Y-20575D01*
X50146Y-20579D01*
X50146Y-20719D01*
X50287Y-20719D01*
X50290Y-20721D01*
X50393Y-20742D01*
X52879Y-20742D01*
X52879Y-23746D01*
M02*
